<?xml version="1.0" standalone="no"?>
<!DOCTYPE svg PUBLIC "-//W3C//DTD SVG 1.1//EN" "http://www.w3.org/Graphics/SVG/1.1/DTD/svg11.dtd" >
<svg>
<metadata>
Created by FontForge 20090622 at Wed Mar  5 05:02:32 2014
 By ffonts
1.2, Copyright Copr. Castcraft Software, Inc. 1990-1991.
</metadata>
<defs>
<font id="OPTIDanley-ExtraBold" horiz-adv-x="629" >
  <font-face 
    font-family="OPTIDanley-ExtraBold"
    font-weight="700"
    font-stretch="normal"
    units-per-em="1000"
    panose-1="0 0 0 0 0 0 0 0 0 0"
    ascent="800"
    descent="-200"
    x-height="496"
    cap-height="770"
    bbox="-3.69527 -277.472 1129.71 1028"
    underline-thickness="59"
    underline-position="-79"
    stemh="68"
    stemv="206"
    unicode-range="U+0020-U+2264"
  />
<missing-glyph horiz-adv-x="280" 
 />
    <glyph glyph-name=".notdef" horiz-adv-x="280" 
 />
    <glyph glyph-name="space" unicode=" " horiz-adv-x="178" 
d="M0 0z" />
    <glyph glyph-name="exclam" unicode="!" horiz-adv-x="301" 
d="M190 240c-4 -12 -11 -21 -21 -21c-11 0 -19 10 -21 21l-73 298c-13 54 -39 134 7 194c24 29 54 43 87 43c26 0 56 -10 79 -40c40 -53 23 -137 8 -207zM170 184c54 0 96 -45 96 -99s-43 -96 -97 -96s-98 45 -98 99s45 96 99 96z" />
    <glyph glyph-name="quotedbl" unicode="&#x22;" horiz-adv-x="350" 
d="M128 445h-29l-30 163c-4 28 -28 115 -1 151c10 15 26 22 46 20c18 -1 33 -5 46 -24c22 -32 4 -99 -3 -141zM282 445h-29l-30 163c-5 28 -28 115 -1 151c9 15 26 22 45 20c18 -1 34 -5 47 -24c21 -32 4 -99 -4 -141z" />
    <glyph glyph-name="numbersign" unicode="#" horiz-adv-x="813" 
d="M377 726h113l-74 -208h118l74 208h112l-74 -208h139l-34 -94h-138l-44 -123h138l-33 -95h-139l-73 -208h-113l74 208h-118l-75 -208h-111l73 208h-137l34 95h137l44 123h-137l33 94h138zM326 301h118l45 123h-118z" />
    <glyph glyph-name="dollar" unicode="$" horiz-adv-x="582" 
d="M254 768h83v-31c46 -8 143 -33 173 -102c12 -23 15 -58 -1 -81c-15 -20 -37 -33 -59 -33c-23 0 -56 13 -76 47c-9 13 -10 42 -36 73v-176c111 -54 163 -80 197 -181c19 -59 1 -136 -37 -188c-50 -64 -104 -82 -157 -99v-58h-83v51c-70 7 -169 37 -206 129
c-20 38 -14 122 85 121c31 -3 54 -22 72 -58c8 -17 12 -64 21 -83c9 -13 19 -16 27 -16v201c-94 36 -154 70 -188 170c-16 51 -11 122 21 172c43 66 99 89 164 107v35zM211 614c-12 -33 5 -85 43 -105v144c-25 0 -39 -28 -43 -39zM341 83c51 7 65 50 65 73
c-1 31 -30 62 -65 82v-155z" />
    <glyph glyph-name="percent" unicode="%" horiz-adv-x="634" 
d="M466 704l58 -28l-329 -680l-58 29zM188 689c75 0 130 -81 129 -177c0 -98 -58 -175 -132 -175c-75 0 -129 81 -130 180c-1 95 54 172 133 172zM157 517c0 -72 1 -132 31 -132c28 0 31 58 30 130c0 71 -2 128 -29 128c-31 0 -31 -56 -32 -126zM476 377
c74 0 129 -81 128 -176c0 -98 -57 -175 -132 -175c-74 0 -130 81 -129 179c1 96 54 172 133 172zM444 205c0 -71 1 -131 32 -131c28 0 31 58 30 129c0 72 -2 129 -29 129c-32 0 -32 -56 -33 -127z" />
    <glyph glyph-name="ampersand" unicode="&#x26;" horiz-adv-x="858" 
d="M240 234c48 -140 170 -101 215 -64l-167 239c-62 -51 -66 -127 -48 -175zM505 97c-88 -86 -172 -118 -260 -101c-60 12 -135 47 -168 126c-28 62 -26 154 16 223c44 71 84 97 151 131c-36 78 -62 152 -10 229c32 54 111 93 188 93c48 1 115 -25 146 -83
c18 -38 29 -121 -73 -133c-30 0 -80 26 -98 90c-7 45 -40 54 -38 3c1 -19 41 -76 63 -107l98 -142c40 64 85 121 157 121c34 0 64 -15 83 -48c17 -27 23 -123 -81 -127c-15 0 -29 1 -67 9c-6 -4 -38 -33 -25 -51l171 -244c25 -31 27 -35 63 -59c8 -6 15 -10 15 -21
c0 -6 -9 -6 -20 -6h-291c-15 0 -19 6 -20 16c-1 11 14 18 24 25c18 13 -12 41 -24 56z" />
    <glyph glyph-name="quotesingle" unicode="'" horiz-adv-x="281" 
d="M97 479c26 31 40 49 58 104c-39 8 -72 16 -92 67c-11 27 -10 59 9 87c23 32 52 44 84 44c29 0 63 -9 84 -43c22 -34 21 -101 1 -142c-28 -60 -79 -91 -144 -117z" />
    <glyph glyph-name="parenleft" unicode="(" horiz-adv-x="458" 
d="M427 -147c13 -19 -2 -28 -16 -19c-106 54 -219 149 -273 227c-95 134 -123 297 4 483c81 111 161 164 264 222c18 10 37 -4 21 -21c-284 -345 -166 -640 0 -892z" />
    <glyph glyph-name="parenright" unicode=")" horiz-adv-x="458" 
d="M63 745c-17 17 3 31 20 21c104 -58 184 -111 265 -222c127 -186 98 -349 3 -483c-54 -78 -166 -173 -272 -227c-14 -9 -29 0 -16 19c166 252 284 547 0 892z" />
    <glyph glyph-name="asterisk" unicode="*" horiz-adv-x="336" 
d="M203 676c23 26 38 52 73 49c33 -2 39 -36 30 -50c-7 -16 -18 -26 -40 -32c-4 -1 -35 -4 -42 -5c26 -1 70 -3 85 -39c12 -38 -20 -57 -43 -50c-11 2 -22 10 -34 20c-2 2 -23 26 -28 29c15 -28 31 -57 17 -83c-26 -37 -52 -24 -64 -9c-21 27 -7 65 6 91
c-21 -31 -35 -52 -69 -52c-18 0 -56 19 -30 58c19 31 59 32 80 33c-28 5 -69 9 -83 46c-15 39 24 53 41 49c10 -2 22 -6 35 -21c0 0 18 -27 26 -33c1 9 -35 55 -6 88c25 29 61 12 68 -9c5 -13 3 -30 -1 -41c-3 -7 -6 -16 -21 -39z" />
    <glyph glyph-name="plus" unicode="+" horiz-adv-x="711" 
d="M289 624h164v-232h232v-162h-232v-230h-164v230h-234v162h234v232z" />
    <glyph glyph-name="comma" unicode="," horiz-adv-x="281" 
d="M56 92c1 53 48 94 101 94c52 0 95 -49 95 -101c0 -32 -10 -84 -25 -109c-19 -33 -62 -74 -105 -87c28 39 38 50 39 102c-63 0 -106 48 -105 101z" />
    <glyph glyph-name="hyphen" unicode="-" horiz-adv-x="378" 
d="M86 322h264l-34 -154h-261z" />
    <glyph glyph-name="period" unicode="." horiz-adv-x="281" 
d="M152 183c53 0 98 -45 98 -98s-44 -96 -96 -96c-53 0 -99 43 -99 96s44 98 97 98z" />
    <glyph glyph-name="slash" unicode="/" horiz-adv-x="506" 
d="M429 686l51 -27l-372 -660l-53 30z" />
    <glyph glyph-name="zero" unicode="0" 
d="M329 733c159 0 271 -172 269 -376c-1 -205 -119 -368 -278 -368c-157 0 -274 172 -271 376c1 205 114 368 280 368zM263 365c0 -166 2 -303 63 -303c59 0 68 133 66 299c-1 167 -4 305 -61 305c-64 0 -67 -134 -68 -301z" />
    <glyph glyph-name="one" unicode="1" 
d="M378 725c39 14 49 -3 49 -27v-565c0 -57 16 -82 47 -96c8 -3 17 -10 16 -21s-11 -16 -21 -16h-291c-9 0 -19 5 -20 16s7 18 16 21c30 14 47 39 47 96v383c0 60 2 76 -21 96c-10 6 -19 15 -22 24c-4 15 11 26 24 30z" />
    <glyph glyph-name="two" unicode="2" 
d="M312 183c105 -23 171 8 194 19l33 20c35 20 43 -4 34 -25l-40 -181c-4 -15 -2 -20 -42 -20c0 0 -156 9 -247 9c-52 3 -94 -4 -120 -4c-19 -1 -61 -3 -30 49c15 27 40 59 49 71l122 167c54 74 109 167 80 240c-12 28 -33 47 -67 55c-74 20 -107 -27 -179 -86
c-10 -9 -27 0 -27 18c0 27 16 57 26 74c49 89 113 131 197 141c61 6 147 -4 204 -68c46 -52 55 -128 40 -187c-25 -112 -113 -190 -227 -292z" />
    <glyph glyph-name="three" unicode="3" 
d="M414 413c77 -28 134 -68 155 -148c14 -60 10 -122 -47 -186c-71 -81 -179 -97 -255 -88c-64 8 -137 39 -176 113c-25 39 -33 133 63 149c78 8 107 -69 113 -97c7 -26 4 -61 9 -72c15 -34 57 -19 68 0c19 26 25 177 14 212c-19 59 -61 70 -108 83c-12 3 -31 23 7 35
c59 20 84 54 98 83c16 33 19 116 -78 114c-18 0 -60 -10 -89 -36c-57 -50 -58 11 -50 26c33 70 110 120 182 135c208 30 241 -132 221 -191c-18 -69 -58 -97 -127 -132z" />
    <glyph glyph-name="four" unicode="4" 
d="M219 258h98v127zM395 630c32 42 66 93 99 86c28 -9 24 -70 24 -110v-348h17c30 0 43 -21 43 -54c0 -29 -15 -49 -45 -49h-14v-22c0 -57 16 -82 46 -96c9 -3 18 -10 17 -21s-11 -16 -21 -16h-291c-9 0 -19 5 -20 16s7 18 16 21c30 14 46 39 46 96v22h-217
c-21 0 -34 10 -39 26c-3 15 7 30 13 38z" />
    <glyph glyph-name="five" unicode="5" 
d="M534 689c0 0 -20 -101 -25 -117c-6 -25 -15 -34 -45 -34h-243v-54c84 6 216 -2 293 -95c50 -64 62 -162 41 -229c-24 -76 -80 -142 -165 -164c-46 -12 -178 -17 -246 43c-45 39 -60 90 -55 133c3 31 28 65 58 74c97 24 120 -62 128 -144c16 -64 64 -49 83 -34
c31 25 31 111 29 131c-3 33 -23 69 -66 85c-39 21 -126 25 -164 31c-18 3 -32 3 -31 45v326c2 28 15 36 46 36h334c33 0 33 -14 28 -33z" />
    <glyph glyph-name="six" unicode="6" 
d="M495 731c-90 -78 -146 -155 -178 -250c56 13 129 33 202 -38c62 -59 70 -195 50 -267c-27 -91 -98 -154 -187 -179c-70 -19 -166 -6 -238 65c-91 89 -83 236 -64 322c37 151 125 279 292 332c13 4 71 18 123 15zM277 134c2 -35 18 -76 52 -76c35 0 48 44 52 76
c7 90 5 111 0 211c-4 40 -21 76 -52 76c-32 0 -49 -34 -52 -76c-5 -99 -8 -117 0 -211z" />
    <glyph glyph-name="seven" unicode="7" 
d="M101 0l311 535h-215c-51 0 -77 -26 -91 -41c-10 -10 -39 -23 -24 25l22 84c25 99 15 113 120 115h262c50 0 73 -16 62 -62l-184 -656h-263z" />
    <glyph glyph-name="eight" unicode="8" 
d="M467 418c91 -69 117 -136 110 -220c-4 -60 -46 -132 -118 -171c-77 -42 -187 -54 -275 -6c-68 36 -108 101 -113 160c-5 64 20 112 94 177c-69 69 -97 152 -58 245c66 159 318 172 399 67c38 -46 48 -101 30 -153c-14 -38 -30 -59 -69 -99zM395 614c-16 30 -40 48 -64 49
c-26 3 -88 -11 -64 -88c17 -50 68 -91 117 -105c14 37 29 108 11 144zM219 178c7 -41 30 -84 72 -102c86 -31 128 48 122 87c-9 65 -67 86 -127 117c-21 12 -31 16 -42 24c-22 -56 -29 -91 -25 -126z" />
    <glyph glyph-name="nine" unicode="9" 
d="M152 -10c90 78 146 154 179 249c-56 -11 -129 -9 -194 41c-89 69 -75 204 -58 264c25 91 97 154 187 179c69 19 165 6 238 -65c91 -89 83 -236 64 -322c-37 -151 -126 -279 -292 -332c-13 -4 -72 -17 -124 -14zM371 586c-2 35 -19 76 -52 76c-36 0 -49 -44 -52 -76
c-8 -90 -5 -111 0 -211c3 -40 21 -76 52 -76s49 34 52 76c4 99 7 117 0 211z" />
    <glyph glyph-name="colon" unicode=":" horiz-adv-x="281" 
d="M156 521c53 -1 95 -47 94 -100s-47 -93 -100 -93s-96 46 -95 99s48 95 101 94zM156 183c53 -1 95 -48 94 -101s-47 -94 -100 -93s-96 47 -95 100s48 95 101 94z" />
    <glyph glyph-name="semicolon" unicode=";" horiz-adv-x="281" 
d="M157 510c53 -1 95 -47 94 -100s-47 -94 -100 -93s-96 46 -95 99s48 95 101 94zM56 92c1 53 48 94 101 94c52 0 96 -45 96 -101c0 -32 -9 -81 -26 -109c-19 -33 -62 -74 -105 -87c28 39 38 50 39 102c-63 0 -106 48 -105 101z" />
    <glyph glyph-name="less" unicode="&#x3c;" horiz-adv-x="550" 
d="M56 449l469 175v-125l-300 -108l300 -107v-125l-469 175v115z" />
    <glyph glyph-name="equal" unicode="=" horiz-adv-x="834" 
d="M809 605v-163h-754v163h754zM809 336v-162h-754v162h754z" />
    <glyph glyph-name="greater" unicode="&#x3e;" horiz-adv-x="550" 
d="M525 334l-469 -175v125l301 107l-301 108v125l469 -175v-115z" />
    <glyph glyph-name="question" unicode="?" horiz-adv-x="522" 
d="M317 329l22 26c15 -37 15 -87 -9 -116c-18 -22 -50 -28 -71 -25c-28 4 -55 24 -67 54c-16 42 -1 69 40 137l13 22c37 64 67 117 40 170c-14 28 -46 44 -74 44c-63 0 -82 -30 -127 -59c-10 -8 -34 -12 -23 27c10 32 46 82 81 110c66 56 164 77 239 49
c55 -21 100 -64 109 -122c13 -89 -26 -127 -127 -214c-27 -23 -52 -45 -73 -70c-8 -8 -13 -17 -14 -25c-4 -21 20 -28 41 -8zM274 187c55 0 99 -44 99 -99c0 -56 -44 -99 -99 -99c-56 0 -100 43 -100 99c0 55 44 99 100 99z" />
    <glyph glyph-name="at" unicode="@" horiz-adv-x="1000" 
d="M600 171c-46 -75 -102 -99 -162 -99c-42 0 -103 21 -137 78c-38 63 -22 170 9 232c44 85 122 146 204 152c33 2 94 -6 123 -48c5 -7 11 -17 17 -30l18 61h134l-64 -228c-6 -23 -38 -113 -17 -135c11 -11 27 -16 50 -11c56 12 90 65 111 119c37 88 42 203 -21 294
c-77 106 -234 130 -318 126c-122 -6 -242 -58 -330 -215c-63 -111 -69 -272 -6 -386c66 -124 183 -172 292 -179c124 -9 232 20 355 94l28 -41c-189 -120 -409 -158 -600 -62v-1c-131 66 -217 197 -229 342c-9 134 33 295 194 411c148 105 374 118 519 54v0
c107 -47 180 -147 198 -261c9 -82 -13 -239 -112 -315c-51 -42 -128 -62 -187 -42c-40 16 -60 42 -69 90zM423 208c-1 -27 4 -48 26 -61c18 -13 43 -11 60 0c65 31 107 196 110 239c4 24 -1 54 -23 70c-17 13 -44 12 -58 8c-72 -30 -114 -220 -115 -256z" />
    <glyph glyph-name="A" unicode="A" horiz-adv-x="769" 
d="M56 0c-12 0 -19 5 -20 16s10 19 22 30c11 16 25 35 39 71l226 565c15 39 36 99 64 99c27 0 49 -59 65 -97l267 -602c11 -18 14 -25 26 -42c9 -9 15 -13 14 -24s-10 -16 -21 -16h-274c-10 0 -20 5 -21 16s9 16 16 21c21 12 47 22 32 55l-47 99h-206l-41 -98
c-13 -35 13 -44 33 -56c8 -5 18 -10 16 -21c-1 -11 -9 -16 -20 -16h-170zM276 288h127l-65 152z" />
    <glyph glyph-name="B" unicode="B" horiz-adv-x="774" 
d="M491 486c23 32 30 99 21 129c-8 33 -31 62 -64 75c-34 12 -85 11 -103 -1c-13 -8 -20 -18 -21 -36v-211c40 -3 130 -3 167 44zM324 368v-239c0 -31 5 -43 24 -55c23 -16 92 -17 119 -3c52 27 76 86 76 133c0 44 -17 107 -66 140c-40 26 -92 24 -153 24zM366 0
c0 0 -88 3 -145 3s-145 -3 -145 -3c-10 0 -20 5 -21 16s8 18 16 21c31 14 47 39 47 96v504c0 57 -16 82 -47 96c-8 3 -17 10 -16 21c1 10 11 16 21 16c0 0 105 -4 172 -4c46 0 118 4 118 4c83 1 271 0 336 -103c30 -48 36 -118 12 -166c-33 -62 -82 -84 -138 -101
c70 -13 136 -32 170 -115c20 -48 17 -128 -26 -188c-76 -105 -232 -98 -354 -97z" />
    <glyph glyph-name="C" unicode="C" horiz-adv-x="749" 
d="M728 262c0 0 -4 -65 -85 -159c-75 -84 -179 -115 -272 -114c-36 -1 -236 30 -307 236c-48 129 -28 267 58 387c99 135 226 173 348 169c86 -4 194 -32 255 -87c6 -9 7 -20 -5 -39c-6 -10 -67 -96 -82 -121c-15 -19 -29 -2 -36 11c-38 107 -87 135 -113 144
c-28 12 -94 16 -132 -8c-85 -47 -114 -192 -117 -256c-3 -76 6 -172 105 -241c63 -42 156 -43 218 -13c68 30 106 75 141 107c14 15 26 4 24 -16z" />
    <glyph glyph-name="D" unicode="D" horiz-adv-x="865" 
d="M324 588v-439c0 -38 2 -52 30 -71c31 -20 122 -12 153 5c91 47 110 189 116 250c7 71 11 266 -89 341c-45 33 -119 51 -169 32c-46 -17 -41 -72 -41 -118zM76 0c-10 0 -20 5 -21 16s8 18 16 21c31 14 47 39 47 96v504c0 57 -16 82 -47 96c-8 3 -17 10 -16 21
c1 10 11 16 21 16c0 0 103 -4 170 -4c47 0 120 4 120 4c137 3 330 -2 436 -179c66 -110 56 -303 -13 -416c-104 -166 -253 -176 -394 -175c0 0 -71 3 -116 3c-79 0 -203 -3 -203 -3z" />
    <glyph glyph-name="E" unicode="E" horiz-adv-x="726" 
d="M603 770c50 0 68 32 75 -24l19 -151c1 -19 -12 -38 -34 -17c-36 33 -75 66 -118 84c-35 16 -113 29 -167 29c-17 -1 -54 3 -54 -56v-186h175c50 0 83 29 97 59c3 9 9 17 20 16s16 -8 16 -20v-197c0 -11 -4 -18 -16 -21c-11 -1 -17 8 -20 17c-14 30 -47 59 -97 59h-175
v-227c0 -59 37 -55 54 -56c54 0 138 11 172 23c78 28 111 72 129 90c2 4 24 29 27 32c11 11 20 6 28 -1c3 -8 1 -14 -1 -27c0 0 -16 -61 -23 -99c-8 -39 -14 -98 -27 -107c-7 -5 -68 10 -79 10h-528c-10 0 -20 5 -21 16s8 18 16 21c31 14 47 39 47 96v504
c0 57 -16 82 -47 96c-8 3 -17 10 -16 21c1 10 11 16 21 16h527z" />
    <glyph glyph-name="F" unicode="F" horiz-adv-x="695" 
d="M603 770c50 0 67 32 75 -24l19 -151c4 -19 -12 -40 -34 -17c-36 32 -75 66 -118 84c-35 16 -113 29 -167 29c-17 -1 -54 3 -54 -56v-206h175c50 0 83 29 97 60c3 8 9 17 20 16s16 -10 16 -21v-196c0 -11 -5 -20 -16 -21s-17 8 -20 16c-14 31 -47 60 -97 60h-175v-210
c0 -57 17 -82 47 -96c8 -3 17 -10 16 -21s-11 -16 -21 -16h-290c-10 0 -20 5 -21 16s8 18 16 21c31 14 47 39 47 96v504c0 57 -16 82 -47 96c-8 3 -17 10 -16 21c1 10 11 16 21 16h527z" />
    <glyph glyph-name="G" unicode="G" horiz-adv-x="857" 
d="M776 179c0 -51 9 -77 45 -96c17 -12 -17 -29 -33 -37c-69 -32 -132 -47 -236 -55c-157 -8 -339 7 -441 145c-83 113 -92 277 -43 398c57 131 201 217 308 238c86 23 322 -1 393 -67c13 -13 15 -20 6 -35l-68 -111c-12 -18 -25 -37 -46 -10c-63 117 -115 135 -151 145
c-45 15 -122 0 -165 -43c-94 -91 -96 -307 -81 -382c14 -73 50 -167 145 -200c32 -12 107 -13 135 3c29 17 26 43 26 70v239c0 57 -16 82 -47 96c-8 0 -16 9 -16 20s11 17 21 17h290c10 0 21 -5 21 -17c0 -11 -8 -20 -16 -20c-31 -14 -47 -39 -47 -96v-202z" />
    <glyph glyph-name="H" unicode="H" horiz-adv-x="869" 
d="M324 506h249v131c0 57 -16 82 -47 96c-8 0 -16 10 -16 21c0 10 11 16 21 16h291c9 0 20 -5 20 -16s-7 -21 -16 -21c-30 -14 -47 -39 -47 -96v-504c0 -57 17 -82 47 -96c9 0 16 -10 16 -21s-11 -16 -20 -16h-291c-10 0 -21 5 -21 16s8 21 16 21c31 14 47 39 47 96v278
h-249v-278c0 -57 17 -82 47 -96c8 0 16 -10 16 -21s-11 -16 -21 -16h-290c-10 0 -21 5 -21 16s8 21 16 21c31 14 47 39 47 96v504c0 57 -16 82 -47 96c-8 0 -16 10 -16 21c0 10 11 16 21 16h290c10 0 21 -5 21 -16s-8 -21 -16 -21c-30 -14 -47 -39 -47 -96v-131z" />
    <glyph glyph-name="I" unicode="I" horiz-adv-x="415" 
d="M324 133c0 -57 17 -82 47 -96c8 -3 17 -10 16 -21s-11 -16 -21 -16h-290c-10 0 -20 5 -21 16s8 18 16 21c31 14 47 39 47 96v504c0 57 -16 82 -47 96c-8 3 -17 10 -16 21c1 10 11 16 21 16h290c10 0 21 -5 21 -16c1 -11 -8 -18 -16 -21c-30 -14 -47 -39 -47 -96v-504z
" />
    <glyph glyph-name="J" unicode="J" horiz-adv-x="604" 
d="M510 279c0 -74 -6 -202 -99 -253c-73 -43 -207 -49 -279 -10c-53 32 -91 77 -93 133c1 112 107 105 145 93c45 -15 70 -56 70 -132c0 -44 35 -42 43 -31c4 2 7 7 7 24v534c0 57 -16 82 -47 96c-8 3 -17 10 -16 21c1 10 11 16 21 16h290c10 0 21 -5 21 -16
c1 -11 -8 -18 -16 -21c-31 -14 -47 -39 -47 -96v-358z" />
    <glyph glyph-name="K" unicode="K" horiz-adv-x="859" 
d="M791 770c13 0 21 -6 21 -16s-4 -12 -16 -21l-50 -42l-216 -217l245 -369c24 -33 48 -57 67 -71c11 -8 19 -13 19 -18c0 -8 -6 -16 -23 -16h-307c-10 0 -21 5 -21 16c0 10 6 13 16 21c33 25 11 52 -27 108l-124 183l-51 -54v-141c0 -57 17 -82 47 -96c8 0 16 -10 16 -21
s-11 -16 -21 -16h-290c-10 0 -21 5 -21 16s8 21 16 21c31 14 47 39 47 96v504c0 57 -16 82 -47 96c-8 0 -16 10 -16 21c0 10 11 16 21 16h290c10 0 21 -5 21 -16s-8 -21 -16 -21c-30 -14 -47 -39 -47 -96v-228l184 182c43 44 90 86 81 116c-3 14 -11 19 -23 26
c-9 4 -16 10 -16 21c0 10 9 16 21 16h220z" />
    <glyph glyph-name="L" unicode="L" horiz-adv-x="712" 
d="M76 0c-10 0 -20 5 -21 16s8 18 16 21c31 14 47 39 47 96v504c0 57 -16 82 -47 96c-8 3 -17 10 -16 21c1 10 11 16 21 16h290c10 0 21 -5 21 -16c1 -11 -8 -18 -16 -21c-30 -14 -47 -39 -47 -96v-504c0 -19 -1 -38 30 -55c35 -19 90 -10 126 2c41 13 83 38 122 72
c44 34 89 88 89 88c18 22 32 2 30 -6l-25 -126c-22 -110 -14 -108 -117 -108h-503z" />
    <glyph glyph-name="M" unicode="M" horiz-adv-x="1029" 
d="M108 135l75 510c7 59 -2 73 -29 88c-9 4 -18 11 -17 21c0 10 6 16 22 16h139c99 0 87 -1 127 -105l112 -284l130 331c17 46 16 58 87 58h149c16 0 21 -7 21 -18c0 -9 -8 -15 -17 -19c-28 -14 -38 -29 -32 -87l57 -513c5 -51 20 -83 47 -96c9 -3 16 -9 16 -20
s-9 -17 -20 -17h-291c-12 0 -21 5 -21 17c0 11 8 18 17 20c44 21 51 44 45 97l-35 331l-176 -431c-10 -20 -17 -34 -37 -34c-21 0 -25 13 -35 32l-184 474l-54 -372c-6 -52 1 -76 46 -97c8 -2 18 -10 17 -20c0 -12 -9 -17 -24 -17h-179c-15 0 -24 5 -24 17
c-1 10 10 17 17 20c29 13 45 47 51 98z" />
    <glyph glyph-name="N" unicode="N" horiz-adv-x="795" 
d="M683 -10c-28 -6 -72 50 -86 67l-388 477v-401c0 -57 16 -82 46 -96c9 -3 17 -10 16 -21s-10 -16 -20 -16h-175c-10 0 -20 5 -21 16s8 18 16 21c31 14 47 39 47 96v504c0 55 -16 82 -47 96c-8 3 -17 10 -16 21c1 10 11 16 21 16h137c112 0 88 9 169 -88l231 -277v232
c0 57 -16 82 -47 96c-8 3 -17 10 -16 21c1 10 11 16 21 16h175c10 0 19 -6 20 -16c2 -11 -7 -18 -16 -21c-30 -14 -46 -39 -46 -96v-554c0 -28 4 -85 -21 -93z" />
    <glyph glyph-name="O" unicode="O" horiz-adv-x="852" 
d="M434 781c219 1 401 -175 400 -394c-2 -219 -179 -397 -398 -398c-220 -1 -397 174 -398 394c-1 219 172 396 396 398zM250 383c0 -179 53 -325 186 -325c132 0 188 144 188 323c0 178 -53 324 -186 324c-132 0 -188 -144 -188 -322z" />
    <glyph glyph-name="P" unicode="P" horiz-adv-x="771" 
d="M468 382c53 26 74 117 74 153c2 53 -16 117 -78 154c-30 18 -86 20 -110 5c-30 -16 -29 -53 -30 -132v-185c40 -15 106 -13 144 5zM724 657c36 -53 38 -166 7 -226c-79 -140 -277 -151 -369 -150h-38v-148c-1 -58 17 -82 47 -96c8 -3 17 -10 16 -21s-11 -16 -21 -16h-290
c-10 0 -20 5 -21 16s8 18 16 21c31 14 47 39 47 96v506c0 56 -17 81 -47 94c-8 3 -17 10 -16 21c1 10 11 16 21 16h290c157 -4 285 -2 358 -113z" />
    <glyph glyph-name="Q" unicode="Q" horiz-adv-x="852" 
d="M251 383c0 -179 53 -325 186 -325c132 0 188 144 188 323c0 178 -53 324 -186 324c-132 0 -188 -144 -188 -322zM339 0c-171 42 -300 197 -300 383c0 219 172 398 396 398c219 0 400 -175 400 -394c0 -177 -116 -328 -277 -379c4 -66 52 -159 121 -187
c41 -17 67 -17 104 -17v-8c-66 -54 -170 -49 -231 -31c-107 33 -184 129 -213 235z" />
    <glyph glyph-name="R" unicode="R" horiz-adv-x="824" 
d="M499 0c-9 0 -20 5 -20 16s9 18 16 21c35 15 20 35 -2 73l-122 207h-47v-184c0 -58 17 -82 47 -96c8 0 16 -10 16 -21s-11 -16 -21 -16h-290c-10 0 -21 5 -21 16s8 21 16 21c31 14 47 39 47 96v506c0 56 -17 81 -47 94c-8 0 -16 10 -16 21c0 10 11 16 21 16h290
c157 0 285 -8 358 -113c36 -53 38 -139 7 -195c-33 -58 -85 -93 -142 -115l134 -221c40 -62 48 -75 83 -89c13 -6 17 -10 17 -21s-10 -17 -21 -16c0 0 -301 -1 -303 0zM542 547c0 56 -13 147 -144 157c-46 1 -74 -1 -74 -74v-230h91c100 0 127 101 127 147z" />
    <glyph glyph-name="S" unicode="S" horiz-adv-x="670" 
d="M138 251c63 -116 87 -166 178 -185c149 -24 164 86 153 119c-13 53 -52 81 -115 104l-85 28c-120 43 -187 49 -217 162c-41 251 210 317 366 298c48 -6 161 -47 199 -98c10 -13 9 -13 -5 -30l-88 -108c-5 -5 -12 4 -19 19c-50 82 -88 121 -157 132
c-36 6 -139 -8 -120 -102c14 -56 101 -94 144 -108l90 -29c86 -26 167 -80 182 -174c11 -63 -2 -145 -80 -213c-103 -92 -256 -89 -365 -57c-30 9 -158 62 -176 115c-5 15 0 24 23 54l57 71c22 32 35 2 35 2z" />
    <glyph glyph-name="T" unicode="T" horiz-adv-x="777" 
d="M695 770c22 0 41 12 46 -4c0 0 13 -61 19 -101c4 -26 11 -62 11 -78c0 -27 -23 -28 -34 -17c-46 43 -92 81 -150 109c-13 5 -30 13 -44 13c-17 1 -36 -2 -36 -44v-515c0 -57 16 -82 47 -96c8 -3 17 -10 16 -21s-11 -16 -21 -16h-291c-9 0 -19 5 -20 16s7 18 16 21
c30 14 47 39 47 96v516c0 44 -21 44 -37 43c-12 -1 -30 -9 -43 -14c-62 -27 -105 -65 -152 -108c-11 -9 -32 -15 -33 17c-1 21 4 57 8 78c8 39 22 101 22 101c3 16 24 4 45 4h584z" />
    <glyph glyph-name="U" unicode="U" horiz-adv-x="818" 
d="M723 286c0 -98 -5 -185 -131 -258c-100 -57 -272 -46 -362 8c-119 67 -114 130 -114 230v371c0 57 -13 82 -44 96c-8 3 -17 10 -16 21c1 10 11 16 21 16h291c9 0 20 -5 20 -16c1 -11 -7 -18 -16 -21c-30 -14 -47 -39 -47 -96v-329c0 -54 -3 -164 80 -207
c47 -23 104 -21 152 4c77 45 71 132 71 192v340c0 56 -16 82 -46 96c-9 3 -18 10 -17 21c1 10 11 16 21 16h179c10 0 21 -5 21 -16c1 -11 -8 -18 -16 -21c-31 -14 -47 -39 -47 -96v-351z" />
    <glyph glyph-name="V" unicode="V" horiz-adv-x="802" 
d="M462 34c-18 -33 -24 -45 -37 -45c-27 -1 -30 23 -87 150l-190 466c-19 51 -66 114 -98 128c-6 1 -18 9 -14 22c2 8 13 15 21 15h293c9 0 19 -8 19 -20c-1 -7 -10 -13 -17 -18c-29 -14 -15 -43 -13 -50l144 -351l100 241c25 65 29 80 28 113c0 11 -11 34 -27 47
c-7 4 -16 11 -16 18c0 12 9 20 18 20h190c9 0 20 -5 22 -15c2 -13 -9 -20 -14 -22c-43 -22 -61 -71 -85 -127z" />
    <glyph glyph-name="W" unicode="W" horiz-adv-x="1118" 
d="M776 -11c-30 0 -50 32 -72 96l-127 361l-146 -412c-14 -38 -31 -45 -43 -45c-27 0 -45 15 -91 145l-168 475c-18 52 -59 110 -90 124c-5 2 -15 8 -14 22c1 8 13 15 21 15h292c9 0 20 -8 19 -20c0 -7 -9 -12 -16 -18c-29 -14 -19 -50 -17 -56l112 -319l85 245
c-20 57 -28 106 -86 132c-6 2 -17 9 -14 22c1 8 10 14 21 14h284c9 0 20 -7 19 -19c0 -7 -9 -12 -16 -18c-28 -14 -21 -43 -17 -56l119 -336l118 336c6 14 12 42 -16 56c-8 6 -16 11 -16 18c-1 12 9 19 18 19h172c11 0 21 -6 22 -14c4 -13 -10 -21 -14 -22
c-31 -12 -69 -67 -90 -124l-164 -476c-26 -71 -52 -145 -85 -145z" />
    <glyph glyph-name="X" unicode="X" horiz-adv-x="801" 
d="M401 36c18 5 51 21 51 21c13 19 12 33 -3 58l-98 152l-103 -149c-16 -23 -16 -46 1 -61c10 -11 32 -16 50 -21c10 -4 19 -8 19 -15c1 -13 -9 -21 -19 -21h-236c-15 0 -23 8 -23 15c0 14 9 19 16 23c30 16 73 70 120 140l122 176l-141 236c-29 50 -66 121 -104 142
c-10 5 -15 10 -15 23c0 7 7 15 20 15h299c8 0 18 -5 18 -21c0 -8 -7 -14 -17 -17c-28 -9 -30 -29 -21 -44l108 -176l124 178c8 13 7 33 -22 42c-9 4 -17 9 -17 17c0 15 9 21 18 21h170c17 0 20 -8 20 -15c0 -14 -12 -22 -24 -33c-32 -27 -37 -39 -99 -128l-117 -168
l148 -247c33 -54 63 -114 128 -145c9 -4 18 -7 18 -19c0 -7 -7 -15 -20 -15h-371c-10 0 -19 8 -18 21c0 7 8 11 18 15z" />
    <glyph glyph-name="Y" unicode="Y" horiz-adv-x="809" 
d="M392 770c9 0 20 -10 19 -22c0 -7 -9 -15 -16 -19c-18 -11 -29 -25 -29 -37c-3 -26 10 -56 42 -116l86 -167l84 167c31 63 45 90 41 116c0 12 -10 26 -28 37c-7 4 -16 12 -16 19c-1 12 10 22 19 22h190c8 0 21 -4 21 -19c1 -10 -9 -18 -15 -21c-41 -21 -66 -71 -94 -128
l-166 -331v-138c0 -57 16 -82 46 -96c9 -3 18 -10 16 -21c-1 -11 -10 -16 -20 -16h-291c-10 0 -19 5 -20 16c-2 11 7 18 16 21c30 14 46 39 46 96v158l-160 307c-31 48 -85 124 -111 134c-8 3 -15 10 -15 23c0 11 12 14 22 15h333z" />
    <glyph glyph-name="Z" unicode="Z" horiz-adv-x="675" 
d="M71 0c-17 0 -36 10 -18 40l337 649c-87 19 -195 -11 -273 -78c-10 -8 -21 -21 -28 -28c-11 -13 -41 -26 -40 4c4 55 9 89 20 148c10 54 16 46 82 35h422c72 2 71 -28 46 -77l-311 -612c87 -15 189 7 274 79c6 5 20 19 28 27c12 15 42 23 40 -4c-6 -55 -11 -91 -21 -148
c-7 -40 -37 -35 -80 -35h-478z" />
    <glyph glyph-name="bracketleft" unicode="[" horiz-adv-x="350" 
d="M239 -67c0 -40 16 -64 62 -64h27v-41h-227c-31 0 -46 17 -46 49v844c0 31 14 49 46 49h227v-41h-27c-46 0 -62 -24 -62 -64v-732z" />
    <glyph glyph-name="backslash" unicode="\" horiz-adv-x="520" 
d="M480 29l-53 -30l-374 658l53 29z" />
    <glyph glyph-name="bracketright" unicode="]" horiz-adv-x="350" 
d="M144 665c0 40 -16 64 -62 64h-27v41h227c32 0 46 -18 46 -49v-844c0 -32 -16 -49 -46 -49h-227v41h27c46 0 62 24 62 64v732z" />
    <glyph glyph-name="asciicircum" unicode="^" horiz-adv-x="415" 
d="M222 644l-30 -58h-134l90 168h147l90 -168h-134z" />
    <glyph glyph-name="underscore" unicode="_" horiz-adv-x="559" 
d="M575 -192h-576v68h576v-68z" />
    <glyph glyph-name="grave" unicode="`" horiz-adv-x="275" 
d="M59 754h153l33 -168h-103z" />
    <glyph glyph-name="a" unicode="a" horiz-adv-x="573" 
d="M334 43c-79 -45 -164 -71 -233 -21c-51 36 -62 92 -51 141c21 102 151 129 228 152l44 10c0 39 2 102 -6 105c-5 4 -13 6 -20 1c-15 -6 -27 -41 -40 -76c-11 -30 -48 -50 -81 -51c-21 -1 -54 6 -73 32c-16 22 -19 49 -10 74c19 54 79 76 123 87c47 13 194 23 248 -25
c43 -37 38 -102 38 -143v-190c0 -50 19 -48 32 -42c27 18 43 7 43 -7c2 -19 -21 -44 -47 -63c-37 -32 -97 -49 -141 -30c-22 8 -34 17 -54 46zM259 221c-25 -19 -34 -42 -33 -63c1 -24 16 -41 26 -47c16 -10 36 -4 47 4c20 11 21 20 21 44v81c-18 -2 -49 -11 -61 -19z" />
    <glyph glyph-name="b" unicode="b" horiz-adv-x="615" 
d="M281 190c0 -66 -4 -106 28 -123c14 -9 33 -9 49 0c42 19 58 116 57 141c1 56 -1 152 -52 180c-20 12 -54 16 -82 -16v-182zM251 738c29 9 32 3 32 -29v-244c74 44 141 54 201 28c58 -24 92 -81 107 -145c18 -80 -4 -205 -73 -280c-64 -67 -152 -84 -199 -77
c-30 5 -85 27 -125 52c-21 -13 -39 -25 -62 -38c-14 -9 -31 -4 -31 10c0 2 4 43 4 82v489c0 24 -11 41 -24 50c-10 5 -24 10 -26 20c-1 11 9 19 17 21z" />
    <glyph glyph-name="c" unicode="c" horiz-adv-x="501" 
d="M270 505c55 10 166 -1 211 -46c13 -11 13 -16 4 -31c-3 -9 -53 -86 -74 -102c-8 -6 -17 -3 -24 10c-5 10 -15 35 -19 49c-12 36 -58 64 -99 39c-29 -18 -57 -91 -57 -144c0 -46 9 -117 56 -145c78 -45 151 19 162 40c29 53 48 48 59 38c7 -8 1 -31 -1 -41
c-20 -78 -69 -144 -147 -172c-60 -22 -152 -12 -215 41c-72 61 -89 159 -78 231c10 78 53 166 150 210c28 12 53 20 72 23z" />
    <glyph glyph-name="d" unicode="d" horiz-adv-x="617" 
d="M370 307c0 66 3 105 -27 123c-12 8 -33 8 -50 0c-41 -18 -58 -115 -57 -140c-1 -56 4 -155 52 -181c19 -11 51 -15 82 16v182zM364 589c0 24 -9 41 -25 50c-9 5 -23 11 -25 20c-2 11 8 19 17 21l179 61c24 7 33 2 33 -30v-286v-294c0 -25 3 -40 26 -52
c4 -1 12 -10 10 -17c-1 -9 -13 -16 -32 -23l-136 -44c-30 -12 -34 0 -38 13l-5 24c-74 -44 -141 -54 -202 -28c-57 24 -91 81 -107 145c-17 80 6 195 74 280c61 76 164 104 231 57v103z" />
    <glyph glyph-name="e" unicode="e" horiz-adv-x="524" 
d="M223 251c0 -32 22 -92 68 -114c40 -20 94 -21 134 4c43 24 46 54 67 72c7 4 17 2 20 -5c3 -6 3 -22 -1 -36c-21 -84 -69 -144 -146 -171c-53 -18 -149 -19 -213 24c-86 58 -107 159 -107 221c0 65 25 166 110 223c64 43 161 49 227 25c126 -44 132 -179 134 -205
c1 -13 0 -38 -32 -38h-261zM309 322c20 -1 28 17 32 39c4 26 -6 58 -24 71c-12 11 -35 13 -50 7c-33 -13 -44 -76 -46 -117h88z" />
    <glyph glyph-name="f" unicode="f" horiz-adv-x="351" 
d="M77 421c-15 0 -33 -3 -33 18v31c0 19 13 20 30 20h29v25c0 64 -1 152 75 205c47 31 103 27 141 15c31 -11 60 -39 67 -74c6 -37 -26 -115 -105 -101c-18 3 -55 28 -62 67c-2 9 -1 25 -11 25c-11 0 -10 -18 -8 -34c1 -8 3 -23 9 -39c23 -59 48 -73 94 -88
c18 -6 46 -8 46 -8c9 0 15 -6 15 -20v-22c0 -11 -1 -22 -19 -22h-65v-286c0 -56 1 -82 31 -96c9 -3 18 -10 18 -21c0 -10 -11 -16 -22 -16h-230c-10 0 -21 5 -22 16s7 18 17 21c32 14 32 41 32 97v287h-27z" />
    <glyph glyph-name="g" unicode="g" horiz-adv-x="635" 
d="M505 419c28 -60 34 -144 -16 -207c-35 -43 -76 -62 -117 -70c-31 -7 -56 -9 -89 -12c-14 -5 -21 -10 -21 -23c4 -5 5 -8 20 -11c94 -19 250 -21 295 -113c18 -39 17 -97 -8 -138c-51 -83 -186 -106 -249 -111c-29 -2 -206 -1 -262 78c-15 20 -18 51 -8 74
c14 35 42 50 74 66c-27 29 -41 51 -33 94c7 38 34 68 85 102c-73 48 -113 88 -119 155c-1 49 18 107 61 147c66 61 172 65 241 52c47 -10 77 -24 89 -28c43 37 85 63 129 51c67 -18 58 -94 44 -112c-11 -16 -35 -30 -57 -27c-30 4 -49 28 -59 33zM187 -149
c18 -30 83 -45 110 -46c128 0 127 49 119 61c-19 36 -87 39 -137 44c-29 4 -40 5 -78 13c-26 -17 -25 -53 -14 -72zM246 322c0 -67 11 -122 47 -122s46 51 46 118s-8 123 -45 123c-33 0 -48 -52 -48 -119z" />
    <glyph glyph-name="h" unicode="h" horiz-adv-x="667" 
d="M595 133c-1 -56 1 -82 31 -96c9 0 17 -10 17 -21c0 -10 -11 -16 -21 -16h-231c-9 0 -21 5 -21 16s9 21 17 21c34 9 31 41 31 97v138c1 62 0 91 -31 115c-28 17 -82 12 -105 -14v-240c0 -56 1 -82 32 -96c8 0 17 -10 17 -21c0 -10 -11 -16 -22 -16h-230
c-10 0 -22 5 -22 16s10 21 18 21c33 9 31 41 31 97v492c0 24 -10 41 -23 50c-9 5 -26 10 -26 20c0 11 8 19 18 21l167 60c19 7 40 6 40 -32v-280c70 39 198 60 261 24c55 -34 52 -110 52 -161v-195z" />
    <glyph glyph-name="i" unicode="i" horiz-adv-x="352" 
d="M192 731c52 0 96 -42 96 -96s-40 -100 -91 -101c-52 -1 -95 42 -95 96s40 101 90 101zM104 134v218c0 24 -10 42 -23 50c-10 6 -24 11 -26 21c-1 11 9 16 17 20l168 61c21 6 40 5 40 -33v-338c0 -56 1 -82 31 -96c9 -3 18 -10 18 -21c0 -10 -11 -16 -22 -16h-230
c-10 0 -21 5 -22 16s10 19 17 21c34 9 32 41 32 97z" />
    <glyph glyph-name="j" unicode="j" horiz-adv-x="352" 
d="M194 731c51 0 95 -42 95 -96s-40 -100 -91 -101c-52 -1 -95 42 -95 96s40 101 91 101zM281 -69c0 -62 -1 -136 -78 -183c-45 -28 -106 -32 -147 -11c-33 17 -56 45 -59 80c-3 23 3 59 32 81c22 17 64 19 86 11c42 -13 59 -50 59 -88c21 0 14 25 12 36c-1 10 -7 27 -14 41
c-14 26 -31 53 -67 74v380c0 24 -10 42 -23 50c-10 6 -24 11 -26 21c-1 11 8 18 18 20l167 61c18 6 40 5 40 -33v-540z" />
    <glyph glyph-name="k" unicode="k" horiz-adv-x="676" 
d="M585 125c29 -46 43 -71 70 -88c3 -1 17 -10 17 -21c0 -10 -10 -16 -21 -16h-256c-11 0 -21 6 -22 16c0 11 10 16 17 21c32 14 -4 67 -19 93l-54 88l-37 -36v-49c0 -56 1 -82 31 -96c9 0 18 -10 18 -21c0 -10 -11 -16 -22 -16h-230c-10 0 -22 5 -22 16s10 21 17 21
c34 9 32 41 32 97v492c0 24 -10 41 -23 50c-10 5 -26 10 -26 20c0 11 8 19 17 21l168 60c18 7 40 6 40 -32v-456l105 103c45 44 33 60 1 67c-11 4 -17 12 -17 23s12 14 21 14h213c11 0 22 -6 22 -16c1 -13 -9 -18 -20 -21c-19 -3 -36 -9 -88 -57l-63 -59z" />
    <glyph glyph-name="l" unicode="l" horiz-adv-x="352" 
d="M280 133c0 -56 1 -82 31 -96c9 0 18 -10 18 -21c0 -10 -11 -16 -22 -16h-230c-10 0 -22 5 -22 16s10 21 17 21c34 9 32 41 32 97v492c0 24 -10 41 -23 50c-10 5 -26 10 -26 20c0 11 8 19 17 21l168 60c18 7 40 6 40 -32v-612z" />
    <glyph glyph-name="m" unicode="m" horiz-adv-x="947" 
d="M578 133c0 -55 1 -82 32 -96c8 0 17 -10 17 -21c0 -10 -11 -16 -22 -16h-230c-10 0 -21 5 -21 16s9 21 17 21c33 9 31 41 31 97v150c0 45 3 88 -24 106c-17 12 -45 19 -77 -4l-19 -13v-240c0 -56 1 -82 32 -96c8 0 17 -10 17 -21c0 -10 -11 -16 -22 -16h-230
c-10 0 -22 5 -22 16s10 21 18 21c33 9 31 41 31 97v218c0 24 -10 42 -23 50c-9 6 -26 11 -26 21c0 11 8 18 18 20l167 61c19 6 40 6 40 -33v-12c66 48 173 66 236 31c18 -9 38 -31 50 -45c59 61 164 79 231 48c66 -32 76 -93 76 -152v-208c0 -56 1 -82 31 -96
c9 0 17 -10 17 -21c0 -10 -11 -16 -21 -16h-231c-9 0 -21 5 -21 16s9 21 17 21c34 9 31 41 31 97v150c0 45 3 88 -23 106c-18 12 -46 19 -78 -4l-19 -13v-240z" />
    <glyph glyph-name="n" unicode="n" horiz-adv-x="648" 
d="M576 348v-215c0 -55 1 -82 32 -96c8 0 17 -10 17 -21c0 -10 -11 -16 -22 -16h-230c-10 0 -22 5 -22 16s10 21 18 21c33 9 31 41 31 97v150c0 45 3 88 -24 106c-17 12 -45 19 -78 -4l-18 -13v-240c0 -56 1 -82 31 -96c9 0 18 -10 18 -21c0 -10 -11 -16 -22 -16h-230
c-10 0 -22 5 -22 16s10 21 17 21c34 9 32 41 32 97v218c0 24 -10 42 -23 50c-10 6 -26 11 -26 21c0 11 8 18 17 20l168 61c18 6 40 6 40 -33v-12c66 48 190 62 243 34c43 -23 54 -47 53 -145z" />
    <glyph glyph-name="o" unicode="o" horiz-adv-x="577" 
d="M306 508c144 0 260 -106 260 -258c0 -155 -116 -261 -260 -261s-261 106 -261 261c0 159 117 258 261 258zM232 250c0 -115 22 -193 74 -193c48 0 73 78 73 193c0 112 -19 190 -73 190c-61 0 -74 -74 -74 -190z" />
    <glyph glyph-name="p" unicode="p" horiz-adv-x="603" 
d="M280 190c0 -66 -4 -105 28 -123c13 -8 36 -6 49 0c43 21 57 108 57 141c0 60 1 151 -52 180c-17 10 -60 13 -82 -16v-182zM482 493c55 -23 94 -82 107 -145c16 -80 -4 -205 -73 -280c-59 -64 -160 -93 -236 -70v-79c0 -56 1 -82 31 -96c9 0 18 -10 18 -21
c0 -10 -11 -16 -22 -16h-230c-10 0 -22 5 -22 16s10 21 17 21c34 9 32 41 32 97v436c0 23 -10 41 -23 49c-10 6 -26 11 -26 21c0 11 8 18 17 20l168 61c18 7 40 5 40 -32v-9c65 43 142 52 202 27z" />
    <glyph glyph-name="q" unicode="q" horiz-adv-x="601" 
d="M361 415c0 11 -39 37 -71 17c-49 -26 -56 -148 -56 -179c0 -29 4 -134 49 -164c27 -20 54 -22 78 2v324zM536 -80c0 -56 -3 -88 32 -97c7 -1 17 -9 17 -21c0 -11 -12 -16 -22 -16h-230c-11 0 -21 8 -22 16c0 11 9 19 18 21c32 14 31 40 31 96v113
c-68 -48 -142 -54 -202 -28c-57 24 -92 81 -107 145c-17 80 1 194 73 280c61 75 162 88 239 74c45 -9 77 -26 113 -42l20 27c15 19 40 42 40 -19v-549z" />
    <glyph glyph-name="r" unicode="r" horiz-adv-x="467" 
d="M280 355v-222c0 -56 1 -82 31 -96c9 0 18 -10 18 -21c0 -10 -11 -16 -22 -16h-230c-10 0 -22 5 -22 16s10 21 17 21c34 9 32 41 32 97v220c0 23 -10 41 -23 49c-10 6 -26 11 -26 21c0 11 8 18 17 20l168 61c18 6 40 5 40 -33v-23c31 36 65 55 104 55c47 0 86 -39 86 -87
c0 -47 -40 -86 -86 -87c-28 0 -53 15 -70 32c-13 13 -30 9 -34 -7z" />
    <glyph glyph-name="s" unicode="s" horiz-adv-x="492" 
d="M223 506c53 8 190 -3 220 -37c13 -14 7 -20 1 -33c-8 -15 -46 -84 -56 -88c-11 -4 -16 2 -25 15c-15 25 -21 39 -47 59c-15 10 -37 20 -62 22c-55 5 -62 -40 -54 -54c15 -31 59 -40 97 -52c80 -19 148 -47 168 -124c13 -48 -1 -116 -41 -159c-76 -79 -200 -69 -254 -59
c-23 4 -84 21 -114 42c-12 10 -30 20 -8 53c29 52 47 95 66 88c16 -3 24 -34 30 -44c26 -51 65 -80 108 -80c67 0 81 49 72 66c-12 28 -58 41 -115 55c-70 21 -131 49 -151 131c-8 40 -5 103 44 148c39 37 80 46 121 51z" />
    <glyph glyph-name="t" unicode="t" horiz-adv-x="391" 
d="M394 104c-8 -40 -58 -78 -101 -96c-44 -19 -105 -30 -150 3c-57 41 -50 111 -50 160v248h-29c-16 0 -29 29 -6 42c77 43 143 114 164 155c5 10 16 27 24 41c5 10 24 10 24 -7v-164h45c41 0 43 0 43 -17v-29c1 -13 -2 -21 -20 -21h-69v-269c0 -49 36 -64 93 -28
c7 6 11 8 17 9c10 1 19 -9 15 -27z" />
    <glyph glyph-name="u" unicode="u" 
d="M563 131c0 -25 0 -39 25 -52c7 -4 11 -10 11 -17c1 -9 -13 -16 -33 -23l-144 -47c-20 -7 -28 -3 -33 19l-3 21c-64 -40 -155 -60 -216 -27c-71 41 -64 115 -64 172v177c0 23 -10 41 -23 49c-9 6 -24 11 -26 21c-1 11 8 18 18 20l167 61c19 6 40 5 40 -33v-316
c0 -35 22 -62 51 -63c23 0 54 17 54 41v220c0 23 -10 41 -23 49c-9 6 -23 11 -26 21c0 11 8 17 18 20l167 61c19 6 40 5 40 -33v-341z" />
    <glyph glyph-name="v" unicode="v" horiz-adv-x="569" 
d="M536 496c11 0 22 -6 22 -16c0 -9 -6 -16 -19 -24c-14 -10 -31 -51 -46 -83l-160 -343c-18 -32 -23 -41 -37 -41c-13 0 -17 10 -35 42l-160 342c-15 32 -31 68 -47 83c-11 9 -18 15 -18 24c0 11 12 16 21 16h231c11 0 21 -6 21 -16c0 -11 -6 -18 -17 -21
c-27 -8 -24 -29 -2 -72l58 -121l58 121c22 42 24 62 -2 72c-10 5 -17 10 -17 21c0 10 7 16 18 16h131z" />
    <glyph glyph-name="w" unicode="w" horiz-adv-x="803" 
d="M544 496c11 0 21 -6 21 -16c0 -11 -10 -17 -17 -23c-11 -9 -16 -25 7 -74l46 -109l50 108c20 45 0 66 -11 75c-6 6 -17 12 -17 23c0 10 11 16 21 16h128c12 0 22 -6 22 -16c0 -9 -8 -17 -18 -24c-14 -10 -30 -29 -48 -74l-154 -354c-15 -32 -16 -39 -27 -39
c-14 0 -14 8 -29 45l-101 246l-115 -252c-16 -30 -18 -39 -30 -39c-13 0 -15 11 -29 45l-140 343c-12 32 -37 69 -51 79c-11 8 -17 15 -17 24c0 11 11 16 21 16h215c11 0 22 -6 22 -16c0 -11 -11 -17 -17 -23c-11 -9 -15 -30 4 -75l45 -107l49 110c-12 31 -22 56 -36 71
c-12 11 -17 15 -17 24c0 11 9 16 22 16h201z" />
    <glyph glyph-name="x" unicode="x" horiz-adv-x="602" 
d="M192 0h-133c-22 0 -24 12 -5 35l169 191l-147 204c-22 27 -44 37 -44 50c2 14 17 16 26 16h232c12 0 21 -6 21 -16c0 -11 -8 -16 -17 -21c-16 -9 -3 -29 13 -50l35 -47l40 47c20 23 28 39 12 50c-10 6 -18 10 -18 21c0 10 10 16 22 16h151c12 0 22 -6 22 -16
c0 -11 -10 -15 -19 -18c-43 -20 -26 -5 -102 -94l-62 -71l174 -245c20 -29 26 -20 28 -36c0 -10 -9 -16 -21 -16h-232c-12 0 -21 6 -21 16c0 11 7 16 17 21c16 11 5 26 -12 51l-52 73l-64 -72c-17 -21 -31 -41 -9 -52c9 -5 17 -10 17 -21c0 -10 -9 -16 -21 -16z" />
    <glyph glyph-name="y" unicode="y" horiz-adv-x="549" 
d="M519 496c13 0 22 -6 22 -16c0 -11 -10 -15 -19 -19c-16 -9 -23 -29 -29 -46l-170 -440c-32 -76 -83 -177 -171 -186c-28 -3 -72 5 -97 38c-18 26 -21 61 -10 85c12 25 35 44 67 48c29 4 67 -5 88 -43c6 -10 13 -9 25 9c9 13 25 48 30 71l-152 375c-20 44 -36 74 -52 84
c-13 7 -19 15 -19 24c0 11 12 16 22 16h230c12 0 22 -6 22 -16c0 -11 -7 -18 -17 -21c-27 -8 -31 -28 -11 -77l63 -147l57 147c19 44 16 69 -11 77c-11 3 -17 10 -17 21c0 10 9 16 21 16h128zM54 496z" />
    <glyph glyph-name="z" unicode="z" horiz-adv-x="511" 
d="M103 501c14 -3 40 -5 59 -5h280c61 0 47 -29 35 -53l-195 -362c-4 -6 -6 -12 -1 -14c100 0 135 45 171 80c23 25 39 -3 31 -26l-19 -90c-14 -60 -41 -31 -70 -31h-301c-14 0 -49 -1 -28 39l210 388s-4 2 -10 1c-110 0 -118 6 -195 -98c-17 -21 -26 -7 -26 3
c0 14 8 43 15 70c7 28 18 83 24 92c6 7 11 7 20 6z" />
    <glyph glyph-name="braceleft" unicode="{" horiz-adv-x="519" 
d="M495 770v-50c-30 -1 -92 -18 -125 -53c-41 -41 -34 -70 -34 -125v-57c0 -55 3 -119 -61 -165c-43 -31 -114 -45 -158 -52c147 -23 218 -49 218 -216v-51c2 -52 -13 -100 59 -148c36 -26 68 -31 104 -36v-47c-55 0 -170 13 -227 70c-48 51 -44 98 -44 160v56
c0 48 10 108 -58 152c-34 20 -78 27 -114 33v56c131 22 170 51 172 187v52c0 65 -3 142 83 192c56 33 115 38 185 42z" />
    <glyph glyph-name="bar" unicode="|" horiz-adv-x="157" 
d="M132 -123h-77v893h77v-893z" />
    <glyph glyph-name="braceright" unicode="}" horiz-adv-x="519" 
d="M55 770c39 -1 170 -15 222 -69c48 -50 43 -98 46 -165v-62c0 -45 1 -102 54 -139c36 -27 39 -37 88 -45v-56c-115 -15 -140 -37 -140 -165v-68c-3 -84 -2 -148 -96 -197c-55 -27 -104 -31 -174 -35v48c131 14 155 71 158 184v50c0 41 -1 120 58 165c46 34 113 45 160 51
c-150 27 -218 53 -218 224v54c0 57 9 111 -74 153c-23 12 -50 19 -84 23v49z" />
    <glyph glyph-name="asciitilde" unicode="~" horiz-adv-x="444" 
d="M343 721l68 -64l-1 -4c-25 -99 -109 -63 -175 -45l-24 6c-45 12 -52 10 -90 -16l-63 65c73 83 112 70 187 47l23 -7c25 -8 42 -7 75 18z" />
    <glyph glyph-name="Adieresis" unicode="&#xc4;" horiz-adv-x="769" 
d="M54 0c-12 0 -19 5 -20 16c-2 11 10 19 22 30c11 16 25 35 39 71l226 565c15 39 36 99 64 99c27 0 49 -59 65 -97l267 -602c11 -18 14 -25 26 -42c8 -9 15 -13 14 -24s-10 -16 -21 -16h-274c-10 0 -20 5 -21 16s9 16 16 21c21 12 47 22 32 55l-47 99h-206l-41 -98
c-13 -35 13 -44 33 -56c8 -5 17 -10 16 -21s-9 -16 -20 -16h-170zM274 288h127l-65 152zM272 1002c39 0 73 -31 73 -70s-34 -71 -73 -71c-38 0 -70 30 -70 69s32 72 70 72zM477 1002c39 0 72 -31 72 -70s-33 -71 -72 -71s-71 30 -71 69s32 72 71 72z" />
    <glyph glyph-name="Aring" unicode="&#xc5;" horiz-adv-x="769" 
d="M54 0c-12 0 -19 5 -20 16c-2 11 10 19 22 30c11 16 25 35 39 71l226 565c15 39 36 99 64 99c27 0 49 -59 65 -97l267 -602c11 -18 14 -25 26 -42c8 -9 15 -13 14 -24s-10 -16 -21 -16h-274c-10 0 -20 5 -21 16s9 16 16 21c21 12 47 22 32 55l-47 99h-206l-41 -98
c-13 -35 13 -44 33 -56c8 -5 17 -10 16 -21s-9 -16 -20 -16h-170zM274 288h127l-65 152zM375 1003c39 0 71 -32 71 -71s-32 -71 -71 -71s-71 32 -71 71s32 71 71 71zM331 932c0 -24 20 -44 44 -44s44 20 44 44s-20 44 -44 44s-44 -20 -44 -44z" />
    <glyph glyph-name="Ccedilla" unicode="&#xc7;" horiz-adv-x="749" 
d="M346 -8c-65 10 -223 56 -284 233c-48 129 -28 267 58 387c98 135 226 173 348 169c86 -5 223 -42 255 -87c6 -9 7 -20 -5 -39c-7 -10 -67 -96 -82 -121c-15 -19 -30 -2 -36 11c-38 107 -88 135 -114 144c-28 12 -94 16 -131 -8c-85 -47 -117 -192 -117 -256
c0 -76 6 -172 105 -241c62 -42 155 -43 218 -13c68 30 106 75 141 107c14 15 23 4 23 -16c0 0 -3 -65 -84 -159c-65 -72 -151 -103 -233 -111l-40 -68c46 8 83 7 120 -21c26 -21 32 -49 32 -73c0 -34 -17 -64 -54 -86c-60 -38 -172 -20 -243 11l23 51
c38 -15 104 -33 138 -16c16 10 22 18 22 34c0 17 -5 28 -15 37c-18 15 -50 10 -83 3l-28 21z" />
    <glyph glyph-name="Eacute" unicode="&#xc9;" horiz-adv-x="726" 
d="M603 770c50 0 68 32 75 -24l19 -151c1 -19 -12 -38 -34 -17c-36 33 -75 66 -118 84c-35 16 -113 29 -167 29c-17 -1 -54 3 -54 -56v-186h175c50 0 83 29 97 59c3 9 9 17 20 16s16 -8 16 -20v-197c0 -11 -4 -18 -16 -21c-11 -1 -17 8 -20 17c-14 30 -47 59 -97 59h-175
v-227c0 -59 37 -55 54 -56c54 0 138 11 172 23c78 28 111 72 129 90c2 4 24 29 27 32c11 11 20 6 28 -1c3 -8 1 -14 -1 -27c0 0 -16 -61 -23 -99c-8 -39 -14 -98 -27 -107c-7 -5 -68 10 -79 10h-528c-10 0 -20 5 -21 16s8 18 16 21c31 14 47 39 47 96v504
c0 57 -16 82 -47 96c-8 3 -17 10 -16 21c1 10 11 16 21 16h527zM376 1024h144l-86 -163h-109z" />
    <glyph glyph-name="Ntilde" unicode="&#xd1;" horiz-adv-x="795" 
d="M683 -9c-28 -6 -72 50 -86 67l-388 476v-401c0 -57 16 -82 46 -96c9 -3 17 -10 16 -21s-10 -16 -20 -16h-175c-10 0 -20 5 -21 16s8 18 16 21c31 14 47 39 47 96v504c0 55 -16 82 -47 96c-8 3 -17 10 -16 21c1 10 11 16 21 16h137c112 0 88 9 169 -88l231 -277v232
c0 57 -16 82 -47 96c-8 3 -17 10 -16 21c1 10 11 16 21 16h175c10 0 19 -6 20 -16c2 -11 -7 -18 -16 -21c-30 -14 -46 -39 -46 -96v-553c0 -28 4 -85 -21 -93zM492 996l68 -64l-1 -4c-25 -100 -109 -63 -175 -46l-24 7c-44 12 -52 9 -90 -17l-62 65c72 84 111 71 187 48
l22 -8c25 -7 42 -6 75 19z" />
    <glyph glyph-name="Odieresis" unicode="&#xd6;" horiz-adv-x="852" 
d="M431 781c220 1 401 -175 400 -394s-178 -397 -397 -398c-220 -1 -397 174 -398 394c-1 219 172 396 395 398zM248 383c0 -179 53 -325 186 -325c131 0 188 144 188 323c0 178 -53 324 -186 324c-132 0 -188 -144 -188 -322zM343 1002c39 0 72 -31 72 -70s-31 -71 -70 -71
s-73 30 -73 69s32 72 71 72zM547 1002c39 0 72 -31 72 -70s-31 -71 -70 -71s-72 30 -72 69s31 72 70 72z" />
    <glyph glyph-name="Udieresis" unicode="&#xdc;" horiz-adv-x="818" 
d="M722 286c0 -98 -5 -185 -131 -258c-100 -57 -271 -46 -362 8c-112 66 -114 128 -114 228v373c0 57 -13 82 -44 96c-8 3 -17 10 -16 21c1 10 11 16 21 16h290c10 0 21 -5 21 -16c1 -11 -8 -18 -16 -21c-30 -14 -47 -39 -47 -96v-329c0 -54 -3 -164 80 -207
c47 -23 104 -21 152 4c76 45 71 132 71 192v340c0 56 -16 82 -46 96c-9 3 -18 10 -17 21c1 10 11 16 21 16h179c10 0 21 -5 21 -16c1 -11 -8 -18 -16 -21c-31 -14 -47 -39 -47 -96v-351zM350 1002c39 0 73 -31 73 -70s-32 -71 -71 -71c-38 0 -72 30 -72 69s31 72 70 72z
M555 1002c39 0 72 -31 72 -70s-31 -71 -70 -71s-73 30 -73 69s32 72 71 72z" />
    <glyph glyph-name="aacute" unicode="&#xe1;" horiz-adv-x="573" 
d="M334 42c-79 -45 -164 -71 -233 -21c-51 36 -62 91 -51 141c21 102 151 127 228 149l44 11c0 39 2 105 -6 108c-5 4 -13 6 -20 1c-15 -6 -27 -44 -40 -80c-11 -29 -48 -49 -81 -50c-21 -2 -54 6 -73 32c-16 22 -19 52 -10 77c19 54 79 76 123 87c47 13 194 23 248 -25
c43 -37 38 -106 38 -147v-187c0 -50 19 -48 32 -42c27 18 43 7 43 -7c2 -19 -21 -44 -47 -63c-37 -32 -97 -49 -141 -30c-22 8 -34 17 -54 46zM259 219c-25 -18 -34 -41 -33 -62c1 -24 16 -41 26 -47c16 -11 36 -4 47 4c20 11 21 20 21 44v81c-18 -2 -49 -11 -61 -20z
M295 749h144l-87 -163h-108z" />
    <glyph glyph-name="agrave" unicode="&#xe0;" horiz-adv-x="573" 
d="M334 42c-79 -45 -164 -71 -233 -21c-51 36 -62 91 -51 141c21 102 151 127 228 149l44 11c0 39 2 105 -6 108c-5 4 -13 6 -20 1c-15 -6 -27 -44 -40 -80c-11 -29 -48 -49 -81 -50c-21 -2 -54 6 -73 32c-16 22 -19 52 -10 77c19 54 79 76 123 87c47 13 194 23 248 -25
c43 -37 38 -106 38 -147v-187c0 -50 19 -48 32 -42c27 18 43 7 43 -7c2 -19 -21 -44 -47 -63c-37 -32 -97 -49 -141 -30c-22 8 -34 17 -54 46zM259 219c-25 -18 -34 -41 -33 -62c1 -24 16 -41 26 -47c16 -11 36 -4 47 4c20 11 21 20 21 44v81c-18 -2 -49 -11 -61 -20z
M192 754h153l33 -168h-103z" />
    <glyph glyph-name="acircumflex" unicode="&#xe2;" horiz-adv-x="573" 
d="M334 43c-79 -45 -164 -71 -233 -21c-51 36 -62 92 -51 141c21 102 151 126 228 148l44 11c0 39 2 105 -6 108c-5 4 -13 6 -20 1c-15 -6 -27 -44 -40 -80c-11 -29 -48 -49 -81 -50c-21 -2 -54 6 -73 32c-16 22 -19 52 -10 77c19 54 79 76 123 87c47 13 194 23 248 -25
c43 -37 38 -106 38 -147v-186c0 -50 19 -48 32 -42c27 18 43 7 43 -7c2 -19 -21 -44 -47 -63c-37 -32 -97 -49 -141 -30c-22 8 -34 17 -54 46zM259 221c-25 -19 -34 -42 -33 -63c1 -24 16 -41 26 -47c16 -10 36 -4 47 4c20 11 21 20 21 44v81c-18 -2 -49 -11 -61 -19z
M303 644l-29 -58h-135l90 168h147l90 -168h-134z" />
    <glyph glyph-name="adieresis" unicode="&#xe4;" horiz-adv-x="573" 
d="M334 42c-79 -45 -164 -71 -233 -21c-51 36 -62 91 -51 141c21 102 151 127 228 149l44 11c0 39 2 105 -6 108c-5 4 -13 6 -20 1c-15 -6 -27 -44 -40 -80c-11 -29 -48 -49 -81 -50c-21 -2 -54 6 -73 32c-16 22 -19 52 -10 77c19 54 79 76 123 87c47 13 194 23 248 -25
c43 -37 38 -106 38 -147v-187c0 -50 19 -48 32 -42c27 18 43 7 43 -7c2 -19 -21 -44 -47 -63c-37 -32 -97 -49 -141 -30c-22 8 -34 17 -54 46zM259 217c-25 -18 -34 -39 -33 -60c1 -24 16 -41 26 -47c16 -11 36 -4 47 4c20 11 21 20 21 44v79c-18 -2 -49 -11 -61 -20z
M208 728c38 0 72 -32 72 -71s-31 -71 -70 -71s-73 30 -73 69s32 73 71 73zM412 728c39 0 72 -32 72 -71s-31 -71 -70 -71s-72 30 -72 69s31 73 70 73z" />
    <glyph glyph-name="atilde" unicode="&#xe3;" horiz-adv-x="573" 
d="M334 42c-79 -45 -164 -71 -233 -21c-51 36 -62 91 -51 141c21 102 151 127 228 149l44 11c0 39 2 105 -6 108c-5 4 -13 6 -20 1c-15 -6 -27 -44 -40 -80c-11 -29 -48 -49 -81 -50c-21 -2 -54 6 -73 32c-16 22 -19 52 -10 77c19 54 79 76 123 87c47 13 194 23 248 -25
c43 -37 38 -106 38 -147v-187c0 -50 19 -48 32 -42c27 18 43 7 43 -7c2 -19 -21 -44 -47 -63c-37 -32 -97 -49 -141 -30c-22 8 -34 17 -54 46zM259 217c-25 -18 -34 -39 -33 -60c1 -24 16 -41 26 -47c16 -11 36 -4 47 4c20 11 21 20 21 44v79c-18 -2 -49 -11 -61 -20z
M421 721l68 -64l-1 -4c-25 -99 -110 -63 -176 -45l-23 6c-45 12 -52 10 -90 -16l-63 65c73 83 112 70 187 47l23 -7c25 -8 42 -7 75 18z" />
    <glyph glyph-name="aring" unicode="&#xe5;" horiz-adv-x="573" 
d="M334 42c-79 -45 -164 -71 -233 -21c-51 36 -62 91 -51 141c21 102 151 127 228 149l44 11c0 39 2 105 -6 108c-5 4 -13 6 -20 1c-15 -6 -27 -44 -40 -80c-11 -29 -48 -49 -81 -50c-21 -2 -54 6 -73 32c-16 22 -19 52 -10 77c19 54 79 76 123 87c47 13 194 23 248 -25
c43 -37 38 -106 38 -147v-187c0 -50 19 -48 32 -42c27 18 43 7 43 -7c2 -19 -21 -44 -47 -63c-37 -32 -97 -49 -141 -30c-22 8 -34 17 -54 46zM259 217c-25 -18 -34 -39 -33 -60c1 -24 16 -41 26 -47c16 -11 36 -4 47 4c20 11 21 20 21 44v79c-18 -2 -49 -11 -61 -20z
M309 729c39 0 72 -33 72 -72s-33 -71 -72 -71s-71 32 -71 71s32 72 71 72zM265 657c0 -23 20 -44 44 -44s45 21 45 44c0 24 -21 45 -45 45s-44 -21 -44 -45z" />
    <glyph glyph-name="ccedilla" unicode="&#xe7;" horiz-adv-x="501" 
d="M251 -10c-43 5 -89 21 -125 51c-72 61 -89 159 -78 231c10 78 53 166 150 210c28 12 53 23 72 23c54 9 166 -1 211 -46c13 -11 13 -16 4 -31c0 -9 -53 -86 -74 -102c-8 -6 -17 -3 -24 10c-5 10 -15 35 -19 49c-12 36 -58 64 -99 39c-29 -18 -57 -91 -57 -144
c0 -46 9 -117 56 -145c78 -45 151 19 162 40c29 53 48 48 59 38c7 -8 -1 -31 -1 -41c-20 -78 -69 -144 -147 -172c-8 0 -17 -6 -25 -6l-41 -70c46 8 83 7 120 -21c26 -21 32 -49 32 -73c0 -34 -17 -64 -54 -86c-59 -38 -172 -20 -243 11l24 51c37 -15 103 -33 137 -16
c16 10 23 18 23 34c0 17 -6 28 -16 37c-18 15 -50 10 -83 3l-28 21z" />
    <glyph glyph-name="eacute" unicode="&#xe9;" horiz-adv-x="524" 
d="M223 251c0 -32 22 -92 68 -114c40 -20 94 -21 134 4c43 24 46 54 67 72c7 4 17 2 20 -5c3 -6 3 -22 -1 -36c-21 -84 -69 -144 -146 -171c-53 -18 -149 -19 -213 24c-86 58 -107 159 -107 221c0 65 25 166 110 223c64 43 161 49 227 25c126 -44 132 -179 134 -205
c1 -13 0 -38 -32 -38h-261zM309 322c20 -1 28 17 32 39c4 26 -6 58 -24 71c-12 11 -35 13 -50 7c-33 -13 -44 -76 -46 -117h88zM297 749h144l-86 -163h-109z" />
    <glyph glyph-name="egrave" unicode="&#xe8;" horiz-adv-x="524" 
d="M223 251c0 -32 22 -92 68 -114c40 -20 94 -21 134 4c43 24 46 54 67 72c7 4 17 2 20 -5c3 -6 3 -22 -1 -36c-21 -84 -69 -144 -146 -171c-53 -18 -149 -19 -213 24c-86 58 -107 159 -107 221c0 65 25 166 110 223c64 43 161 49 227 25c126 -44 132 -179 134 -205
c1 -13 0 -38 -32 -38h-261zM309 322c20 -1 28 17 32 39c4 26 -6 58 -24 71c-12 11 -35 13 -50 7c-33 -13 -44 -76 -46 -117h88zM149 754h153l33 -168h-104z" />
    <glyph glyph-name="ecircumflex" unicode="&#xea;" horiz-adv-x="524" 
d="M223 251c0 -32 22 -92 68 -114c40 -20 94 -21 134 4c43 24 46 54 67 72c7 4 17 2 20 -5c3 -6 3 -22 -1 -36c-21 -84 -69 -144 -146 -171c-53 -18 -149 -19 -213 24c-86 58 -107 159 -107 221c0 65 25 166 110 223c64 43 161 49 227 25c126 -44 132 -179 134 -205
c1 -13 0 -38 -32 -38h-261zM309 322c20 -1 28 17 32 39c4 26 -6 58 -24 71c-12 11 -35 13 -50 7c-33 -13 -44 -76 -46 -117h88zM276 644l-30 -58h-134l90 168h147l90 -168h-134z" />
    <glyph glyph-name="edieresis" unicode="&#xeb;" horiz-adv-x="524" 
d="M223 251c0 -32 22 -92 68 -114c40 -20 94 -21 134 4c43 24 46 54 67 72c7 4 17 2 20 -5c3 -6 3 -22 -1 -36c-21 -84 -69 -144 -146 -171c-53 -18 -149 -19 -213 24c-86 58 -107 159 -107 221c0 65 25 166 110 223c64 43 161 49 227 25c126 -44 132 -179 134 -205
c1 -13 0 -38 -32 -38h-261zM309 322c20 -1 28 17 32 39c4 26 -6 58 -24 71c-12 11 -35 13 -50 7c-33 -13 -44 -76 -46 -117h88zM200 728c39 0 72 -32 72 -71s-31 -71 -70 -71s-72 30 -72 69s31 73 70 73zM404 728c39 0 73 -32 73 -71s-32 -71 -71 -71c-38 0 -72 30 -72 69
s31 73 70 73z" />
    <glyph glyph-name="iacute" unicode="&#xed;" horiz-adv-x="352" 
d="M104 134v218c0 24 -10 42 -23 50c-10 6 -24 11 -26 21c-1 11 9 16 17 20l168 61c21 6 40 5 40 -33v-338c0 -56 1 -82 31 -96c9 -3 18 -10 18 -21c0 -10 -11 -16 -22 -16h-230c-10 0 -21 5 -22 16s10 19 17 21c34 9 32 41 32 97zM191 749h144l-86 -163h-108z" />
    <glyph glyph-name="igrave" unicode="&#xec;" horiz-adv-x="352" 
d="M104 134v218c0 24 -10 42 -23 50c-10 6 -24 11 -26 21c-1 11 9 16 17 20l168 61c21 6 40 5 40 -33v-338c0 -56 1 -82 31 -96c9 -3 18 -10 18 -21c0 -10 -11 -16 -22 -16h-230c-10 0 -21 5 -22 16s10 19 17 21c34 9 32 41 32 97zM40 754h152l34 -168h-104z" />
    <glyph glyph-name="icircumflex" unicode="&#xee;" horiz-adv-x="352" 
d="M104 134v218c0 24 -10 42 -23 50c-10 6 -24 11 -26 21c-1 11 9 16 17 20l168 61c21 6 40 5 40 -33v-338c0 -56 1 -82 31 -96c9 -3 18 -10 18 -21c0 -10 -11 -16 -22 -16h-230c-10 0 -21 5 -22 16s10 19 17 21c34 9 32 41 32 97zM163 644l-29 -58h-134l90 168h147l89 -168
h-134z" />
    <glyph glyph-name="idieresis" unicode="&#xef;" horiz-adv-x="352" 
d="M104 134v218c0 24 -10 42 -23 50c-10 6 -24 11 -26 21c-1 11 9 16 17 20l168 61c21 6 40 5 40 -33v-338c0 -56 1 -82 31 -96c9 -3 18 -10 18 -21c0 -10 -11 -16 -22 -16h-230c-10 0 -21 5 -22 16s10 19 17 21c34 9 32 41 32 97zM68 728c39 0 73 -32 73 -71
s-32 -71 -71 -71s-72 30 -72 69s31 73 70 73zM272 728c39 0 73 -32 73 -71s-31 -71 -70 -71s-73 30 -73 69s32 73 70 73z" />
    <glyph glyph-name="ntilde" unicode="&#xf1;" horiz-adv-x="648" 
d="M576 348v-215c0 -55 1 -82 32 -96c8 0 17 -10 17 -21c0 -10 -11 -16 -22 -16h-230c-10 0 -22 5 -22 16s10 21 18 21c33 9 31 41 31 97v150c0 45 3 88 -24 106c-17 12 -45 19 -78 -4l-18 -13v-240c0 -56 1 -82 31 -96c9 0 18 -10 18 -21c0 -10 -11 -16 -22 -16h-230
c-10 0 -22 5 -22 16s10 21 17 21c34 9 32 41 32 97v218c0 24 -10 42 -23 50c-10 6 -26 11 -26 21c0 11 8 18 17 20l168 61c18 6 40 6 40 -33v-12c66 48 190 62 243 34c43 -23 54 -47 53 -145zM440 721l68 -64l-1 -4c-25 -99 -109 -63 -175 -45l-24 6c-44 12 -52 10 -90 -16
l-62 65c72 83 111 70 187 47l22 -7c25 -8 43 -7 75 18z" />
    <glyph glyph-name="oacute" unicode="&#xf3;" horiz-adv-x="577" 
d="M306 510c144 0 260 -108 260 -260c0 -155 -116 -261 -260 -261s-261 106 -261 261c0 159 117 260 261 260zM232 250c0 -115 22 -193 74 -193c48 0 73 78 73 193c0 112 -19 192 -73 192c-61 0 -74 -76 -74 -192zM304 749h144l-87 -163h-108z" />
    <glyph glyph-name="ograve" unicode="&#xf2;" horiz-adv-x="577" 
d="M306 510c144 0 260 -108 260 -260c0 -155 -116 -261 -260 -261s-261 106 -261 261c0 159 117 260 261 260zM232 250c0 -115 22 -193 74 -193c48 0 73 78 73 193c0 112 -19 192 -73 192c-61 0 -74 -76 -74 -192zM165 754h153l33 -168h-103z" />
    <glyph glyph-name="ocircumflex" unicode="&#xf4;" horiz-adv-x="577" 
d="M306 510c144 0 260 -108 260 -260c0 -155 -116 -261 -260 -261s-261 106 -261 261c0 159 117 260 261 260zM232 250c0 -115 22 -193 74 -193c48 0 73 78 73 193c0 112 -19 192 -73 192c-61 0 -74 -76 -74 -192zM289 644l-30 -58h-134l90 168h147l90 -168h-134z" />
    <glyph glyph-name="odieresis" unicode="&#xf6;" horiz-adv-x="577" 
d="M306 510c144 0 260 -108 260 -260c0 -155 -116 -261 -260 -261s-261 106 -261 261c0 159 117 260 261 260zM232 250c0 -115 22 -193 74 -193c48 0 73 78 73 193c0 112 -19 192 -73 192c-61 0 -74 -76 -74 -192zM200 728c39 0 72 -32 72 -71s-31 -71 -70 -71
s-72 30 -72 69s31 73 70 73zM404 728c39 0 73 -32 73 -71s-32 -71 -71 -71c-38 0 -72 30 -72 69s31 73 70 73z" />
    <glyph glyph-name="otilde" unicode="&#xf5;" horiz-adv-x="577" 
d="M306 510c144 0 260 -108 260 -260c0 -155 -116 -261 -260 -261s-261 106 -261 261c0 159 117 260 261 260zM232 250c0 -115 22 -193 74 -193c48 0 73 78 73 193c0 112 -19 192 -73 192c-61 0 -74 -76 -74 -192zM410 721l68 -64l-1 -4c-25 -99 -109 -63 -175 -45l-24 6
c-44 12 -52 10 -90 -16l-63 65c73 83 112 70 187 47l23 -7c25 -8 42 -7 75 18z" />
    <glyph glyph-name="uacute" unicode="&#xfa;" 
d="M561 131c0 -25 0 -39 25 -52c6 -4 11 -10 11 -17c1 -9 -13 -16 -33 -23l-145 -47c-19 -7 -28 -3 -32 19l-3 21c-64 -40 -155 -60 -216 -27c-73 41 -64 115 -64 172v175c0 24 -10 42 -23 50c-10 6 -24 11 -26 21c-1 11 8 18 17 20l168 61c18 6 40 5 40 -33v-315
c0 -35 22 -62 51 -63c23 0 54 17 54 41v218c0 24 -10 42 -23 50c-10 6 -24 11 -26 21c0 11 8 17 18 20l167 61c18 6 40 5 40 -33v-340zM324 749h144l-86 -163h-108z" />
    <glyph glyph-name="ugrave" unicode="&#xf9;" 
d="M561 131c0 -25 0 -39 25 -52c6 -4 11 -10 11 -17c1 -9 -13 -16 -33 -23l-145 -47c-19 -7 -28 -3 -32 19l-3 21c-64 -40 -155 -60 -216 -27c-73 41 -64 115 -64 172v175c0 24 -10 42 -23 50c-10 6 -24 11 -26 21c-1 11 8 18 17 20l168 61c18 6 40 5 40 -33v-315
c0 -35 22 -62 51 -63c23 0 54 17 54 41v218c0 24 -10 42 -23 50c-10 6 -24 11 -26 21c0 11 8 17 18 20l167 61c18 6 40 5 40 -33v-340zM202 754h153l33 -168h-104z" />
    <glyph glyph-name="ucircumflex" unicode="&#xfb;" 
d="M561 131c0 -25 0 -39 25 -52c6 -4 11 -10 11 -17c1 -9 -13 -16 -33 -23l-145 -47c-19 -7 -28 -3 -32 19l-3 21c-64 -40 -155 -60 -216 -27c-73 41 -64 115 -64 172v175c0 24 -10 42 -23 50c-10 6 -24 11 -26 21c-1 11 8 18 17 20l168 61c18 6 40 5 40 -33v-315
c0 -35 22 -62 51 -63c23 0 54 17 54 41v218c0 24 -10 42 -23 50c-10 6 -24 11 -26 21c0 11 8 17 18 20l167 61c18 6 40 5 40 -33v-340zM316 644l-30 -58h-134l90 168h147l90 -168h-134z" />
    <glyph glyph-name="udieresis" unicode="&#xfc;" 
d="M561 131c0 -25 0 -39 25 -52c6 -4 11 -10 11 -17c1 -9 -13 -16 -33 -23l-145 -47c-19 -7 -28 -3 -32 19l-3 21c-64 -40 -155 -60 -216 -27c-73 41 -64 115 -64 172v175c0 24 -10 42 -23 50c-10 6 -24 11 -26 21c-1 11 8 18 17 20l168 61c18 6 40 5 40 -33v-315
c0 -35 22 -62 51 -63c23 0 54 17 54 41v218c0 24 -10 42 -23 50c-10 6 -24 11 -26 21c0 11 8 17 18 20l167 61c18 6 40 5 40 -33v-340zM230 728c39 0 73 -32 73 -71s-32 -71 -71 -71c-38 0 -72 30 -72 69s31 73 70 73zM435 728c39 0 72 -32 72 -71s-31 -71 -70 -71
s-73 30 -73 69s32 73 71 73z" />
    <glyph glyph-name="cent" unicode="&#xa2;" horiz-adv-x="546" 
d="M277 744h83v-25c42 -5 118 -36 134 -67c8 -13 2 -22 -5 -31c0 0 -30 -51 -62 -89c-22 34 -43 59 -64 76v-368c43 0 94 48 111 69c8 13 21 28 34 25s15 -22 14 -31c-1 -21 -8 -62 -20 -88c-14 -31 -48 -81 -92 -111c-14 -10 -36 -22 -49 -27v-82h-87v70
c-112 19 -192 111 -212 229c-18 98 -19 274 134 377c23 17 57 34 81 43v30zM235 533c-22 -84 -25 -209 39 -279v348c-16 -8 -33 -45 -39 -69z" />
    <glyph glyph-name="sterling" unicode="&#xa3;" horiz-adv-x="646" 
d="M590 611l-44 -56c-52 29 -92 43 -134 18c-34 -19 -48 -58 -48 -89c0 -25 5 -31 28 -87c19 -46 20 -54 25 -88h115c-6 -29 -18 -74 -18 -74h-105c-13 -40 -12 -38 -38 -88c96 -17 155 -9 246 43c-2 -41 -17 -115 -38 -179l-8 -26c-53 -13 -105 -17 -157 -9
c-17 3 -42 8 -79 20c-31 9 -56 20 -76 30c-16 -8 -23 -10 -37 -16c-51 -19 -83 -18 -108 -9c-29 10 -55 30 -62 64c-6 27 1 63 28 90c43 42 128 34 176 22c12 17 16 32 22 58h-103l20 74h71c-2 17 -11 29 -21 45c-56 83 -98 161 -64 247c22 58 62 104 135 123
c58 17 151 10 216 -43c20 -16 42 -44 58 -70zM141 46c13 0 36 8 53 26c-20 12 -35 21 -49 21s-26 -10 -26 -22c0 -13 13 -23 22 -25z" />
    <glyph glyph-name="bullet" unicode="&#x2022;" horiz-adv-x="281" 
d="M156 521c54 0 97 -45 97 -99s-44 -98 -98 -98s-99 46 -99 100s46 97 100 97z" />
    <glyph glyph-name="germandbls" unicode="&#xdf;" horiz-adv-x="384" 
d="M183 724h51v-28c27 -5 85 -19 103 -61c7 -13 9 -35 -1 -49c-10 -13 -22 -22 -35 -18c-15 0 -32 6 -45 28c-5 7 -6 20 -22 43v-106c65 -32 99 -49 117 -107c11 -35 1 -83 -21 -115c-31 -37 -63 -48 -95 -59v-39h-49v36c-43 9 -102 21 -124 76c-12 23 -9 74 52 73
c17 -2 32 -13 42 -35c5 -9 7 -39 13 -49c6 -6 12 -10 16 -10v121c-56 21 -93 41 -113 101c-9 31 -6 74 12 103c26 40 60 54 99 65v30zM157 623c-7 -21 4 -44 26 -63v85c-14 0 -23 -16 -26 -22zM235 304c6 0 17 3 29 14c6 7 12 21 11 29c-3 22 -19 38 -40 50v-93z" />
    <glyph glyph-name="registered" unicode="&#xae;" horiz-adv-x="789" 
d="M542 547c0 54 -23 116 -71 141c-19 9 -44 16 -73 16c-46 0 -74 -2 -74 -74v-254h93c122 0 124 125 125 171zM582 322c44 -132 94 -202 197 -325l63 -74s4 -7 -6 -9c-61 -12 -195 34 -263 90c-89 74 -160 179 -207 265c0 0 -8 17 -12 24h-30v-160c0 -58 17 -82 47 -96
c8 0 16 -10 16 -21s-11 -16 -21 -16h-290c-10 0 -21 5 -21 16s8 21 16 21c31 14 47 39 47 96v506c0 56 -17 81 -47 94c-8 0 -16 10 -16 21c0 10 11 16 21 16h290c157 0 287 -7 358 -113c37 -53 33 -148 14 -205c-18 -60 -94 -124 -156 -130z" />
    <glyph glyph-name="acute" unicode="&#xb4;" horiz-adv-x="275" 
d="M107 749h144l-87 -163h-108z" />
    <glyph glyph-name="dieresis" unicode="&#xa8;" horiz-adv-x="434" 
d="M126 728c39 0 73 -32 73 -71s-31 -71 -70 -71s-73 30 -73 69s32 73 70 73zM331 728c39 0 72 -32 72 -71s-31 -71 -70 -71s-72 30 -72 69s31 73 70 73z" />
    <glyph glyph-name="AE" unicode="&#xc6;" horiz-adv-x="281" 
d="M98 479c26 31 43 51 58 104c-39 7 -75 15 -94 66c-10 26 -6 63 12 88c21 32 55 44 83 44s62 -9 84 -43s21 -102 1 -142c-27 -58 -83 -92 -144 -117z" />
    <glyph glyph-name="Oslash" unicode="&#xd8;" horiz-adv-x="852" 
d="M276 186c29 -78 80 -128 158 -128c131 0 188 144 188 323c0 44 -4 86 -10 124zM602 547c-26 94 -79 158 -166 158c-132 0 -188 -144 -188 -322c0 -57 5 -109 16 -156zM144 112c-67 71 -108 166 -108 271c0 219 172 398 395 398c113 0 215 -47 289 -122l68 67l48 -7
l-91 -88c54 -66 86 -151 86 -244c0 -219 -178 -398 -397 -398c-101 0 -193 37 -263 97l-91 -87l-49 7z" />
    <glyph glyph-name="infinity" unicode="&#x221e;" horiz-adv-x="549" 
d="M519 496c13 0 22 -6 22 -16c0 -11 -10 -15 -19 -19c-16 -9 -23 -29 -29 -46l-170 -440c-32 -76 -83 -177 -171 -186c-28 -3 -72 5 -97 38c-18 26 -21 61 -10 85c12 25 35 44 67 48c29 4 67 -5 88 -43c6 -10 13 -9 25 9c9 13 25 48 30 71l-152 375c-20 44 -36 74 -52 84
c-13 7 -19 15 -19 24c0 11 12 16 22 16h230c12 0 22 -6 22 -16c0 -11 -7 -18 -17 -21c-27 -8 -31 -28 -11 -77l63 -147l57 147c19 44 16 69 -11 77c-11 3 -17 10 -17 21c0 10 9 16 21 16h128zM324 749h144l-89 -163h-108z" />
    <glyph glyph-name="lessequal" unicode="&#x2264;" horiz-adv-x="451" 
d="M279 438c22 53 52 70 94 70c27 0 49 -11 66 -38c22 -30 15 -67 4 -91c-12 -25 -44 -46 -70 -46c-28 0 -56 14 -72 30c-24 12 -22 -9 -22 -9v-221c0 -56 1 -82 31 -96c9 0 18 -10 18 -21c0 -10 -11 -16 -22 -16h-230c-10 0 -22 5 -22 16s10 21 17 21c34 9 32 41 32 97v218
c0 24 -10 42 -23 50c-10 6 -26 11 -26 21c0 11 8 18 17 20l168 61c18 6 40 5 40 -33v-33z" />
    <glyph glyph-name="ae" unicode="&#xe6;" horiz-adv-x="281" 
d="M214 781c-26 -32 -42 -51 -57 -104c39 -8 74 -15 94 -66c10 -26 5 -64 -12 -89c-22 -31 -55 -43 -83 -43s-63 9 -85 42c-21 35 -20 103 -1 143c27 57 84 92 144 117z" />
    <glyph glyph-name="oslash" unicode="&#xf8;" horiz-adv-x="577" 
d="M236 166c9 -68 31 -109 69 -109c47 0 73 78 73 193c0 17 -1 33 -1 48zM371 347c-9 59 -30 95 -66 95c-61 0 -74 -76 -74 -192v-34zM96 89c-31 43 -52 98 -52 161c0 159 117 260 261 260c66 0 126 -22 173 -62l65 60l49 -7l-86 -82c38 -44 59 -102 59 -169
c0 -155 -116 -261 -260 -261c-71 0 -135 26 -183 72l-65 -62l-46 10z" />
    <glyph glyph-name="logicalnot" unicode="&#xac;" horiz-adv-x="653" 
d="M76 0c-10 0 -20 5 -21 16s8 18 16 21c31 14 47 39 47 96v504c0 57 -16 82 -47 96c-8 3 -17 10 -16 21c1 10 11 16 21 16h290c10 0 21 -5 21 -16c1 -11 -8 -18 -16 -21c-30 -14 -47 -39 -47 -96v-504c0 -22 -4 -41 26 -56c33 -10 66 -8 94 -7c68 6 93 33 124 68l73 102
c11 18 33 6 30 -6l-25 -126c-36 -167 -16 -108 -116 -108h-454z" />
    <glyph glyph-name="guillemotleft" unicode="&#xab;" horiz-adv-x="394" 
d="M174 770v-166h-119v166h119zM263 770h114v-166h-114v166z" />
    <glyph glyph-name="guillemotright" unicode="&#xbb;" horiz-adv-x="312" 
d="M175 781c65 0 117 -55 117 -119c0 -65 -53 -117 -118 -117s-118 54 -118 119s54 117 119 117zM138 663c0 -20 17 -36 36 -36c20 0 36 16 36 36c0 19 -16 35 -36 35c-19 0 -36 -16 -36 -35z" />
    <glyph glyph-name="Agrave" unicode="&#xc0;" horiz-adv-x="769" 
d="M57 0c-12 0 -19 5 -20 16s11 19 22 30c11 16 25 35 39 71l226 565c15 39 36 99 64 99c27 0 49 -59 65 -97l267 -602c11 -18 14 -25 26 -42c9 -9 15 -13 14 -24s-10 -16 -21 -16h-274c-10 0 -20 5 -21 16s9 16 17 21c20 12 46 22 31 55l-47 99h-206l-41 -98
c-13 -35 13 -44 33 -56c8 -5 18 -10 17 -21c-2 -11 -10 -16 -21 -16h-170zM277 288h127l-65 152zM257 1028h153l33 -167h-104z" />
    <glyph glyph-name="Atilde" unicode="&#xc3;" horiz-adv-x="769" 
d="M57 0c-12 0 -19 5 -20 16s11 19 22 30c11 16 25 35 39 71l226 565c15 39 36 99 64 99c27 0 49 -59 65 -97l267 -602c11 -18 14 -25 26 -42c9 -9 15 -13 14 -24s-10 -16 -21 -16h-274c-10 0 -20 5 -21 16s9 16 17 21c20 12 46 22 31 55l-47 99h-206l-41 -98
c-13 -35 13 -44 33 -56c8 -5 18 -10 17 -21c-2 -11 -10 -16 -21 -16h-170zM277 288h127l-65 152zM486 996l69 -64l-1 -4c-25 -100 -110 -63 -176 -46l-23 7c-45 12 -52 9 -90 -17l-63 65c73 84 112 71 187 48l23 -8c25 -7 42 -6 74 19z" />
    <glyph glyph-name="Otilde" unicode="&#xd5;" horiz-adv-x="852" 
d="M431 781c220 1 401 -175 400 -394s-178 -397 -397 -398c-220 -1 -397 174 -398 394c-1 219 172 396 395 398zM248 383c0 -179 53 -325 186 -325c131 0 188 144 188 323c0 178 -53 324 -186 324c-132 0 -188 -144 -188 -322zM504 995l68 -64l-1 -5
c-25 -99 -109 -62 -175 -45l-24 7c-44 11 -52 9 -90 -17l-63 65c73 83 112 70 187 48l23 -8c25 -7 42 -6 75 19z" />
    <glyph glyph-name="endash" unicode="&#x2013;" horiz-adv-x="773" 
d="M90 322l642 -1l-35 -152l-639 -1z" />
    <glyph glyph-name="emdash" unicode="&#x2014;" horiz-adv-x="1046" 
d="M90 322l912 -1l-34 -152l-910 -1z" />
    <glyph glyph-name="quotedblleft" unicode="&#x201c;" horiz-adv-x="469" 
d="M435 770c-33 -25 -46 -36 -64 -80c38 -13 60 -26 72 -66c6 -24 3 -54 -16 -77c-21 -24 -49 -33 -78 -31c-26 4 -52 17 -67 48c-19 36 -13 80 11 122c36 68 78 84 142 84zM217 770c-32 -25 -45 -36 -63 -80c37 -13 60 -26 72 -66c5 -24 3 -54 -16 -77
c-21 -24 -51 -31 -78 -31c-24 0 -53 19 -67 48c-16 34 -12 80 11 122c35 65 78 84 141 84z" />
    <glyph glyph-name="quotedblright" unicode="&#x201d;" horiz-adv-x="469" 
d="M68 526c33 25 46 36 64 80c-38 13 -61 26 -73 66c-5 24 -3 54 17 77c20 24 48 34 78 32c25 -5 51 -18 67 -49c19 -36 13 -80 -11 -122c-36 -67 -78 -84 -142 -84zM285 526c33 25 46 36 64 80c-38 13 -60 26 -72 66c-6 24 -3 54 16 77c21 24 51 32 78 32
c24 0 53 -20 67 -49c16 -34 12 -80 -11 -122c-36 -65 -78 -84 -142 -84z" />
    <glyph glyph-name="quoteleft" unicode="&#x2018;" horiz-adv-x="256" 
d="M217 770c-32 -25 -45 -36 -63 -80c37 -13 60 -26 72 -66c5 -24 3 -54 -16 -77c-21 -24 -51 -31 -78 -31c-24 0 -53 19 -67 48c-16 34 -12 80 11 122c35 65 78 84 141 84z" />
    <glyph glyph-name="quoteright" unicode="&#x2019;" horiz-adv-x="256" 
d="M68 526c33 25 46 36 64 80c-38 13 -61 26 -73 66c-5 24 -3 54 17 77c20 24 48 33 78 32c27 -2 50 -18 67 -49c18 -37 14 -83 -11 -122c-39 -60 -81 -84 -142 -84z" />
    <glyph glyph-name="ydieresis" unicode="&#xff;" horiz-adv-x="549" 
d="M516 496c13 0 21 -6 21 -16c0 -11 -9 -15 -18 -19c-16 -9 -23 -29 -29 -46l-170 -440c-32 -76 -83 -177 -171 -186c-28 -3 -72 5 -97 38c-18 26 -22 61 -10 85c12 25 35 44 67 48c28 4 67 -5 88 -43c6 -10 13 -9 25 9c8 13 24 48 30 71l-153 375c-19 44 -35 74 -51 84
c-13 7 -19 15 -19 24c0 11 12 16 22 16h230c12 0 22 -6 22 -16c0 -11 -7 -18 -18 -21c-27 -8 -30 -28 -10 -77l62 -147l58 147c19 44 16 69 -11 77c-11 3 -18 10 -18 21c0 10 10 16 22 16h128zM186 728c39 0 72 -32 72 -71s-31 -71 -70 -71s-72 30 -72 69s31 73 70 73z
M390 728c39 0 73 -32 73 -71s-32 -71 -71 -71c-38 0 -72 30 -72 69s31 73 70 73z" />
    <glyph glyph-name="Ydieresis" unicode="&#x178;" horiz-adv-x="809" 
d="M391 770c9 0 20 -10 19 -22c0 -7 -9 -15 -16 -19c-18 -11 -29 -25 -29 -37c-3 -26 10 -56 41 -116l87 -167l84 167c31 63 45 90 41 116c0 12 -10 26 -28 37c-7 4 -16 12 -16 19c-1 12 10 22 18 22h191c8 0 21 -4 21 -19c1 -10 -9 -18 -15 -21c-41 -21 -66 -71 -94 -128
l-166 -331v-138c0 -57 16 -82 46 -96c9 -3 17 -10 16 -21s-10 -16 -20 -16h-291c-10 0 -19 5 -21 16c-1 11 8 18 17 21c30 14 46 39 46 96v158l-160 307c-31 48 -85 124 -111 134c-8 3 -15 10 -15 23c0 11 12 14 22 15h333zM465 1024h144l-87 -163h-108z" />
    <glyph glyph-name="fraction" unicode="&#x2044;" horiz-adv-x="809" 
d="M389 770c9 0 20 -10 19 -22c0 -7 -9 -15 -17 -19c-17 -11 -28 -25 -28 -37c-3 -26 10 -56 41 -116l87 -167l84 167c30 63 44 90 41 116c0 12 -11 26 -28 37c-7 4 -16 12 -16 19c-1 12 10 22 18 22h191c8 0 21 -4 21 -19c1 -10 -10 -18 -15 -21c-41 -21 -66 -71 -94 -128
l-167 -331v-138c0 -57 17 -82 47 -96c9 -3 17 -10 16 -21s-11 -16 -20 -16h-291c-10 0 -20 5 -21 16s8 18 17 21c30 14 46 39 46 96v158l-160 307c-31 48 -85 124 -111 134c-8 3 -15 10 -15 23c0 11 11 14 22 15h333zM346 1002c39 0 72 -31 72 -70s-31 -71 -70 -71
s-72 30 -72 69s31 72 70 72zM550 1002c39 0 73 -31 73 -70s-32 -71 -71 -71c-38 0 -72 30 -72 69s31 72 70 72z" />
    <glyph glyph-name="periodcentered" unicode="&#xb7;" horiz-adv-x="428" 
d="M196 0h62l-45 -76c46 8 83 7 120 -21c26 -21 33 -49 32 -73c-3 -34 -17 -64 -54 -86c-59 -38 -172 -20 -243 11l24 51c38 -15 104 -33 137 -16c16 10 22 18 23 34c1 17 -6 28 -15 37c-19 15 -51 10 -83 3l-29 21z" />
    <glyph glyph-name="Acircumflex" unicode="&#xc2;" horiz-adv-x="769" 
d="M57 0c-12 0 -19 5 -20 16s11 19 22 30c11 16 25 35 39 71l226 565c15 39 36 99 64 99c27 0 49 -59 65 -97l267 -602c11 -18 14 -25 26 -42c9 -9 15 -13 14 -24s-10 -16 -21 -16h-274c-10 0 -20 5 -21 16s9 16 17 21c20 12 46 22 31 55l-47 99h-206l-41 -98
c-13 -35 13 -44 33 -56c8 -5 18 -10 17 -21c-2 -11 -10 -16 -21 -16h-170zM277 288h127l-65 152zM365 919l-29 -58h-134l90 167h147l90 -167h-134z" />
    <glyph glyph-name="Ecircumflex" unicode="&#xca;" horiz-adv-x="726" 
d="M603 770c50 0 68 32 75 -24l19 -151c1 -19 -12 -38 -34 -17c-36 33 -75 66 -118 84c-35 16 -113 29 -167 29c-17 -1 -54 3 -54 -56v-186h175c50 0 83 29 97 59c3 9 9 17 20 16s16 -8 16 -20v-197c0 -11 -4 -18 -16 -21c-11 -1 -17 8 -20 17c-14 30 -47 59 -97 59h-175
v-227c0 -59 37 -55 54 -56c54 0 138 11 172 23c78 28 111 72 129 90c2 4 24 29 27 32c11 11 20 6 28 -1c3 -8 1 -14 -1 -27c0 0 -16 -61 -23 -99c-8 -39 -14 -98 -27 -107c-7 -5 -68 10 -79 10h-528c-10 0 -20 5 -21 16s8 18 16 21c31 14 47 39 47 96v504
c0 57 -16 82 -47 96c-8 3 -17 10 -16 21c1 10 11 16 21 16h527zM406 919l-29 -58h-134l90 167h147l90 -167h-134z" />
    <glyph glyph-name="Aacute" unicode="&#xc1;" horiz-adv-x="769" 
d="M57 0c-12 0 -19 5 -20 16s11 19 22 30c11 16 25 35 39 71l226 565c15 39 36 99 64 99c27 0 49 -59 65 -97l267 -602c11 -18 14 -25 26 -42c9 -9 15 -13 14 -24s-10 -16 -21 -16h-274c-10 0 -20 5 -21 16s9 16 17 21c20 12 46 22 31 55l-47 99h-206l-41 -98
c-13 -35 13 -44 33 -56c8 -5 18 -10 17 -21c-2 -11 -10 -16 -21 -16h-170zM277 288h127l-65 152zM377 1024h144l-86 -163h-109z" />
    <glyph glyph-name="Edieresis" unicode="&#xcb;" horiz-adv-x="726" 
d="M603 770c50 0 68 32 75 -24l19 -151c1 -19 -12 -38 -34 -17c-36 33 -75 66 -118 84c-35 16 -113 29 -167 29c-17 -1 -54 3 -54 -56v-186h175c50 0 83 29 97 59c3 9 9 17 20 16s16 -8 16 -20v-197c0 -11 -4 -18 -16 -21c-11 -1 -17 8 -20 17c-14 30 -47 59 -97 59h-175
v-227c0 -59 37 -55 54 -56c54 0 138 11 172 23c78 28 111 72 129 90c2 4 24 29 27 32c11 11 20 6 28 -1c3 -8 1 -14 -1 -27c0 0 -16 -61 -23 -99c-8 -39 -14 -98 -27 -107c-7 -5 -68 10 -79 10h-528c-10 0 -20 5 -21 16s8 18 16 21c31 14 47 39 47 96v504
c0 57 -16 82 -47 96c-8 3 -17 10 -16 21c1 10 11 16 21 16h527zM269 1002c39 0 73 -31 73 -70s-32 -71 -71 -71s-72 30 -72 69s31 72 70 72zM474 1002c38 0 72 -31 72 -70s-31 -71 -70 -71s-73 30 -73 69s32 72 71 72z" />
    <glyph glyph-name="Egrave" unicode="&#xc8;" horiz-adv-x="726" 
d="M603 770c50 0 68 32 75 -24l19 -151c1 -19 -12 -38 -34 -17c-36 33 -75 66 -118 84c-35 16 -113 29 -167 29c-17 -1 -54 3 -54 -56v-186h175c50 0 83 29 97 59c3 9 9 17 20 16s16 -8 16 -20v-197c0 -11 -4 -18 -16 -21c-11 -1 -17 8 -20 17c-14 30 -47 59 -97 59h-175
v-227c0 -59 37 -55 54 -56c54 0 138 11 172 23c78 28 111 72 129 90c2 4 24 29 27 32c11 11 20 6 28 -1c3 -8 1 -14 -1 -27c0 0 -16 -61 -23 -99c-8 -39 -14 -98 -27 -107c-7 -5 -68 10 -79 10h-528c-10 0 -20 5 -21 16s8 18 16 21c31 14 47 39 47 96v504
c0 57 -16 82 -47 96c-8 3 -17 10 -16 21c1 10 11 16 21 16h527zM274 1028h152l33 -167h-103z" />
    <glyph glyph-name="Iacute" unicode="&#xcd;" horiz-adv-x="415" 
d="M324 133c0 -57 17 -82 47 -96c8 -3 17 -10 16 -21s-11 -16 -21 -16h-290c-10 0 -20 5 -21 16s8 18 16 21c31 14 47 39 47 96v504c0 57 -16 82 -47 96c-8 3 -17 10 -16 21c1 10 11 16 21 16h290c10 0 21 -5 21 -16c1 -11 -8 -18 -16 -21c-30 -14 -47 -39 -47 -96v-504z
M214 1024h144l-87 -163h-108z" />
    <glyph glyph-name="Icircumflex" unicode="&#xce;" horiz-adv-x="415" 
d="M324 133c0 -57 17 -82 47 -96c8 -3 17 -10 16 -21s-11 -16 -21 -16h-290c-10 0 -20 5 -21 16s8 18 16 21c31 14 47 39 47 96v504c0 57 -16 82 -47 96c-8 3 -17 10 -16 21c1 10 11 16 21 16h290c10 0 21 -5 21 -16c1 -11 -8 -18 -16 -21c-30 -14 -47 -39 -47 -96v-504z
M212 919l-29 -58h-134l89 167h147l90 -167h-134z" />
    <glyph glyph-name="Idieresis" unicode="&#xcf;" horiz-adv-x="415" 
d="M324 133c0 -57 17 -82 47 -96c8 -3 17 -10 16 -21s-11 -16 -21 -16h-290c-10 0 -20 5 -21 16s8 18 16 21c31 14 47 39 47 96v504c0 57 -16 82 -47 96c-8 3 -17 10 -16 21c1 10 11 16 21 16h290c10 0 21 -5 21 -16c1 -11 -8 -18 -16 -21c-30 -14 -47 -39 -47 -96v-504z
M123 1002c39 0 73 -31 73 -70s-32 -71 -71 -71s-72 30 -72 69s31 72 70 72zM328 1002c38 0 72 -31 72 -70s-31 -71 -70 -71s-73 30 -73 69s32 72 71 72z" />
    <glyph glyph-name="Igrave" unicode="&#xcc;" horiz-adv-x="415" 
d="M324 133c0 -57 17 -82 47 -96c8 -3 17 -10 16 -21s-11 -16 -21 -16h-290c-10 0 -20 5 -21 16s8 18 16 21c31 14 47 39 47 96v504c0 57 -16 82 -47 96c-8 3 -17 10 -16 21c1 10 11 16 21 16h290c10 0 21 -5 21 -16c1 -11 -8 -18 -16 -21c-30 -14 -47 -39 -47 -96v-504z
M76 1028h152l34 -167h-104z" />
    <glyph glyph-name="Oacute" unicode="&#xd3;" horiz-adv-x="852" 
d="M431 781c220 1 401 -175 400 -394s-178 -397 -397 -398c-220 -1 -397 174 -398 394c-1 219 172 396 395 398zM248 383c0 -179 53 -325 186 -325c131 0 188 144 188 323c0 178 -53 324 -186 324c-132 0 -188 -144 -188 -322zM437 1024h144l-87 -163h-108z" />
    <glyph glyph-name="Ocircumflex" unicode="&#xd4;" horiz-adv-x="852" 
d="M431 781c220 1 401 -175 400 -394s-178 -397 -397 -398c-220 -1 -397 174 -398 394c-1 219 172 396 395 398zM248 383c0 -179 53 -325 186 -325c131 0 188 144 188 323c0 178 -53 324 -186 324c-132 0 -188 -144 -188 -322zM431 919l-29 -58h-134l90 167h147l90 -167
h-134z" />
    <glyph glyph-name="Ograve" unicode="&#xd2;" horiz-adv-x="852" 
d="M431 781c220 1 401 -175 400 -394s-178 -397 -397 -398c-220 -1 -397 174 -398 394c-1 219 172 396 395 398zM248 383c0 -179 53 -325 186 -325c131 0 188 144 188 323c0 178 -53 324 -186 324c-132 0 -188 -144 -188 -322zM282 1028h153l33 -167h-104z" />
    <glyph glyph-name="Uacute" unicode="&#xda;" horiz-adv-x="818" 
d="M721 286c0 -98 -5 -185 -131 -258c-100 -57 -271 -46 -362 8c-112 66 -112 130 -112 230c0 0 -1 370 -1 371c0 57 -13 82 -44 96c-8 3 -17 10 -16 21c1 10 11 16 21 16h289c10 0 21 -5 21 -16c1 -11 -8 -18 -16 -21c-31 -14 -47 -39 -47 -96v-329c0 -54 -3 -164 80 -207
c47 -23 104 -21 152 4c76 45 71 132 71 192v340c0 56 -16 82 -47 96c-8 3 -17 10 -16 21c1 10 11 16 21 16h179c10 0 21 -5 21 -16c1 -11 -8 -18 -16 -21c-31 -14 -47 -39 -47 -96v-351zM457 1023h144l-86 -164h-109z" />
    <glyph glyph-name="Ucircumflex" unicode="&#xdb;" horiz-adv-x="818" 
d="M722 286c0 -98 -5 -185 -131 -258c-100 -57 -271 -46 -362 8c-112 66 -114 130 -114 230v371c0 57 -13 82 -44 96c-8 3 -17 10 -16 21c1 10 11 16 21 16h290c10 0 21 -5 21 -16c1 -11 -8 -18 -16 -21c-30 -14 -47 -39 -47 -96v-329c0 -54 -3 -164 80 -207
c47 -23 104 -21 152 4c76 45 71 132 71 192v340c0 56 -16 82 -46 96c-9 3 -18 10 -17 21c1 10 11 16 21 16h179c10 0 21 -5 21 -16c1 -11 -8 -18 -16 -21c-31 -14 -47 -39 -47 -96v-351zM468 918l-29 -59h-134l90 168h147l89 -168h-134z" />
    <glyph glyph-name="Ugrave" unicode="&#xd9;" horiz-adv-x="818" 
d="M722 286c0 -98 -5 -185 -131 -258c-100 -57 -271 -46 -362 8c-112 66 -114 130 -114 230v371c0 57 -13 82 -44 96c-8 3 -17 10 -16 21c1 10 11 16 21 16h290c10 0 21 -5 21 -16c1 -11 -8 -18 -16 -21c-30 -14 -47 -39 -47 -96v-329c0 -54 -3 -164 80 -207
c47 -23 104 -21 152 4c76 45 71 132 71 192v340c0 56 -16 82 -46 96c-9 3 -18 10 -17 21c1 10 11 16 21 16h179c10 0 21 -5 21 -16c1 -11 -8 -18 -16 -21c-31 -14 -47 -39 -47 -96v-351zM345 1028h152l34 -167h-104z" />
    <glyph glyph-name="dotlessi" unicode="&#x131;" horiz-adv-x="352" 
d="M104 134v218c0 24 -10 42 -23 50c-10 6 -24 11 -26 21c-1 11 9 16 17 20l168 61c21 6 40 5 40 -33v-338c0 -56 1 -82 31 -96c9 -3 18 -10 18 -21c0 -10 -11 -16 -22 -16h-230c-10 0 -21 5 -22 16s10 19 17 21c34 9 32 41 32 97z" />
    <glyph glyph-name="circumflex" unicode="&#x2c6;" horiz-adv-x="415" 
d="M222 644l-30 -58h-134l90 168h147l90 -168h-134z" />
    <glyph glyph-name="tilde" unicode="&#x2dc;" horiz-adv-x="444" 
d="M343 721l68 -64l-1 -4c-25 -99 -109 -63 -175 -45l-24 6c-45 12 -52 10 -90 -16l-63 65c73 83 112 70 187 47l23 -7c25 -8 42 -7 75 18z" />
    <glyph glyph-name="ring" unicode="&#x2da;" horiz-adv-x="225" 
d="M128 729c38 0 71 -33 71 -72s-33 -71 -71 -71c-39 0 -72 32 -72 71s33 72 72 72zM83 657c0 -23 21 -44 45 -44c23 0 44 21 44 44c0 24 -21 45 -44 45c-24 0 -45 -21 -45 -45z" />
    </font>
</defs>
</svg>
