<?xml version="1.0" standalone="no"?>
<!DOCTYPE svg PUBLIC "-//W3C//DTD SVG 1.1//EN" "http://www.w3.org/Graphics/SVG/1.1/DTD/svg11.dtd" >
<svg>
<metadata>
Created by FontForge 20090622 at Sat Nov 10 10:51:53 2018
 By ffonts
Typeface &#194;&#169; D.N.Barsukov. 2013. All Rights Reserved
</metadata>
<defs>
<font id="Fowviel" horiz-adv-x="380" >
  <font-face 
    font-family="Fowviel"
    font-weight="400"
    font-stretch="normal"
    units-per-em="2048"
    panose-1="0 0 5 0 0 0 0 0 0 0"
    ascent="1638"
    descent="-410"
    x-height="790"
    cap-height="1050"
    bbox="-17 -397 1963 1434"
    underline-thickness="100"
    underline-position="-150"
    unicode-range="U+0020-U+F234"
  />
<missing-glyph horiz-adv-x="964" 
d="M70 0v1434h824v-1434h-824zM120 50h724v1334h-724v-1334zM295 1148q31 28 58 43q53 30 112 30q92 0 148 -47.5t56 -127.5q0 -49 -23 -98.5t-87 -129.5q-63 -80 -99 -132t-36 -99q0 -38 24 -133h-32q-35 97 -35 148q0 76 81.5 218t81.5 217q0 57 -33 90t-91 33
q-38 0 -69 -17q-26 -15 -56 -40v45zM359 334l57 58q11 10 20 10q10 0 22 -11l56 -60q9 -11 9 -20q0 -11 -10 -22l-56 -62q-14 -14 -21 -14q-11 0 -20 10l-61 71q-7 9 -7 18q0 10 11 22z" />
    <glyph glyph-name=".notdef" horiz-adv-x="964" 
d="M70 0v1434h824v-1434h-824zM120 50h724v1334h-724v-1334zM295 1148q31 28 58 43q53 30 112 30q92 0 148 -47.5t56 -127.5q0 -49 -23 -98.5t-87 -129.5q-63 -80 -99 -132t-36 -99q0 -38 24 -133h-32q-35 97 -35 148q0 76 81.5 218t81.5 217q0 57 -33 90t-91 33
q-38 0 -69 -17q-26 -15 -56 -40v45zM359 334l57 58q11 10 20 10q10 0 22 -11l56 -60q9 -11 9 -20q0 -11 -10 -22l-56 -62q-14 -14 -21 -14q-11 0 -20 10l-61 71q-7 9 -7 18q0 10 11 22z" />
    <glyph glyph-name="NULL" horiz-adv-x="0" 
 />
    <glyph glyph-name="nonmarkingreturn" horiz-adv-x="508" 
 />
    <glyph glyph-name="space" unicode=" " horiz-adv-x="508" 
 />
    <glyph glyph-name="space" unicode="&#xa0;" horiz-adv-x="508" 
 />
    <glyph glyph-name="exclam" unicode="!" 
d="M190 1110q62 0 80 -87q13 -67 13 -189q-20 -370 -57 -574h-72q-37 204 -57 574q0 122 13 189q18 87 80 87zM190 -14q-44 0 -74.5 30.5t-30.5 74.5q0 43 30.5 74t74.5 31q43 0 74 -31t31 -74q0 -44 -31 -74.5t-74 -30.5z" />
    <glyph glyph-name="quotedbl" unicode="&#x22;" horiz-adv-x="680" 
d="M590 1094q5 -26 5 -51q0 -78 -46 -145q-54 -70 -116 -94l-45 40q60 38 60 89v5q-1 29 -32 53t-31 90q0 44 29 74q29 31 74 31q43 0 70 -28q25 -25 32 -64zM290 1094q5 -26 5 -51q0 -78 -46 -145q-54 -70 -116 -94l-45 40q60 38 60 89v5q-1 29 -32 53t-31 90q0 44 29 74
q29 31 74 31q43 0 70 -28q25 -25 32 -64z" />
    <glyph glyph-name="numbersign" unicode="#" horiz-adv-x="1120" 
d="M582 1020l-207 -1020h-170l207 1020h170zM945 1020l-207 -1020h-170l207 1020h170zM1035 800v-118h-880v118h880zM965 339v-118h-880v118h880z" />
    <glyph glyph-name="dollar" unicode="$" horiz-adv-x="736" 
d="M629 523q57 -60 57 -183v-6q0 -88 -62 -158q-73 -84 -211 -96q18 -91 18 -112q0 -7 -12 -9q-11 -1 -56 -1t-56 1q-12 2 -12 9q0 21 18 113q-66 5 -142 25q-97 29 -121 53l24 214l70 -5q6 -68 36 -115q57 -85 172 -85q74 0 128 47q28 24 35 79q1 12 1 23q0 41 -17 70
q-30 51 -143 85q-158 49 -197 73q-105 61 -105 180v3q0 123 69 189q65 61 190 69q-18 91 -18 111q0 7 12 9q11 2 56 2t56 -2q12 -2 12 -9q0 -21 -18 -114q57 -7 119 -25q88 -28 112 -52l-31 -197l-71 6q-1 54 -25 99q-48 91 -162 91q-48 0 -84 -19q-57 -45 -57 -108
q0 -59 40 -88q26 -18 166 -60q150 -46 209 -107z" />
    <glyph glyph-name="percent" unicode="%" horiz-adv-x="1092" 
d="M375 722q27 34 27 81v8q-3 54 -36 89q-32 34 -75 34h-2q-44 -2 -74 -38q-26 -34 -26 -83v-9q2 -51 35 -86q32 -34 74 -34h3q44 2 74 38zM295 1024q88 0 152 -58q63 -63 63 -155q0 -88 -63 -155q-64 -62 -152 -62t-152 58q-63 63 -63 151q0 92 63 159q64 62 152 62z
M927 970l-618 -980h-150l678 1070zM877 64q27 34 27 81v8q-3 54 -36 89q-32 34 -75 34h-2q-44 -2 -74 -38q-26 -34 -26 -83v-9q2 -51 35 -86q32 -34 74 -34h3q44 2 74 38zM797 366q88 0 152 -58q63 -63 63 -155q0 -88 -63 -155q-64 -62 -152 -62t-152 58q-63 63 -63 151
q0 92 63 159q64 62 152 62z" />
    <glyph glyph-name="ampersandA" unicode="&#xf234;" horiz-adv-x="1018" 
d="M471 999h-8q-68 0 -101 -51q-26 -40 -26 -100q0 -16 2 -32q2 -24 6 -43q25 -2 48 -2q95 0 144 44q40 35 40 85q0 21 -7 44q-15 51 -98 55zM956 638q7 -21 7 -41q0 -26 -12 -52q-19 -39 -55 -59q-34 -19 -82 -35q8 -55 8 -105q0 -116 -44 -204q-78 -156 -277 -156
q-159 0 -257 74q-103 77 -116 221q-2 19 -2 37q0 108 66 188q66 79 165 103q-134 43 -165 134q-94 35 -142 83l17 31q43 -36 116 -55q-1 12 -1 25q0 114 92 181q77 56 192 56q28 0 58 -3q93 -11 137 -64q24 -29 29 -67q2 -17 2 -32q0 -67 -45 -113q-70 -73 -238 -73
q-21 0 -43 1q30 -51 105 -64q16 -2 40 -2q16 1 25 1t12 -1q38 -2 41 -33q1 -4 1 -8q0 -31 -35 -35h-9q-9 0 -23 1q-13 1 -20 1h-6q-102 -15 -148 -88q-35 -55 -35 -140q0 -20 2 -41q8 -99 48 -161q49 -76 138 -76h13q107 7 134 108q11 40 11 116q0 55 -6 130
q-106 -14 -138 -20q-25 -5 -39 -25q-12 -18 -12 -38v-3q2 -23 19 -33q9 -6 22 -6q12 0 27 5l15 -27q-33 -22 -66 -22h-5q-32 2 -57 24q-23 22 -32 55q-3 14 -3 29q0 20 6 41q24 74 90 103q47 21 155 34q118 16 174 34q56 19 56 55q0 3 -1 7q-2 16 -14 25q-9 7 -18 7
q-5 0 -10 -2l-21 29q31 16 60 16q19 0 36 -7q43 -16 58 -64z" />
    <glyph glyph-name="ampersand" unicode="&#x26;" horiz-adv-x="1019" 
d="M508 79q94 0 151 53q-225 164 -334 397q-68 -53 -68 -151q0 -13 1 -26q10 -112 80 -192q72 -81 170 -81zM969 -12q-115 23 -230 91q-96 -81 -232 -91q-25 -2 -58 -2q-163 0 -264 73q-126 90 -135 269v16q0 91 54 170q60 87 174 128q-28 68 -28 130q-1 13 -1 25
q0 142 106 213q72 54 183 54q12 0 24 -1q125 -9 190 -78q33 -30 40 -58v-6q0 -17 -5 -38q-13 -47 -52 -61q-14 -5 -28 -5q-18 0 -36 8q-32 16 -37 48q-1 7 -1 17q0 9 1 21t1 20t-1 12q-6 31 -64 41q-10 2 -20 2h-12q-64 0 -93 -49q-32 -52 -32 -127q0 -11 1 -22
q0 -59 31 -118q60 -1 132 -17v-49q-64 0 -110 -16q65 -213 248 -370q22 56 28 144q1 12 1 27q0 22 -2 53l-91 7v60h290v-60l-82 -7q4 -38 4 -78q0 -122 -60 -212q82 -53 166 -86v-78z" />
    <glyph glyph-name="quotesingle" unicode="'" 
d="M290 1094q5 -26 5 -51q0 -78 -46 -145q-54 -70 -116 -94l-45 40q60 38 60 89v5q-1 29 -32 53t-31 90q0 44 29 74q29 31 74 31q43 0 70 -28q25 -25 32 -64z" />
    <glyph glyph-name="parenleft" unicode="(" horiz-adv-x="345" 
d="M259 -390q-83 0 -147 227q-62 221 -62 548t62 548q64 227 147 227l36 -31q-87 -112 -87 -744t87 -744z" />
    <glyph glyph-name="parenright" unicode=")" horiz-adv-x="345" 
d="M50 -359q87 112 87 744t-87 744l36 31q83 0 147 -227q62 -221 62 -548t-62 -548q-64 -227 -147 -227z" />
    <glyph glyph-name="asterisk" unicode="*" horiz-adv-x="640" 
d="M588 923q2 -8 2 -16q0 -16 -8 -31q-13 -22 -37 -28q-9 -2 -17 -2q-16 0 -30 8q-2 1 -5 3q-8 5 -72 74q-58 52 -80 54q-4 0 -5 -3q-3 -6 -3 -17q0 -12 13 -57q4 -14 16 -53l14 -44q3 -10 3 -20v-1q-1 -25 -18 -43q-18 -17 -43 -17t-43 17q-18 18 -19 43v1q0 10 4 20
q3 13 13 44q12 39 16 53q13 36 13 59q0 9 -2 15q-2 3 -5 3q-21 -2 -68 -41l-37 -41q-23 -24 -33 -33q-6 -8 -15 -13q-1 0 -1 -1q-14 -8 -29 -8q-8 0 -17 3q-24 7 -37 28q-8 15 -8 30q0 8 2 16q6 24 28 37q0 1 1 1q8 5 18 7q14 4 46 11q39 9 54 12q56 16 68 33q1 2 1 3
q0 2 -1 3q-12 17 -68 33q-15 3 -54 12q-32 7 -46 11q-10 2 -18 7q-1 0 -1 1q-22 13 -28 37q-2 8 -2 16q0 15 8 30q13 21 37 28q9 3 17 3q15 0 29 -8l1 -1q9 -5 15 -13q10 -9 33 -33l37 -41q37 -29 68 -31q3 0 5 3q2 5 2 15q0 13 -13 49q-4 14 -16 53q-10 31 -13 44
q-4 10 -4 20v1q1 25 19 43q18 17 43 17t43 -17q17 -18 18 -43v-1q0 -10 -3 -20l-14 -44q-12 -39 -16 -53q-13 -34 -13 -47q0 -11 3 -17q1 -3 5 -3q30 2 67 31q11 11 38 41q22 24 32 33q7 8 15 13q1 0 1 1q14 8 29 8q8 0 17 -3q24 -7 37 -28q8 -15 8 -30q0 -8 -2 -16
q-6 -24 -27 -37q-1 -1 -2 -1q-8 -5 -18 -7q-13 -4 -45 -11q-40 -9 -55 -12q-55 -16 -67 -33q-1 -1 -1 -3q0 -1 1 -3q13 -18 85 -37q92 -21 100 -26l4 -2q1 -1 12 -7.5t18 -30.5z" />
    <glyph glyph-name="plus" unicode="+" horiz-adv-x="920" 
d="M375 430h-290v135h290v308h150v-308h310v-135h-310v-307h-150v307z" />
    <glyph glyph-name="comma" unicode="," 
d="M290 104q5 -26 5 -51q0 -78 -46 -145q-54 -70 -116 -94l-45 40q60 38 60 89v5q-1 29 -32 53t-31 90q0 44 29 74q29 31 74 31q43 0 70 -28q25 -25 32 -64z" />
    <glyph glyph-name="hyphen" unicode="-" horiz-adv-x="770" 
d="M85 330v135h600v-135h-600z" />
    <glyph glyph-name="hyphen" unicode="&#xad;" horiz-adv-x="770" 
d="M85 330v135h600v-135h-600z" />
    <glyph glyph-name="period" unicode="." 
d="M190 -14q-44 0 -74.5 30.5t-30.5 74.5q0 43 30.5 74t74.5 31q43 0 74 -31t31 -74q0 -44 -31 -74.5t-74 -30.5z" />
    <glyph glyph-name="slash" unicode="/" horiz-adv-x="630" 
d="M580 1100l-380 -1360h-150l380 1360h150z" />
    <glyph glyph-name="zero" unicode="0" horiz-adv-x="794" 
d="M526 220q45 127 45 299v15q-3 183 -53 312q-51 123 -125 123h-2q-75 -2 -123 -129q-45 -127 -45 -299v-15q3 -183 52 -312q51 -122 125 -122h2q75 1 124 128zM397 1074q151 0 259 -159q108 -160 108 -385t-108 -385q-108 -159 -259 -159t-259 159q-108 160 -108 385
t108 385q108 159 259 159z" />
    <glyph glyph-name="one" unicode="1" horiz-adv-x="489" 
d="M439 1060v-1060h-200l34 891q-81 -116 -164 -144l-59 109q151 92 259 204h130z" />
    <glyph glyph-name="two" unicode="2" horiz-adv-x="759" 
d="M709 220q-16 -125 -67 -174q-49 -60 -155 -60q-42 0 -119 32q-62 20 -83 21q-9 1 -16 1q-62 0 -71 -36v-4h-130q0 167 64 296q44 91 139 193q120 130 139 156q63 89 63 185q0 58 -26 94q-30 41 -87 41q-63 0 -94 -20q-25 -15 -25 -47q-1 -30 -1 -52v-20l1 -43
q-12 -19 -56 -32q-20 -6 -34 -6q-19 0 -30 10q-58 59 -71 178q28 35 82 70q108 71 225 71q118 0 194 -44q114 -65 114 -220q0 -87 -52 -169q-35 -55 -122 -142q-138 -140 -148 -151q-101 -114 -123 -201q51 28 111 28q21 0 42 -3q145 -24 159 -24q33 0 60 21q31 23 31 57z
" />
    <glyph glyph-name="three" unicode="3" horiz-adv-x="729" 
d="M613 599q66 -81 66 -212q0 -22 -2 -46q-14 -173 -121 -271q-93 -84 -227 -84h-17q-106 5 -194 51q-44 23 -67 45q-1 17 -1 33q0 90 39 139q16 20 47 20q11 0 23 -2q48 -9 56 -36q3 -9 3 -23q0 -11 -2 -25q-2 -27 -2 -40v-7q6 -49 98 -49q72 0 118 58q43 56 48 144
q2 28 2 53q0 111 -36 166q-31 49 -87 49q-40 0 -93 -25l-94 75l246 322l8 8q-49 -23 -97 -23q-12 0 -24 1q-21 2 -74 19q-9 3 -17 3q-30 0 -39 -40q-3 -14 -3 -29q0 -12 2 -24h-74q-9 45 -12 93q-1 12 -1 23q0 75 30 88q14 7 43 7q23 0 67 -8q58 -10 81 -12q32 -4 65 -4
q83 0 168 24l53 -106l-1 -1l1 -2l-4 -2l-225 -287q43 11 81 11q108 0 169 -74z" />
    <glyph glyph-name="four" unicode="4" horiz-adv-x="741" 
d="M706 288h-109v-288h-190l13 288h-314l-71 106v12q0 52 29 118q7 15 77 144q115 214 115 406l180 -86q1 -11 1 -23q0 -144 -94 -305q-30 -53 -91 -139q-64 -92 -65 -117l238 -10l12 259h160v-269l109 -10v-86z" />
    <glyph glyph-name="five" unicode="5" horiz-adv-x="709" 
d="M530 681q129 -93 129 -304q0 -212 -105 -313q-81 -78 -212 -78h-19q-116 5 -205 51q-44 23 -67 45q-1 17 -1 33q0 90 39 139q15 20 44 20q11 0 24 -3q46 -9 58 -35q6 -12 6 -32q0 -7 -1 -15q-2 -31 -2 -42v-5q1 -24 20 -36q22 -14 85 -14q70 0 111 75q37 69 37 169
q0 157 -54 222q-37 44 -97 44q-54 0 -127 -36l-94 75v419q117 -26 205 -26h18q36 1 205 23q21 3 38 3q26 0 39 -7q30 -13 30 -94v-18q-2 -43 -11 -84h-65q1 7 1 13q0 19 -5 35q-8 34 -32 34q-9 0 -19 -4q-77 -19 -144 -19q-59 0 -120 22l17 -247q67 35 134 35h11
q72 -3 129 -45z" />
    <glyph glyph-name="six" unicode="6" horiz-adv-x="785" 
d="M550 323v18q-4 233 -143 233h-2q-138 -2 -138 -220v-16q2 -120 38 -186q37 -70 106 -70h4q135 2 135 241zM411 668q25 4 49 4q107 0 188 -77q102 -96 102 -257q0 -147 -96 -249q-98 -103 -243 -103q-148 0 -253 103q-105 104 -105 249q-2 27 -2 54q0 257 156 458
q75 95 170 155q94 58 187 69v-86q-252 -98 -334 -448q74 112 181 128z" />
    <glyph glyph-name="seven" unicode="7" horiz-adv-x="700" 
d="M603 856q-63 -99 -94 -162q-51 -104 -82 -228q33 -7 56 -7h10q45 4 54 14l21 -23q-4 -15 -17 -32q-27 -34 -75 -39q-12 -1 -24 -1q-21 0 -43 3q-24 -129 -28 -276q0 -51 3 -105h-185q-3 44 -3 87q0 178 37 338q-24 4 -46 4h-9q-45 -3 -56 -15l-17 17q0 16 8 33
q17 36 65 45q15 3 34 3q22 0 49 -4q16 42 36 83q36 78 194 338q-62 -28 -117 -28q-38 0 -83 9q-24 5 -62 17q-31 12 -43 12q-40 0 -51 -65q-3 -20 -3 -40q0 -12 1 -24h-74q-8 55 -8 112v6q0 110 33 125q14 7 43 7q23 0 95 -8l123 -14q33 -3 66 -3q97 0 186 25l53 -106v-3h-1
q-4 -30 -46 -95z" />
    <glyph glyph-name="eight" unicode="8" horiz-adv-x="750" 
d="M362 86q82 0 126 63q34 48 34 106q0 129 -190 210q-132 -97 -139 -201v-15q0 -68 36 -111q46 -52 133 -52zM269 713q49 -45 108 -75q62 44 94 105q24 48 24 94q0 9 -1 18q-4 55 -38 89q-36 36 -94 36q-52 0 -87 -32q-31 -28 -44 -75q-5 -23 -5 -46q0 -21 4 -42
q10 -46 39 -72zM488 591q227 -120 227 -313q0 -113 -74 -193q-89 -99 -263 -99q-180 0 -267 76q-76 65 -76 180q0 81 52 150q39 52 140 131q-172 114 -172 275q0 10 2 20q5 95 64 163q82 93 241 93q117 0 188 -54q84 -62 84 -186q0 -121 -146 -243z" />
    <glyph glyph-name="nine" unicode="9" horiz-adv-x="757" 
d="M485 568q33 56 33 165v6q-1 117 -33 185q-37 68 -108 68t-109 -68q-33 -67 -33 -178v-6q2 -238 141 -238h1q72 0 108 66zM720 730q2 -36 2 -71q0 -286 -161 -486q-68 -84 -153 -136q-72 -46 -136 -51l-8 72q102 77 154 149q90 125 109 282q-55 -63 -162 -66h-12
q-137 0 -226 88q-92 90 -92 230q0 142 96 235q101 98 265 98q150 0 233 -96q80 -92 91 -248z" />
    <glyph glyph-name="colon" unicode=":" horiz-adv-x="361" 
d="M181 -14q-44 0 -74.5 30.5t-30.5 74.5q0 43 30.5 74t74.5 31q43 0 74 -31t31 -74q0 -44 -31 -74.5t-74 -30.5zM180 593q-44 0 -74.5 30.5t-30.5 74.5q0 43 30.5 74t74.5 31q43 0 74 -31t31 -74q0 -44 -31 -74.5t-74 -30.5z" />
    <glyph glyph-name="semicolon" unicode=";" 
d="M190 593q-44 0 -74.5 30.5t-30.5 74.5q0 43 30.5 74t74.5 31q43 0 74 -31t31 -74q0 -44 -31 -74.5t-74 -30.5zM290 104q5 -26 5 -51q0 -78 -46 -145q-54 -70 -116 -94l-45 40q60 38 60 89v5q-1 29 -32 53t-31 90q0 44 29 74q29 31 74 31q43 0 70 -28q25 -25 32 -64z" />
    <glyph glyph-name="semicolon" unicode="&#x37e;" 
d="M190 593q-44 0 -74.5 30.5t-30.5 74.5q0 43 30.5 74t74.5 31q43 0 74 -31t31 -74q0 -44 -31 -74.5t-74 -30.5zM290 104q5 -26 5 -51q0 -78 -46 -145q-54 -70 -116 -94l-45 40q60 38 60 89v5q-1 29 -32 53t-31 90q0 44 29 74q29 31 74 31q43 0 70 -28q25 -25 32 -64z" />
    <glyph glyph-name="less" unicode="&#x3c;" horiz-adv-x="755" 
d="M705 724q-96 -37 -271 -123q-191 -88 -230 -116q39 -28 230 -104q175 -86 271 -122l-22 -149q-81 28 -142 63q-100 44 -256 132q-134 80 -235 147v66q101 67 235 147q156 88 256 132q61 35 142 63z" />
    <glyph glyph-name="equal" unicode="=" horiz-adv-x="870" 
d="M85 298v140h700v-140h-700zM85 538v140h700v-140h-700z" />
    <glyph glyph-name="greater" unicode="&#x3e;" horiz-adv-x="755" 
d="M72 860q81 -28 142 -63q100 -44 256 -132q134 -80 235 -147v-66q-101 -67 -235 -147q-156 -88 -256 -132q-61 -35 -142 -63l-22 149q96 36 271 122q191 76 230 104q-39 28 -230 116q-175 86 -271 123z" />
    <glyph glyph-name="question" unicode="?" horiz-adv-x="678" 
d="M220 260q-11 61 -11 118q0 137 63 251q13 24 36 62q27 42 36 58q39 67 47 123q4 23 4 44q0 32 -10 60q-27 49 -90 49h-5q-61 0 -90 -23q-25 -21 -25 -54v-3q0 -11 1 -29q2 -23 2 -28v-9q0 -25 -9 -35q-12 -15 -29 -15h-2q-16 0 -29 14q-44 45 -66 123q17 30 37 51
q96 93 247 93q266 0 266 -203q0 -88 -47 -165q-18 -28 -100 -126q-65 -77 -90 -142q-33 -67 -33 -148q0 -32 5 -66h-108zM294 -14q-44 0 -74.5 30.5t-30.5 74.5q0 43 30.5 74t74.5 31q43 0 74 -31t31 -74q0 -44 -31 -74.5t-74 -30.5z" />
    <glyph glyph-name="at" unicode="@" horiz-adv-x="1211" 
d="M703 663q-20 20 -49 37q-35 20 -64 20q-19 0 -35 -8q-71 -35 -81 -200q-1 -19 -1 -36q0 -96 32 -154q32 -59 85 -59q10 0 20 2q34 6 64 51q23 34 29 62v285zM856 744q-6 -36 -6 -80v-261q0 -84 7 -111q15 -50 66 -50q40 0 68 22q16 13 38 47q39 60 39 202q0 24 -1 51
q-9 214 -120 314q-112 100 -312 100q-199 0 -323 -139q-121 -146 -121 -364q0 -219 142 -364q139 -142 344 -142q221 0 351 146l52 -26q-63 -97 -175 -153q-120 -61 -270 -61q-249 0 -424 176q-176 175 -176 424q0 259 176 434q175 166 424 166q224 0 372 -118
q153 -132 167 -372q2 -31 2 -60q0 -205 -99 -286q-61 -51 -155 -51q-26 0 -53 4q-88 11 -130 76q-8 13 -16 41h-3q-14 -46 -56 -79q-53 -42 -135 -42q-91 0 -159 67q-78 77 -78 203q0 117 50 204q42 74 107 109q39 21 90 21q22 0 45 -4q86 -12 140 -66q3 30 18 48z" />
    <glyph glyph-name="A" unicode="A" horiz-adv-x="1104" 
d="M671 373l-156 540l-154 -540h310zM949 103q118 -11 120 -21v-82h-432v82q7 12 112 21l-53 185h-363l-51 -185q92 -11 101 -21v-82h-348v82q32 16 110 21l266 854q-46 1 -68 11v82h313z" />
    <glyph glyph-name="B" unicode="B" horiz-adv-x="980" 
d="M700 270q1 17 1 33q0 80 -38 124q-54 61 -176 67h-105v-387q40 -5 84 -5q220 3 234 168zM382 585q3 0 62 -1h72q93 6 143 57q42 44 42 121q0 13 -1 26q-12 159 -218 161q-12 0 -40.5 -1t-59.5 -5v-358zM695 545q235 -56 235 -261q0 -158 -125 -227q-104 -57 -300 -57
h-455v82q15 10 133 21v844q-118 11 -133 21v82h431q190 0 291 -53q118 -62 129 -207q1 -11 1 -22q0 -82 -54 -142q-57 -65 -153 -81z" />
    <glyph glyph-name="C" unicode="C" horiz-adv-x="917" 
d="M554 971q-151 0 -231 -136q-72 -121 -72 -313q0 -182 98 -303q88 -110 210 -119q13 -1 26 -1q121 0 203 88l55 -49q-20 -38 -71 -76q-101 -76 -254 -76q-209 0 -345 136q-138 139 -138 360q0 232 140 403q148 179 368 179q99 0 202 -27q83 -22 122 -46l-39 -246l-84 19
q2 13 2 27q0 38 -15 77q-41 103 -177 103z" />
    <glyph glyph-name="D" unicode="D" horiz-adv-x="1101" 
d="M566 100q116 0 201 113q87 127 87 309q0 187 -71 305q-81 123 -232 123h-169v-850h184zM561 1050q223 0 366 -156q139 -151 139 -374q0 -217 -142 -368q-142 -152 -348 -152h-526v82q8 10 136 21v844q-128 11 -136 21v82h511z" />
    <glyph glyph-name="E" unicode="E" horiz-adv-x="898" 
d="M396 491v-381l324 -13l68 125h75l-41 -222h-772v83q32 9 150 20v847q-118 11 -150 21v79h762l41 -222h-75l-68 125l-314 -13v-365h247q7 42 15 64q4 11 6 11h46v-230h-46q-11 20 -21 75z" />
    <glyph glyph-name="F" unicode="F" horiz-adv-x="898" 
d="M863 828h-75l-68 125l-324 -13v-375h257q7 52 15 74q4 11 6 11h46v-250h-46q-11 20 -21 85l-257 -4v-379q116 -5 146 -20v-82h-492v83q36 10 150 20v844q-101 9 -150 24v79h772z" />
    <glyph glyph-name="G" unicode="G" horiz-adv-x="991" 
d="M961 490v-82q-19 -13 -94 -21v-229q-38 -65 -147 -117q-115 -55 -232 -55q-192 0 -315 123q-138 138 -138 373q0 232 140 403q142 172 358 179h23q106 0 200 -25q79 -21 116 -48l-44 -240l-85 19q2 14 2 28q0 43 -15 80q-41 100 -169 100q-153 0 -239 -139
q-71 -124 -71 -317q0 -187 76 -303q76 -118 211 -118q11 0 22 1q96 3 139 50v235q-98 5 -190 21v82h452z" />
    <glyph glyph-name="H" unicode="H" horiz-adv-x="1168" 
d="M1118 967q-2 -9 -130 -20v-844q128 -11 130 -20v-83h-435v83q7 11 112 20v388h-422v-388q105 -9 112 -20v-83h-435v83q2 9 130 20v844q-128 11 -130 20v83h435v-83q-7 -11 -112 -20v-370h422v370q-105 9 -112 20v83h435v-83z" />
    <glyph glyph-name="I" unicode="I" horiz-adv-x="562" 
d="M372 947v-844q118 -5 150 -21v-82h-472v82q8 10 136 21v844q-128 11 -136 21v82h472v-82q-32 -16 -150 -21z" />
    <glyph glyph-name="J" unicode="J" horiz-adv-x="523" 
d="M488 1050v-82q-18 -10 -126 -21v-547q0 -184 -9 -240q-13 -69 -57 -113q-47 -47 -144 -58q-29 -3 -62 -3q-27 0 -55 2v108h5q21 0 44 8q53 19 80 72q20 50 20 257v514q-109 5 -141 21v82h445z" />
    <glyph glyph-name="K" unicode="K" horiz-adv-x="1075" 
d="M1035 11q-97 -24 -163 -25h-4q-70 0 -103 36q-26 29 -113 279q-35 95 -64 142q-50 63 -94 69q-34 5 -126 7v-411q92 -12 118 -22v-86h-436v82q34 16 126 22v842q-92 6 -126 22v81h436v-81q-26 -10 -118 -22v-341q99 1 135 7q68 12 140 172q89 229 94 237q27 43 97 43
q66 0 146 -29l-34 -123q-18 4 -36 5h-2q-25 0 -39 -19q-7 -9 -61 -163q-59 -139 -106 -173q-7 -5 -19 -7q74 -20 148 -175q20 -48 41 -114l23 -84q11 -28 40 -40q21 -8 57 -8h36z" />
    <glyph glyph-name="L" unicode="L" horiz-adv-x="898" 
d="M822 0h-772v79q32 10 150 21v847q-118 11 -150 20v83h496v-83q-32 -9 -150 -20v-836l324 -24l68 135h75z" />
    <glyph glyph-name="M" unicode="M" horiz-adv-x="1393" 
d="M1238 103q118 -11 120 -20v-83h-423v83q8 11 93 20l-61 704l-6 -51l-254 -756h-90l-257 756l-7 51l-59 -704q75 -9 82 -20v-83h-341v83q2 9 120 20l75 844q-118 11 -119 20v83h353l225 -737h4l237 737h346v-83q-2 -9 -120 -20z" />
    <glyph glyph-name="N" unicode="N" horiz-adv-x="1165" 
d="M371 1050l456 -742q14 -22 27 -82v721q-121 11 -127 20v83h388v-83q-2 -9 -120 -20v-947h-201q-352 552 -461 746q-9 15 -22 66v-709q127 -12 133 -20v-83h-394v83q2 9 120 20v817q-118 38 -120 47v83h321z" />
    <glyph glyph-name="O" unicode="O" horiz-adv-x="1075" 
d="M752 224q74 119 74 280v26q-7 187 -96 309q-87 119 -201 119h-8q-119 -4 -198 -132q-73 -119 -73 -289v-27q6 -177 95 -299q87 -119 201 -119h8q119 4 198 132zM538 1064q205 0 353 -146q149 -157 149 -388q0 -221 -149 -388q-148 -156 -353 -156q-206 0 -354 146
q-149 157 -149 377q0 232 149 399q148 156 354 156z" />
    <glyph glyph-name="P" unicode="P" horiz-adv-x="922" 
d="M479 530q129 0 182 60q45 51 45 163q0 83 -48 141q-48 56 -129 65q-32 3 -60 3h-14q-38 0 -83 -6v-399q39 -27 107 -27zM534 429q-23 -1 -44 -1q-63 0 -118 12v-337q135 -11 143 -21v-82h-465v82q8 10 126 21v844q-118 11 -126 21v82h519q164 0 244 -85q74 -77 74 -219
q0 -152 -110 -243q-93 -68 -243 -74z" />
    <glyph glyph-name="Q" unicode="Q" horiz-adv-x="1138" 
d="M554 92q40 1 76 17q-3 3 -6 4q-33 19 -68 19q-9 0 -18 -1q-22 -2 -36 -10l-27 35q82 58 150 58q14 0 28 -3q34 -6 69 -30q16 20 30 43q74 119 74 280v26q-7 187 -96 309q-87 119 -201 119h-8q-119 -4 -198 -132q-73 -119 -73 -289v-27q6 -177 95 -299q87 -119 201 -119h8
zM923 13q12 -4 28 -4q13 0 28 3q36 7 64 28l60 -57q-24 -65 -82 -97q-46 -26 -105 -26q-9 0 -19 1q-97 14 -177 161q-84 -36 -182 -36q-206 0 -354 146q-149 157 -149 377q0 232 149 399q148 156 354 156q205 0 353 -146q149 -157 149 -388q0 -221 -149 -388
q-22 -23 -45 -43q48 -79 77 -86z" />
    <glyph glyph-name="R" unicode="R" horiz-adv-x="1055" 
d="M372 566q56 -3 91 -3q145 0 207 60q50 48 50 133q0 12 -1 25q-14 164 -253 167q-54 0 -94 -4v-378zM50 1050h455q187 0 298 -65q124 -72 124 -218q0 -124 -91 -193q-75 -57 -205 -74q91 -17 155 -138q21 -39 42 -96q25 -64 28 -70q28 -61 109 -61q14 0 38 4l7 -121
q-51 -31 -135 -32h-4q-102 0 -144 46q-35 39 -120 257q-29 84 -55 123q-34 52 -77 55q-45 2 -103 3v-367q85 -11 93 -20v-83h-415v83q8 9 126 20v844q-118 11 -126 21v82z" />
    <glyph glyph-name="S" unicode="S" horiz-adv-x="824" 
d="M393 89q100 0 152 53q39 52 39 110q1 11 1 22q0 61 -25 95q-38 47 -162 84q-187 58 -234 87q-124 72 -124 213v4q0 146 82 224q88 83 267 83q102 0 218 -34q104 -33 132 -62l-37 -234l-84 7q-1 64 -29 118q-57 109 -193 109q-56 0 -99 -25q-39 -25 -59 -76q-9 -41 -9 -70
q0 -15 3 -30q10 -47 45 -72q31 -21 197 -71q178 -55 247 -127q68 -72 68 -200v-7q0 -105 -73 -188q-101 -116 -306 -116q-104 0 -232 33q-115 35 -143 63l28 254l84 -6q7 -77 42 -132q68 -109 204 -109z" />
    <glyph glyph-name="T" unicode="T" horiz-adv-x="1043" 
d="M1008 827h-85l-59 135l-244 -22v-837q116 -11 149 -20v-83h-495v83q33 9 148 20v837l-243 22l-59 -135h-85l49 223h883z" />
    <glyph glyph-name="U" unicode="U" horiz-adv-x="1108" 
d="M1069 1050v-83q-2 -9 -120 -20v-592q0 -369 -400 -369q-202 0 -295 86q-94 88 -94 282v593q-118 11 -120 21v82h425v-82q-8 -12 -103 -21v-583q0 -146 49 -208q51 -64 172 -64t182 71q51 70 52 214v570q-121 11 -127 20v83h379z" />
    <glyph glyph-name="V" unicode="V" horiz-adv-x="1154" 
d="M1118 1050v-83q-2 -9 -120 -20l-289 -947h-204l-350 947q-118 11 -120 20v83h437v-83q-7 -11 -102 -20q214 -593 250 -724q4 -12 17 -54l226 778q-96 9 -103 20v83h358z" />
    <glyph glyph-name="W" unicode="W" horiz-adv-x="1599" 
d="M1564 1050v-83q-2 -9 -120 -20l-200 -947h-224l-204 679h-3l-203 -679h-208l-247 947q-118 11 -120 20v83h448v-83q-28 -11 -103 -20q120 -601 147 -724q3 -12 8 -49l260 876h93q236 -717 257 -827q3 -12 7 -49l156 773q-95 9 -102 20v83h358z" />
    <glyph glyph-name="X" unicode="X" horiz-adv-x="1111" 
d="M1044 1050v-82q-2 -10 -120 -21l-267 -396l300 -448q118 -11 119 -21v-82h-437v82q7 12 103 21l-218 315l-209 -315q95 -9 103 -21v-82h-383v82q2 10 120 21l285 418l-275 426q-118 11 -120 21v82h437v-82q-7 -12 -102 -21l194 -314l206 314q-95 9 -102 21v82h366z" />
    <glyph glyph-name="Y" unicode="Y" horiz-adv-x="1065" 
d="M1030 1050v-82q-2 -10 -120 -21l-259 -461v-382q117 -11 123 -21v-83h-441v83q2 10 121 21v382l-299 461q-118 11 -120 21v82h437v-82q-7 -12 -102 -21l202 -367l204 367q-95 9 -102 21v82h356z" />
    <glyph glyph-name="Z" unicode="Z" horiz-adv-x="833" 
d="M778 1050v-91l-513 -849l389 -22l59 135h85l-49 -223h-714v88l513 852l-359 22l-59 -135h-85l49 223h684z" />
    <glyph glyph-name="bracketleft" unicode="[" horiz-adv-x="336" 
d="M212 1062q-29 0 -29 -36v-1282q0 -36 29 -36h74v-88q-66 -10 -146 -10q-58 0 -73 10q-17 11 -17 68v1394q0 57 17 68q15 10 73 10q80 0 146 -10v-88h-74z" />
    <glyph glyph-name="backslash" unicode="\" horiz-adv-x="630" 
d="M200 1100l380 -1360h-150l-380 1360h150z" />
    <glyph glyph-name="bracketright" unicode="]" horiz-adv-x="336" 
d="M50 1062v88q66 10 146 10q58 0 73 -10q17 -11 17 -68v-1394q0 -57 -17 -68q-15 -10 -73 -10q-80 0 -146 10v88h74q29 0 29 36v1282q0 36 -29 36h-74z" />
    <glyph glyph-name="asciicircum" unicode="^" horiz-adv-x="681" 
d="M515 850q-118 198 -174 309q-57 -111 -175 -309h-166l102 150q112 181 202 285h73q131 -166 314 -435h-176z" />
    <glyph glyph-name="underscore" unicode="_" horiz-adv-x="920" 
d="M85 -130v100h750v-100h-750z" />
    <glyph glyph-name="grave" unicode="`" horiz-adv-x="374" 
d="M298 910l-116 101q-120 107 -143 139q-4 6 -4 10v2q0 6 8 13q7 7 67 48q59 42 68 46q7 4 13 4h2q5 -1 10 -8q36 -53 136 -326z" />
    <glyph glyph-name="a" unicode="a" horiz-adv-x="841" 
d="M497 381q-63 18 -135 18q-118 -3 -141 -89q-8 -31 -8 -59q0 -49 25 -87q36 -55 100 -55q6 0 13 1q83 6 146 60v211zM806 55l-257 -68l-41 101q-68 -63 -128 -83q-48 -19 -92 -19h-4q-70 0 -132 34q-112 61 -112 211q0 156 115 216q67 35 164 35q69 0 177 -18
q0 101 -5 145t-29 81q-29 38 -104 43q-99 -3 -100 -53t-12 -74t-57 -40q-6 -1 -11 -1q-47 0 -66 51q-21 57 -23 102q87 86 257 86q204 0 282 -105q47 -66 50 -187v-358l110 -18z" />
    <glyph glyph-name="b" unicode="b" horiz-adv-x="956" 
d="M677 172q47 82 47 202q0 14 -1 28q-6 133 -65 224q-60 89 -140 89q-52 0 -99 -34q-43 -32 -59 -77v-484q38 -49 147 -49h21q95 5 149 101zM532 802q18 2 36 2q133 0 234 -101q114 -113 114 -283q0 -197 -114 -318q-109 -116 -271 -116q-207 0 -359 70v917l-127 6v76
l313 71v-415q72 82 174 91z" />
    <glyph glyph-name="c" unicode="c" horiz-adv-x="700" 
d="M657 101q-15 -29 -53 -57q-77 -58 -193 -58q-177 1 -281 103q-95 106 -95 273q8 186 114 316q116 126 281 126q63 0 124 -22q75 -27 107 -76q4 -21 4 -39q0 -54 -33 -90q-16 -16 -47 -17h-3q-30 0 -48 16q-22 20 -32 51q-1 6 -10 52q-5 28 -17 40q-15 16 -51 16
q-79 0 -134 -105q-53 -98 -53 -228v-10q3 -133 61 -223t144 -96q11 -1 21 -1q48 0 82 19q26 15 63 54z" />
    <glyph glyph-name="d" unicode="d" horiz-adv-x="942" 
d="M594 500q0 112 -64 170q-53 48 -116 48h-8q-79 -3 -131 -99q-48 -86 -48 -203q0 -13 1 -27q6 -133 66 -224q59 -81 139 -81q60 0 110 55q39 44 51 141v220zM907 55l-250 -69l-39 126q-70 -112 -198 -124q-18 -2 -36 -2q-134 0 -235 101q-114 124 -114 294q0 190 114 314
q111 109 271 109q108 -4 174 -71v239l-138 7v76l323 71v-972l110 -19z" />
    <glyph glyph-name="e" unicode="e" horiz-adv-x="752" 
d="M398 734q-55 0 -100 -56q-47 -58 -59 -165h306q-10 104 -47 163q-37 58 -100 58zM426 74q19 -2 37 -2q115 0 190 89l45 -42q-47 -64 -97 -92q-72 -41 -180 -41q-20 0 -41 1q-168 11 -258 107q-91 98 -91 265q-1 17 -1 34q10 151 91 267q103 131 257 143q17 1 33 1
q131 0 215 -80q86 -94 96 -290h-489v-39q0 -150 57 -235q51 -77 136 -86z" />
    <glyph glyph-name="f" unicode="f" horiz-adv-x="677" 
d="M647 1028q-1 -76 -45 -124q-16 -16 -47 -17h-3q-30 0 -47 16q-23 20 -27 49q-1 6 -1 17q0 12 1 29v10q0 18 -6 27q-11 16 -46 20q-11 0 -17 -1q-36 -7 -51 -36q-16 -29 -16 -94v-120h211v-104h-211v-597q98 -5 150 -21v-82h-442v82q19 10 116 21v597h-114v83q54 9 118 18
q2 6 9 118q18 89 64 135q72 72 188 72h3q150 0 213 -98z" />
    <glyph glyph-name="g" unicode="g" horiz-adv-x="880" 
d="M518 373q37 56 37 143v9q-2 94 -44 154q-40 59 -98 59h-3q-59 -1 -98 -62q-39 -60 -39 -150v-5q2 -93 46 -151q42 -56 101 -56h2q59 1 96 59zM599 -137q0 55 -40 89q-63 52 -239 78q-40 -33 -55 -61q-25 -47 -25 -105q0 -13 1 -26q5 -55 61 -86q50 -28 122 -28
q175 0 175 139zM835 776q10 -43 10 -48q0 -11 -11 -14q-33 -7 -172 -10q70 -80 70 -181q0 -120 -94 -205t-223 -85q-77 0 -146 33q-31 -31 -31 -59q0 -4 1 -8q5 -33 58 -41q265 -38 353 -75q143 -61 143 -198q0 -91 -99 -156q-112 -74 -306 -74q-166 0 -260 51
q-86 46 -92 122q-1 9 -1 18q0 91 68 149q30 26 101 57q7 4 15 7q-108 24 -108 119q0 7 1 15q5 68 72 132q-88 84 -88 198q0 120 95 205q93 85 224 85q107 0 194 -62q161 71 198 80h3q10 0 14 -8q2 -5 11 -47z" />
    <glyph glyph-name="h" unicode="h" horiz-adv-x="1091" 
d="M926 103q98 -5 130 -21v-82h-422v82q8 10 106 21v387q0 105 -23 146q-26 47 -99 47h-3q-131 -2 -242 -98v-482q98 -5 130 -21v-82h-422v82q8 10 106 21v869l-137 7v76l323 71v-450q137 127 310 127q163 0 219 -120q24 -52 24 -118v-462z" />
    <glyph glyph-name="i" unicode="i" horiz-adv-x="543" 
d="M270 950q-45 0 -78 32q-32 32 -32 77q0 46 32 78q33 33 78 33t77 -33q33 -32 33 -78q0 -45 -33 -77q-32 -32 -77 -32zM363 103q98 -5 130 -21v-82h-412v82q8 10 106 21v570l-137 17v75l313 35v-697z" />
    <glyph glyph-name="j" unicode="j" horiz-adv-x="390" 
d="M348 800v-873q-1 -157 -63 -222q-47 -47 -144 -52q-16 -1 -31 -1q-35 0 -66 5l-9 98h4q20 0 44 8q53 19 79 72q20 46 20 145v693l-137 17v75zM250 950q-45 0 -78 32q-32 32 -32 77q0 46 32 78q33 33 78 33t77 -33q33 -32 33 -78q0 -45 -33 -77q-32 -32 -77 -32z" />
    <glyph glyph-name="k" unicode="k" horiz-adv-x="994" 
d="M924 10q-56 -23 -119 -24h-5q-83 0 -114 35q-23 26 -111 228q-72 167 -126 167h-56v-313q98 -5 106 -20v-83h-398v83q8 9 106 20v869l-137 7v76l323 71v-634h34q74 0 131 97q16 26 46 88q28 59 44 85q26 41 94 42q63 0 129 -32l-26 -114q-17 7 -34 8h-3q-24 0 -37 -18
q-9 -11 -26 -43q-21 -41 -31 -58q-44 -73 -110 -94q72 -12 135 -131q20 -38 42 -91q26 -61 26 -62q22 -46 83 -46h28z" />
    <glyph glyph-name="l" unicode="l" horiz-adv-x="593" 
d="M393 103q98 -5 130 -21v-82h-422v82q8 10 106 21v869l-97 17v76l283 61v-1023z" />
    <glyph glyph-name="m" unicode="m" horiz-adv-x="1616" 
d="M1450 103q99 -5 131 -20v-83h-423v83q9 9 107 20v387q0 110 -18 146q-22 44 -94 44h-3q-135 -2 -246 -92v-485q98 -5 131 -20v-83h-423v83q9 9 107 20v387q0 109 -18 145q-23 45 -94 45h-3q-135 -2 -246 -92v-485q98 -5 131 -20v-83h-423v83q8 9 106 20v544l-137 17v75
l255 52l47 -121q63 55 144 91q97 43 191 43q172 0 219 -134q162 134 327 134q158 0 208 -120q24 -59 24 -194v-387z" />
    <glyph glyph-name="n" unicode="n" horiz-adv-x="1078" 
d="M912 103q99 -5 131 -20v-83h-423v83q9 9 107 20v387q0 106 -23 147q-26 47 -99 47h-3q-132 -2 -244 -98v-483q98 -5 131 -20v-83h-423v83q8 9 107 20v545l-138 17v75l262 52l41 -125q61 56 140 93q97 44 192 44q162 0 218 -120q24 -51 24 -114v-467z" />
    <glyph glyph-name="o" unicode="o" horiz-adv-x="860" 
d="M579 174q41 77 46 174q1 12 1 24t-1 24v9q-7 133 -70 225q-55 84 -128 88q-6 0 -12 -1h-2q-81 -4 -133 -101q-40 -75 -45 -170v-61q7 -133 70 -225q56 -84 129 -88h10l2 1q82 4 133 101zM435 804q194 0 299 -120q96 -109 96 -289q0 -172 -113 -289q-116 -120 -292 -120
q-196 0 -300 120q-95 109 -95 289q0 175 121 294q119 115 284 115z" />
    <glyph glyph-name="p" unicode="p" horiz-adv-x="966" 
d="M687 172q47 87 47 203q0 13 -1 27q-6 133 -65 224q-60 90 -140 90q-93 0 -160 -102v-344q0 -93 63 -150q54 -49 119 -49h5q79 4 132 101zM542 802q18 2 36 2q133 0 234 -91q114 -113 114 -283q0 -190 -114 -324q-111 -120 -271 -120q-101 0 -173 34v-299q98 -5 130 -21
v-82h-422v82q8 10 106 21v927l-137 18v75l258 52l41 -94q28 41 89 71q56 27 109 32z" />
    <glyph glyph-name="q" unicode="q" horiz-adv-x="949" 
d="M591 675q-44 44 -147 44h-21q-95 -5 -149 -101q-47 -82 -47 -202q0 -14 1 -28q5 -133 65 -224q60 -90 140 -90q51 0 100 39q43 33 58 72v490zM779 -279q88 -5 120 -20v-83h-412v83q8 9 106 20v357q-72 -81 -174 -91q-17 -2 -34 -2q-135 0 -236 101q-114 114 -114 284
q0 196 114 318q109 116 271 116q223 0 359 -65v-1018z" />
    <glyph glyph-name="r" unicode="r" horiz-adv-x="786" 
d="M567 804q80 0 136 -34q33 -19 48 -45l-41 -232l-106 13q5 28 5 55q0 18 -2 36q-2 87 -61 87h-5q-53 -3 -95 -67q-40 -61 -73 -184v-330q98 -5 130 -20v-83h-422v83q8 9 106 20v546l-137 17v75l262 52l40 -193q32 81 81 138q58 66 134 66z" />
    <glyph glyph-name="s" unicode="s" horiz-adv-x="681" 
d="M584 384q52 -54 52 -152v-6q0 -79 -55 -142q-77 -98 -233 -98q-145 0 -238 54q-47 27 -64 55q-1 16 -1 30q0 96 36 132q16 15 42 15h11q66 -6 66 -84v-11q0 -95 116 -102h5q70 0 110 37q30 29 30 79q0 56 -18 78q-30 36 -123 64q-123 44 -159 66q-93 54 -93 167v7
q0 109 62 168q66 63 203 63q106 0 185 -48q39 -24 58 -48q2 -22 2 -41q0 -67 -33 -101q-10 -9 -29 -9q-8 0 -17 1q-32 6 -44 21q-10 11 -16 38q-7 48 -11 58q-21 50 -86 50h-8q-36 -1 -63 -23q-25 -20 -35 -52q-8 -24 -7 -50q0 -12 3 -25q9 -25 36 -41q17 -14 129 -54
q135 -41 187 -96z" />
    <glyph glyph-name="t" unicode="t" horiz-adv-x="558" 
d="M332 356q0 -164 19 -206q22 -46 75 -46h4q13 0 52 3l9 -87q-83 -33 -146 -34h-3q-80 0 -124 47q-43 46 -58 152q-4 42 -4 88v427h-121v73q64 21 129 26l64 209h104v-205h191v-103h-191v-344z" />
    <glyph glyph-name="u" unicode="u" horiz-adv-x="1092" 
d="M1042 113v-75l-269 -53l-42 144q-42 -63 -99 -101q-72 -42 -151 -42q-172 0 -244 87q-50 59 -50 166v407l-137 17v76l323 61v-520q0 -106 39 -145q31 -30 99 -30q12 0 25 1q105 10 183 145v395l-137 17v76l323 61v-670z" />
    <glyph glyph-name="v" unicode="v" horiz-adv-x="943" 
d="M908 790v-83q-2 -9 -100 -20l-239 -687h-164l-270 687q-98 11 -100 20v83h367v-83q-7 -11 -82 -20q148 -361 170 -484l7 -44l176 528q-76 9 -83 20v83h318z" />
    <glyph glyph-name="w" unicode="w" horiz-adv-x="1289" 
d="M1254 790v-83q-2 -9 -100 -20l-200 -687h-164l-138 429h-3l-113 -429h-164l-237 687q-98 11 -100 20v83h368v-83q-8 -11 -83 -20q110 -351 137 -474q3 -12 8 -49l170 626h63q146 -467 177 -577q3 -12 7 -49l136 523q-75 9 -82 20v83h318z" />
    <glyph glyph-name="x" unicode="x" horiz-adv-x="919" 
d="M784 103q98 -11 100 -20v-83h-377v83q7 11 82 20l-146 205l-151 -205q75 -9 86 -20v-83h-343v83q15 9 113 20l216 279l-229 305q-98 11 -100 20v83h377v-83q-7 -11 -82 -20l142 -198l142 198q-75 9 -87 20v83h327v-83q-12 -9 -110 -20l-203 -274z" />
    <glyph glyph-name="y" unicode="y" horiz-adv-x="947" 
d="M917 790v-82q-17 -10 -100 -21q-304 -955 -413 -1048q-40 -35 -100 -36q-26 0 -61 10q-56 21 -75 83l37 85q34 -17 88 -17q42 0 78 63q42 73 55 144l-285 716q-109 11 -111 21v82h405v-82q-28 -11 -103 -21l170 -493v-117l193 610q-65 10 -86 21v82h308z" />
    <glyph glyph-name="z" unicode="z" horiz-adv-x="716" 
d="M677 790v-89l-426 -609l287 -5l68 115h75l-41 -202h-605v89l447 609l-276 5l-69 -115h-75l41 202h574z" />
    <glyph glyph-name="braceleft" unicode="{" horiz-adv-x="454" 
d="M50 428l3 -1q74 2 102 87q20 57 20 161q0 18 -1 38q-1 45 -6 114q-7 96 -8 106q-2 33 -2 60q0 65 11 89q34 75 126 78h14q67 0 95 -17l-7 -77q-9 1 -17 1q-30 0 -50 -9q-33 -15 -36 -50v-5q0 -26 14 -117q17 -117 20 -188q1 -15 1 -29q0 -228 -137 -284q137 -55 137 -283
q0 -14 -1 -29q-3 -71 -20 -188q-14 -91 -14 -117v-5q3 -35 36 -50q20 -9 50 -9q8 0 17 1l7 -77q-28 -17 -95 -17h-14q-92 3 -126 78q-11 24 -11 89q0 27 2 60q1 10 8 106q5 69 6 114q1 20 1 38q0 104 -20 161q-28 85 -102 87l-3 -1v85z" />
    <glyph glyph-name="bar" unicode="|" horiz-adv-x="245" 
d="M170 1280v-1670h-120v1670h120z" />
    <glyph glyph-name="braceright" unicode="}" horiz-adv-x="454" 
d="M404 343l-3 1q-74 -2 -102 -87q-20 -57 -20 -161q0 -18 1 -38q1 -45 6 -114q7 -96 8 -106q2 -33 2 -60q0 -65 -11 -89q-34 -75 -126 -78h-14q-67 0 -95 17l7 77q9 -1 17 -1q30 0 50 9q33 15 36 50v5q0 26 -14 117q-17 117 -20 188q-1 15 -1 29q0 228 137 283
q-137 56 -137 284q0 14 1 29q3 71 20 188q14 91 14 117v5q-3 35 -36 50q-20 9 -50 9q-8 0 -17 -1l-7 77q28 17 95 17h14q92 -3 126 -78q11 -24 11 -89q0 -27 -2 -60q-1 -10 -8 -106q-5 -69 -6 -114q-1 -20 -1 -38q0 -104 20 -161q28 -85 102 -87l3 1v-85z" />
    <glyph glyph-name="asciitilde" unicode="~" horiz-adv-x="1015" 
d="M965 646q-6 -55 -30 -111q-48 -113 -141 -123q-24 -2 -48 -2q-49 0 -102 9q-40 7 -148 34q-24 6 -85 23q-51 15 -79 21q-57 13 -99 13q-20 0 -37 -3q-53 -12 -82 -48q-15 -18 -19 -33h-45q6 51 30 106q49 110 141 127q31 6 66 6q40 0 86 -8q46 -7 155 -37q23 -6 87 -24
q51 -15 79 -22q55 -12 95 -12q21 0 38 3q54 11 79 47q12 18 14 34h45z" />
    <glyph glyph-name="exclamdown" unicode="&#xa1;" 
d="M190.012 -333.933q-61.9961 0 -79.9951 86.9951q-12.999 66.9961 -12.999 188.988q19.998 369.978 56.9961 573.965h71.9961q36.9971 -203.987 56.9961 -573.965q0 -121.992 -12.999 -188.988q-17.999 -86.9951 -79.9951 -86.9951zM190.012 789.999
q43.9971 0 74.4951 -30.498t30.498 -74.4951q0 -42.998 -30.498 -73.9961t-74.4951 -30.998q-42.9971 0 -73.9961 30.998q-30.998 30.998 -30.998 73.9961q0 43.9971 30.998 74.4951q30.999 30.498 73.9961 30.498z" />
    <glyph glyph-name="cent" unicode="&#xa2;" horiz-adv-x="649" 
d="M405 195q9 -1 17 -1q70 0 125 49l36 -43q-11 -20 -39 -44q-55 -46 -138 -54q14 -92 14 -108q0 -6 -11 -7q-7 -1 -42 -1q-36 0 -44 1q-10 1 -10 7q0 16 14 109q-122 14 -199 100q-78 90 -78 224q0 137 76 244q79 112 202 135q-15 95 -15 111q0 6 10 7q8 2 44 2q35 0 42 -2
q11 -1 11 -7q0 -15 -14 -106q126 -6 193 -48l-26 -172l-55 12q1 10 1 19q0 15 -10 39q-27 69 -117 69q-88 0 -135 -92q-36 -61 -36 -154q0 -15 1 -30q6 -104 58 -180q49 -73 125 -79z" />
    <glyph glyph-name="sterling" unicode="&#xa3;" horiz-adv-x="782" 
d="M732 220q-16 -128 -64 -181q-49 -53 -152 -53q-41 0 -112 25q-74 27 -95 28q-9 1 -16 1q-42 0 -60 -18q-11 -11 -12 -22h-129q-2 10 -2 22q0 35 13 88q4 14 65 130q50 94 50 192q0 50 -16 104h-152v104h115q-49 124 -49 216q0 88 56 144q63 64 178 64h3q140 0 199 -91
q-1 -75 -42 -116q-15 -15 -42 -15h-9q-26 3 -40 14q-21 18 -25 46q-1 5 -1 16t1 27v9q0 15 -5 25q-11 19 -51 19q-65 0 -78 -57q-4 -15 -4 -31q0 -26 11 -53t48 -101q36 -72 54 -116h184v-104h-154q6 -34 6 -66q0 -20 -2 -38q-10 -94 -133 -286q40 19 89 19q25 0 52 -5
q123 -24 144 -24q39 0 75 27q36 26 50 63z" />
    <glyph glyph-name="currency" unicode="&#xa4;" horiz-adv-x="1000" 
d="M685 256q76 77 76 202t-76 202q-77 76 -185 76q-109 0 -185 -76q-76 -77 -76 -202t76 -202q76 -76 185 -76q108 0 185 76zM819 207q109 -71 129 -91q2 -2 2 -6q0 -5 -5 -10q-8 -10 -43 -44q-34 -36 -44 -43q-5 -5 -10 -5q-4 0 -6 2q-20 20 -93 128q-109 -86 -249 -86
t-251 86q-71 -108 -91 -128q-2 -2 -6 -2q-5 0 -10 5q-11 7 -46 43q-34 34 -41 44q-5 5 -5 10q0 4 2 6q20 20 128 91q-86 111 -86 251t86 251q-108 71 -128 91q-2 2 -2 6q0 5 5 10q7 10 41 44q35 36 46 43q5 5 10 5q4 0 6 -2q20 -20 91 -128q111 86 251 86t249 -86
q73 108 93 128q2 2 6 2q5 0 10 -5q10 -7 44 -43q35 -34 43 -44q5 -5 5 -10q0 -4 -2 -6q-20 -20 -129 -91q87 -111 87 -251t-87 -251z" />
    <glyph glyph-name="yen" unicode="&#xa5;" horiz-adv-x="1010" 
d="M879.475 1050v-82q-1.69922 -10 -101.997 -21l-220.144 -461v-382q99.4473 -11 104.547 -21v-83h-374.839v83q1.7002 10 102.847 21v382l-254.143 461q-100.297 11 -101.997 21v82h371.439v-82q-5.9502 -12 -86.6973 -21l171.694 -367l173.396 367q-80.748 9 -86.6973 21
v82h302.591zM174.999 171.002v79.998h599.991v-79.998h-599.991zM174.999 371.002v79.998h599.991v-79.998h-599.991z" />
    <glyph glyph-name="brokenbar" unicode="&#xa6;" horiz-adv-x="290" 
d="M205 370v-760h-120v760h120zM205 1280v-760h-120v760h120z" />
    <glyph glyph-name="section" unicode="&#xa7;" horiz-adv-x="750" 
d="M179 529q0 -25 7 -49q25 -54 95 -90q41 -20 143 -51q79 -30 124 -54q23 56 23 103q0 26 -7 49q-25 54 -95 90q-41 20 -143 51q-79 30 -124 54q-23 -56 -23 -103zM696 64q0 -145 -102 -230q-90 -74 -215 -74q-133 0 -230 71q-48 35 -71 70q-2 22 -2 41q0 89 48 136
q11 10 29 10q14 0 31 -5q41 -12 55 -35q11 -18 13 -59q1 -56 3 -67q13 -74 110 -74h16q58 2 90 53q26 43 26 102q0 84 -96 149q-32 22 -93 53q-80 40 -98 50q-115 64 -143 143q-17 36 -17 80q0 89 65 211q-61 61 -61 164q0 145 102 230q90 74 215 74q133 0 230 -71
q48 -35 71 -70q2 -22 2 -41q0 -89 -48 -136q-11 -10 -29 -10q-14 0 -31 5q-41 12 -55 35q-11 18 -13 59q-2 56 -3 67q-13 74 -110 74h-16q-58 -2 -90 -53q-26 -43 -26 -102q0 -94 96 -149q32 -22 92 -53q81 -40 99 -50q115 -64 143 -143q17 -36 17 -80q0 -89 -65 -211
q61 -61 61 -164z" />
    <glyph glyph-name="dieresis" unicode="&#xa8;" horiz-adv-x="730" 
d="M204 873q-35 0 -59.5 24.5t-24.5 59.5q0 34 24.5 59t59.5 25q34 0 59 -25t25 -59q0 -35 -25 -59.5t-59 -24.5zM504 873q-35 0 -59.5 24.5t-24.5 59.5q0 34 24.5 59t59.5 25q34 0 59 -25t25 -59q0 -35 -25 -59.5t-59 -24.5z" />
    <glyph glyph-name="copyright" unicode="&#xa9;" horiz-adv-x="1270" 
d="M635 -22q203 0 347 147q144 146 144 350t-144 352t-347 148t-347 -148t-144 -352t144 -350q144 -147 347 -147zM635 1075q249 0 424 -176q176 -175 176 -424t-176 -424q-175 -176 -424 -176t-424 176q-176 175 -176 424t176 424q175 176 424 176zM797 647q1 9 1 19
q0 27 -11 55q-28 74 -125 74q-108 0 -165 -98q-51 -86 -51 -223q0 -129 69 -215q63 -79 150 -86q9 -1 18 -1q87 0 146 63l39 -35q-15 -27 -51 -54q-72 -54 -181 -54q-149 0 -246 97q-98 99 -98 257q0 165 100 287q105 128 261 128q148 0 232 -52l-28 -176z" />
    <glyph glyph-name="ordfeminine" unicode="&#xaa;" horiz-adv-x="576" 
d="M337.007 798.591q-41.5781 10.7998 -89.0967 10.7998q-77.877 -1.80078 -93.0557 -53.3984q-5.28027 -18.5986 -5.28027 -35.3984q0 -29.3984 16.499 -52.1973q23.7598 -32.999 65.998 -32.999q3.95996 0 8.5791 0.599609q54.7783 3.60059 96.3564 35.999v126.595z
M540.938 602.999l-169.613 -40.7988l-27.0586 60.5977q-44.8779 -37.7988 -84.4766 -49.7979q-31.6787 -11.3994 -60.7178 -11.3994h-2.63965q-46.1982 0 -87.1162 20.3994q-73.918 36.5977 -73.918 126.595q0 93.5957 75.8975 129.595q44.2178 20.999 108.235 20.999
q45.5381 0 116.815 -10.7998q0 60.5977 -3.2998 86.9961q-3.2998 26.3994 -19.1396 48.5986q-19.1387 22.7988 -68.6367 25.7988q-65.3379 -1.7998 -65.9971 -31.7988q-0.660156 -29.999 -7.91992 -44.3984t-37.6182 -23.999q-3.95996 -0.599609 -7.25977 -0.599609
q-31.0195 0 -43.5586 30.5986q-13.8594 34.1982 -15.1797 61.1973q57.418 51.5986 169.613 51.5986q134.635 0 186.112 -62.998q31.0186 -39.5986 32.999 -112.195v-214.791l72.5967 -10.7998zM102.5 359v100h375v-100h-375z" />
    <glyph glyph-name="guillemotleft" unicode="&#xab;" horiz-adv-x="668" 
d="M256 404q125 -249 134 -332l-78 -18l-49 80q-57 95 -213 270q156 175 213 270l49 80l78 -18q-9 -83 -134 -332zM522 404q125 -249 134 -332l-78 -18l-49 80q-57 95 -213 270q156 175 213 270l49 80l78 -18q-9 -83 -134 -332z" />
    <glyph glyph-name="logicalnot" unicode="&#xac;" horiz-adv-x="603" 
d="M433 930h-383v120h503v-280h-120v160z" />
    <glyph glyph-name="registered" unicode="&#xae;" horiz-adv-x="1270" 
d="M602 501q85 0 122 35q29 29 29 78q0 7 -1 15q-8 97 -148 97q-32 0 -56 -3v-220q33 -2 54 -2zM897 249q8 0 22 3l4 -72q-30 -18 -79 -18h-2q-60 0 -85 27q-21 23 -71 151q-17 49 -32 72q-20 31 -45 33q-27 1 -61 1v-216q50 -6 55 -11v-49h-244v49q5 5 74 11v497
q-69 6 -74 12v48h267q110 0 176 -38q73 -42 73 -128q0 -73 -54 -114q-44 -33 -120 -43q53 -10 91 -81q12 -23 24 -57q15 -37 17 -41q16 -36 64 -36zM635 -27q203 0 347 149q144 148 144 353t-144 354q-145 151 -347 151t-347 -151q-144 -149 -144 -354t144 -353
q144 -149 347 -149zM635 1075q249 0 424 -176q176 -175 176 -424t-176 -424q-175 -176 -424 -176t-424 176q-176 175 -176 424t176 424q175 176 424 176z" />
    <glyph glyph-name="macron" unicode="&#xaf;" horiz-adv-x="970" 
d="M85 1090v110h800v-110h-800z" />
    <glyph glyph-name="degree" unicode="&#xb0;" horiz-adv-x="470" 
d="M235 1020q-62 0 -106 44t-44 106t44 106t106 44t106 -44t44 -106t-44 -106t-106 -44zM325 1170q0 37 -26.5 63.5t-63.5 26.5t-63.5 -26.5t-26.5 -63.5t26.5 -63.5t63.5 -26.5t63.5 26.5t26.5 63.5z" />
    <glyph glyph-name="plusminus" unicode="&#xb1;" horiz-adv-x="920" 
d="M416 610h-290v135h290v308h150v-308h310v-135h-310v-307h-150v307zM141.001 31v135h720.008v-135h-720.008z" />
    <glyph glyph-name="uni00B2" unicode="&#xb2;" horiz-adv-x="490" 
d="M354.5 710q-8 -62.5 -33.5 -87q-24.5 -30 -77.5 -30q-21 0 -59.5 16q-31 10 -41.5 10.5q-4.5 0.5 -8 0.5q-31 0 -35.5 -18v-2h-65q0 83.5 32 148q22 45.5 69.5 96.5q60 65 69.5 78q31.5 44.5 31.5 92.5q0 29 -13 47q-15 20.5 -43.5 20.5q-31.5 0 -47 -10
q-12.5 -7.5 -12.5 -23.5q-0.5 -15 -0.5 -26v-10l0.5 -21.5q-6 -9.5 -28 -16q-10 -3 -17 -3q-9.5 0 -15 5q-29 29.5 -35.5 89q14 17.5 41 35q54 35.5 112.5 35.5q59 0 97 -22q57 -32.5 57 -110q0 -43.5 -26 -84.5q-17.5 -27.5 -61 -71q-69 -70 -74 -75.5
q-50.5 -57 -61.5 -100.5q25.5 14 55.5 14q10.5 0 21 -1.5q72.5 -12 79.5 -12q16.5 0 30 10.5q15.5 11.5 15.5 28.5z" />
    <glyph glyph-name="uni00B3" unicode="&#xb3;" horiz-adv-x="430" 
d="M306.5 899.5q33 -40.5 33 -106q0 -11 -1 -23q-7 -86.5 -60.5 -135.5q-46.5 -42 -113.5 -42h-8.5q-53 2.5 -97 25.5q-22 11.5 -33.5 22.5q-0.5 8.5 -0.5 16.5q0 45 19.5 69.5q8 10 23.5 10q5.5 0 11.5 -1q24 -4.5 28 -18q1.5 -4.5 1.5 -11.5q0 -5.5 -1 -12.5
q-1 -13.5 -1 -20v-3.5q3 -24.5 49 -24.5q36 0 59 29q21.5 28 24 72q1 14 1 26.5q0 55.5 -18 83q-15.5 24.5 -43.5 24.5q-20 0 -46.5 -12.5l-47 37.5l123 161l4 4q-24.5 -11.5 -48.5 -11.5q-6 0 -12 0.5q-10.5 1 -37 9.5q-4.5 1.5 -8.5 1.5q-15 0 -19.5 -20
q-1.5 -7 -1.5 -14.5q0 -6 1 -12h-37q-4.5 22.5 -6 46.5q-0.5 6 -0.5 11.5q0 37.5 15 44q7 3.5 21.5 3.5q11.5 0 33.5 -4q29 -5 40.5 -6q16 -2 32.5 -2q41.5 0 84 12l26.5 -53l-0.5 -0.5l0.5 -1l-2 -1l-112.5 -143.5q21.5 5.5 40.5 5.5q54 0 84.5 -37z" />
    <glyph glyph-name="acute" unicode="&#xb4;" horiz-adv-x="374" 
d="M35 939q100 273 136 326q5 7 10 8h2q6 0 13 -4q9 -4 68 -46q60 -41 67 -48q8 -7 8 -13v-2q0 -4 -4 -10q-23 -32 -143 -139l-116 -101z" />
    <glyph glyph-name="mu" unicode="&#xb5;" horiz-adv-x="955" 
d="M768 790v-583q0 -111 36 -116q6 -1 11 -1q31 0 66 23l24 -53q-8 -18 -30 -37q-43 -37 -113 -37q-67 0 -108 72q-21 36 -28 72q-75 -144 -240 -144q-40 0 -79 13q-51 16 -72 48v-429h-185v1172h185v-472q1 -212 174 -212q74 0 125 59q48 56 48 129v496h186z" />
    <glyph glyph-name="paragraph" unicode="&#xb6;" horiz-adv-x="886" 
d="M836 947h-55v-1329h-141v1329h-111v-1329h-140v876q-68 4 -95 7q-118 16 -181 84t-63 180q0 145 92 212q99 73 321 73h373v-103z" />
    <glyph glyph-name="periodcentered" unicode="&#xb7;" 
d="M190 286q-44 0 -74.5 30.5t-30.5 74.5q0 43 30.5 74t74.5 31q43 0 74 -31t31 -74q0 -44 -31 -74.5t-74 -30.5z" />
    <glyph glyph-name="periodcentered" unicode="&#x2219;" 
d="M190 286q-44 0 -74.5 30.5t-30.5 74.5q0 43 30.5 74t74.5 31q43 0 74 -31t31 -74q0 -44 -31 -74.5t-74 -30.5z" />
    <glyph glyph-name="cedilla" unicode="&#xb8;" horiz-adv-x="281" 
d="M135 -76q56 -8 79 -41q17 -24 17 -65v-13q-5 -53 -53 -89q-40 -29 -96 -29q-16 0 -32 2v47q11 -1 21 -1q34 0 56 15q29 21 31 55v7q0 33 -16 55q-22 28 -69 28h-6v105h73z" />
    <glyph glyph-name="uni00B9" unicode="&#xb9;" horiz-adv-x="255" 
d="M220 1130v-530h-100l17 446q-41 -58 -82 -72l-30 54q76 46 130 102h65z" />
    <glyph glyph-name="ordmasculine" unicode="&#xba;" horiz-adv-x="588" 
d="M391.124 672.396q27.0596 46.1982 30.3594 104.396q0.660156 7.2002 0.660156 14.4004q0 7.19922 -0.660156 14.3984v5.40039q-4.62012 79.7969 -46.1982 134.994q-36.2988 50.3984 -84.4766 52.7979q-3.95996 0 -7.91992 -0.599609h-1.31934
q-53.458 -2.40039 -87.7764 -60.5977q-26.3994 -44.998 -29.6992 -101.996v-36.5986q4.62012 -79.7969 46.1982 -134.994q36.958 -50.3984 85.1367 -52.7979h6.59961l1.31934 0.599609q54.1182 2.40039 87.7764 60.5977zM296.088 1050.38q128.035 0 197.332 -71.998
q63.3574 -65.3965 63.3574 -173.393q0 -103.195 -74.5762 -173.393q-76.5576 -71.9971 -192.713 -71.9971q-129.354 0 -197.991 71.9971q-62.6982 65.3975 -62.6982 173.393q0 104.996 79.8574 176.393q78.5361 68.998 187.432 68.998zM105.5 359v100h375v-100h-375z" />
    <glyph glyph-name="guillemotright" unicode="&#xbb;" horiz-adv-x="668" 
d="M50 736l78 18l49 -80q57 -95 213 -270q-156 -175 -213 -270l-49 -80l-78 18q9 83 134 332q-125 249 -134 332zM316 736l78 18l49 -80q57 -95 213 -270q-156 -175 -213 -270l-49 -80l-78 18q9 83 134 332q-125 249 -134 332z" />
    <glyph glyph-name="onequarter" unicode="&#xbc;" horiz-adv-x="1010" 
d="M890.526 970.014l-756.021 -952.017h-135.004l756.021 952.017h135.004zM337 1230v-530h-100l17 446q-41 -58 -82 -72l-30 54q76 46 130 102h65zM802 -35h-54.5v-144h-95l6.5 144h-157l-35.5 53v6q0 26 14.5 59q3.5 7.5 38.5 72q57.5 107 57.5 203l90 -43
q0.5 -5.5 0.5 -11.5q0 -72 -47 -152.5q-15 -26.5 -45.5 -69.5q-32 -46 -32.5 -58.5l119 -5l6 129.5h80v-134.5l54.5 -5v-43z" />
    <glyph glyph-name="onehalf" unicode="&#xbd;" horiz-adv-x="1170" 
d="M338 1230v-530h-100l17 446q-41 -58 -82 -72l-30 54q76 46 130 102h65zM890 970l-756 -953h-135l756 953h135zM854 -90q-8 -63 -33 -87q-25 -30 -78 -30q-21 0 -59 16q-31 10 -42 10q-4 1 -8 1q-31 0 -35 -18v-2h-65q0 83 32 148q22 45 69 96q60 65 70 78q31 45 31 93
q0 29 -13 47q-15 20 -43 20q-32 0 -47 -10q-13 -7 -13 -23v-26v-10v-22q-6 -9 -28 -16q-10 -3 -17 -3q-9 0 -15 5q-29 30 -35 89q14 18 41 35q54 36 112 36q59 0 97 -22q57 -33 57 -110q0 -44 -26 -85q-17 -27 -61 -71l-74 -75q-50 -57 -61 -101q25 14 55 14q11 0 21 -1
q73 -12 80 -12q16 0 30 10q15 12 15 29z" />
    <glyph glyph-name="threequarters" unicode="&#xbe;" horiz-adv-x="1010" 
d="M803 -36h-55v-144h-95l7 144h-157l-36 53v6q0 26 15 59q3 7 38 72q58 107 58 203l90 -43v-12q0 -72 -47 -152q-15 -27 -45 -70q-32 -46 -33 -58l119 -5l6 129h80v-134l55 -5v-43zM890 970l-756 -953h-135l756 953h135zM436 1017q33 -40 33 -106q0 -11 -1 -23
q-7 -86 -60 -135q-47 -42 -114 -42h-8q-53 2 -97 25q-22 12 -34 23v16q0 45 19 70q8 10 24 10q5 0 11 -1q24 -5 28 -18q2 -5 2 -12q0 -5 -1 -12q-1 -14 -1 -20v-4q3 -24 49 -24q36 0 59 29q21 28 24 72q1 14 1 26q0 56 -18 83q-16 25 -44 25q-20 0 -46 -13l-47 38l123 161
l4 4q-25 -12 -49 -12q-6 0 -12 1q-10 1 -37 9q-4 2 -8 2q-15 0 -20 -20q-1 -7 -1 -15q0 -6 1 -12h-37q-5 23 -6 47q-1 6 -1 11q0 38 15 44q7 4 22 4q11 0 33 -4q29 -5 41 -6q16 -2 32 -2q42 0 84 12l27 -53l-1 -1l1 -1q-1 0 -2 -1l-113 -143q22 5 41 5q54 0 84 -37z" />
    <glyph glyph-name="questiondown" unicode="&#xbf;" horiz-adv-x="678" 
d="M458.014 516.016q10.999 -60.9961 10.999 -117.992q0 -136.992 -62.9961 -250.985q-12.999 -23.998 -35.998 -61.9961q-26.998 -41.9971 -35.9971 -57.9961q-38.998 -66.9961 -46.998 -122.993q-3.99902 -22.998 -3.99902 -43.9971q0 -31.998 9.99902 -59.9961
q26.998 -48.9971 89.9941 -48.9971h5q60.9961 0 89.9941 22.999q24.999 20.998 24.999 53.9961v3q0 10.999 -1 28.998q-2 22.999 -2 27.999v8.99902q0 24.998 9 34.998q11.999 14.999 28.998 14.999h2q15.999 0 28.998 -13.999q43.9971 -44.9971 65.9961 -122.993
q-16.999 -29.998 -36.998 -50.9961q-95.9941 -92.9951 -246.985 -92.9951q-265.983 0 -265.983 202.988q0 87.9941 46.9971 164.989q17.999 27.999 99.9941 125.992q64.9961 76.9961 89.9941 141.992q32.998 66.9951 32.998 147.99q0 31.998 -5 65.9961h107.994z
M384.018 789.999q43.998 0 74.4961 -30.498t30.498 -74.4951q0 -42.998 -30.498 -73.9961t-74.4961 -30.998q-42.9971 0 -73.9951 30.998t-30.998 73.9961q0 43.9971 30.998 74.4951t73.9951 30.498z" />
    <glyph glyph-name="Agrave" unicode="&#xc0;" horiz-adv-x="1104" 
d="M671 373l-156 540l-154 -540h310zM949 103q118 -11 120 -21v-82h-432v82q7 12 112 21l-53 185h-363l-51 -185q92 -11 101 -21v-82h-348v82q32 16 110 21l266 854q-46 1 -68 11v82h313zM552.396 1127.99l-92.7988 80.7979q-95.998 85.5996 -114.398 111.199
q-3.19922 4.7998 -3.19922 8v1.59961q0 4.7998 6.39941 10.3994q5.59961 5.60059 53.5996 38.3994q47.1992 33.5996 54.3984 36.7998q5.60059 3.2002 10.4004 3.2002h1.59961q4 -0.800781 8 -6.40039q28.7998 -42.3994 108.799 -260.796z" />
    <glyph glyph-name="Aacute" unicode="&#xc1;" horiz-adv-x="1104" 
d="M671 373l-156 540l-154 -540h310zM949 103q118 -11 120 -21v-82h-432v82q7 12 112 21l-53 185h-363l-51 -185q92 -11 101 -21v-82h-348v82q32 16 110 21l266 854q-46 1 -68 11v82h313zM464 1151.19q79.998 218.396 108.798 260.796q4 5.59961 8 6.40039h1.59961
q4.7998 0 10.4004 -3.2002q7.19922 -3.2002 54.3994 -36.7998q47.999 -32.7988 53.5986 -38.3994q6.40039 -5.59961 6.40039 -10.3994v-1.59961q0 -3.2002 -3.2002 -8q-18.4004 -25.5996 -114.398 -111.199l-92.7988 -80.7979z" />
    <glyph glyph-name="Acircumflex" unicode="&#xc2;" horiz-adv-x="1104" 
d="M671 373l-156 540l-154 -540h310zM949 103q118 -11 120 -21v-82h-432v82q7 12 112 21l-53 185h-363l-51 -185q92 -11 101 -21v-82h-348v82q32 16 110 21l266 854q-46 1 -68 11v82h313zM630 1110q-68 114 -101 178q-32 -64 -100 -178h-96l59 86q64 104 116 164h42
q76 -95 181 -250h-101z" />
    <glyph glyph-name="Atilde" unicode="&#xc3;" horiz-adv-x="1104" 
d="M671 373l-156 540l-154 -540h310zM949 103q118 -11 120 -21v-82h-432v82q7 12 112 21l-53 185h-363l-51 -185q92 -11 101 -21v-82h-348v82q32 16 110 21l266 854q-46 1 -68 11v82h313zM821 1269q-4 -33 -18 -65q-28 -67 -83 -73q-14 -1 -28 -1q-29 0 -60 5q-23 4 -87 20
l-50 14q-30 9 -46 12q-34 8 -58 8q-12 0 -22 -2q-31 -7 -48 -28q-9 -11 -12 -20h-26q4 30 18 63q28 64 83 74q18 4 38 4q24 0 51 -5q27 -4 91 -21l51 -15q30 -8 47 -13q32 -7 56 -7q12 0 22 2q32 7 46 28q7 10 9 20h26z" />
    <glyph glyph-name="Adieresis" unicode="&#xc4;" horiz-adv-x="1104" 
d="M671 373l-156 540l-154 -540h310zM949 103q118 -11 120 -21v-82h-432v82q7 12 112 21l-53 185h-363l-51 -185q92 -11 101 -21v-82h-348v82q32 16 110 21l266 854q-46 1 -68 11v82h313zM372 1133q-35 0 -59.5 24.5t-24.5 59.5q0 34 24.5 59t59.5 25q34 0 59 -25t25 -59
q0 -35 -25 -59.5t-59 -24.5zM672 1133q-35 0 -59.5 24.5t-24.5 59.5q0 34 24.5 59t59.5 25q34 0 59 -25t25 -59q0 -35 -25 -59.5t-59 -24.5z" />
    <glyph glyph-name="Aring" unicode="&#xc5;" horiz-adv-x="1104" 
d="M671 373l-156 540l-154 -540h310zM949 103q118 -11 120 -21v-82h-432v82q7 12 112 21l-53 185h-363l-51 -185q92 -11 101 -21v-82h-348v82q32 16 110 21l266 854q-46 1 -68 11v82h313zM532 995q-61 0 -105.5 44.5t-44.5 105.5q0 62 44.5 106t105.5 44q62 0 106 -44
t44 -106q0 -61 -44 -105.5t-106 -44.5zM622 1145q0 38 -26 64t-64 26q-37 0 -63.5 -26t-26.5 -64q0 -37 26.5 -63.5t63.5 -26.5q38 0 64 26.5t26 63.5z" />
    <glyph glyph-name="AE" unicode="&#xc6;" horiz-adv-x="1395" 
d="M671 373l-156 540l-154 -540h310zM819 492l119 -382l3 -7l276 -6l68 125h75l-41 -222h-682v83h1q12 11 111 20l-53 185h-363l-51 -185q92 -11 101 -21v-82h-348v82q32 16 110 21l266 854q-46 1 -68 11v82h801l41 -222h-75l-68 125l-361 -13l112 -365h220q7 42 15 64
q4 11 6 11h46v-230h-46q-11 20 -21 75z" />
    <glyph glyph-name="Ccedilla" unicode="&#xc7;" horiz-adv-x="917" 
d="M554 971q-151 0 -231 -136q-72 -121 -72 -313q0 -182 98 -303q88 -110 210 -119q13 -1 26 -1q121 0 203 88l55 -49q-20 -38 -71 -76q-101 -76 -254 -76q-209 0 -345 136q-138 139 -138 360q0 232 140 403q148 179 368 179q99 0 202 -27q83 -22 122 -46l-39 -246l-84 19
q2 13 2 27q0 38 -15 77q-41 103 -177 103zM536 -76q56 -8 79 -41q17 -24 17 -65v-13q-5 -53 -53 -89q-40 -29 -96 -29q-16 0 -32 2v47q11 -1 21 -1q34 0 56 15q29 21 31 55v7q0 33 -16 55q-22 28 -69 28h-6v105h73z" />
    <glyph glyph-name="Egrave" unicode="&#xc8;" horiz-adv-x="896" 
d="M396 491v-381l324 -13l68 125h75l-41 -222h-772v83q32 9 150 20v847q-118 11 -150 21v79h762l41 -222h-75l-68 125l-314 -13v-365h247q7 42 15 64q4 11 6 11h46v-230h-46q-11 20 -21 75zM452.396 1127.99l-92.7988 80.7979q-95.998 85.5996 -114.398 111.199
q-3.19922 4.7998 -3.19922 8v1.59961q0 4.7998 6.39941 10.3994q5.59961 5.60059 53.5996 38.3994q47.1992 33.5996 54.3984 36.7998q5.60059 3.2002 10.4004 3.2002h1.59961q4 -0.800781 8 -6.40039q28.7998 -42.3994 108.799 -260.796z" />
    <glyph glyph-name="Eacute" unicode="&#xc9;" horiz-adv-x="897" 
d="M395 491v-381l324 -13l68 125h75l-41 -222h-772v83q32 9 150 20v847q-118 11 -150 21v79h762l41 -222h-75l-68 125l-314 -13v-365h247q7 42 15 64q4 11 6 11h46v-230h-46q-11 20 -21 75zM421 1151.19q79.998 218.396 108.798 260.796q4 5.59961 8 6.40039h1.59961
q4.7998 0 10.4004 -3.2002q7.19922 -3.2002 54.3994 -36.7998q47.999 -32.7988 53.5986 -38.3994q6.40039 -5.59961 6.40039 -10.3994v-1.59961q0 -3.2002 -3.2002 -8q-18.4004 -25.5996 -114.398 -111.199l-92.7988 -80.7979z" />
    <glyph glyph-name="Ecircumflex" unicode="&#xca;" horiz-adv-x="898" 
d="M396 491v-381l324 -13l68 125h75l-41 -222h-772v83q32 9 150 20v847q-118 11 -150 21v79h762l41 -222h-75l-68 125l-314 -13v-365h247q7 42 15 64q4 11 6 11h46v-230h-46q-11 20 -21 75zM555 1110q-68 114 -101 178q-32 -64 -100 -178h-96l59 86q64 104 116 164h42
q76 -95 181 -250h-101z" />
    <glyph glyph-name="Edieresis" unicode="&#xcb;" horiz-adv-x="888" 
d="M396 491v-381l324 -13l68 125h75l-41 -222h-772v83q32 9 150 20v847q-118 11 -150 21v79h762l41 -222h-75l-68 125l-314 -13v-365h247q7 42 15 64q4 11 6 11h46v-230h-46q-11 20 -21 75zM302 1133q-35 0 -59.5 24.5t-24.5 59.5q0 34 24.5 59t59.5 25q34 0 59 -25t25 -59
q0 -35 -25 -59.5t-59 -24.5zM602 1133q-35 0 -59.5 24.5t-24.5 59.5q0 34 24.5 59t59.5 25q34 0 59 -25t25 -59q0 -35 -25 -59.5t-59 -24.5z" />
    <glyph glyph-name="Igrave" unicode="&#xcc;" horiz-adv-x="562" 
d="M372 947v-844q118 -5 150 -21v-82h-472v82q8 10 136 21v844q-128 11 -136 21v82h472v-82q-32 -16 -150 -21zM331.396 1127.99l-92.7988 80.7979q-95.998 85.5996 -114.398 111.199q-3.19922 4.7998 -3.19922 8v1.59961q0 4.7998 6.39941 10.3994
q5.59961 5.60059 53.5996 38.3994q47.1992 33.5996 54.3984 36.7998q5.60059 3.2002 10.4004 3.2002h1.59961q4 -0.800781 8 -6.40039q28.7998 -42.3994 108.799 -260.796z" />
    <glyph glyph-name="Iacute" unicode="&#xcd;" horiz-adv-x="562" 
d="M372 947v-844q118 -5 150 -21v-82h-472v82q8 10 136 21v844q-128 11 -136 21v82h472v-82q-32 -16 -150 -21zM213 1151.19q79.998 218.396 108.798 260.796q4 5.59961 8 6.40039h1.59961q4.7998 0 10.4004 -3.2002q7.19922 -3.2002 54.3994 -36.7998
q47.999 -32.7988 53.5986 -38.3994q6.40039 -5.59961 6.40039 -10.3994v-1.59961q0 -3.2002 -3.2002 -8q-18.4004 -25.5996 -114.398 -111.199l-92.7988 -80.7979z" />
    <glyph glyph-name="Icircumflex" unicode="&#xce;" horiz-adv-x="562" 
d="M372 947v-844q118 -5 150 -21v-82h-472v82q8 10 136 21v844q-128 11 -136 21v82h472v-82q-32 -16 -150 -21zM384 1110q-68 114 -101 178q-32 -64 -100 -178h-96l59 86q64 104 116 164h42q76 -95 181 -250h-101z" />
    <glyph glyph-name="Idieresis" unicode="&#xcf;" horiz-adv-x="562" 
d="M372 947v-844q118 -5 150 -21v-82h-472v82q8 10 136 21v844q-128 11 -136 21v82h472v-82q-32 -16 -150 -21zM131 1133q-35 0 -59.5 24.5t-24.5 59.5q0 34 24.5 59t59.5 25q34 0 59 -25t25 -59q0 -35 -25 -59.5t-59 -24.5zM431 1133q-35 0 -59.5 24.5t-24.5 59.5
q0 34 24.5 59t59.5 25q34 0 59 -25t25 -59q0 -35 -25 -59.5t-59 -24.5z" />
    <glyph glyph-name="Eth" unicode="&#xd0;" horiz-adv-x="1101" 
d="M565 100q116 0 201 113q87 127 87 309q0 187 -71 305q-81 123 -232 123h-169v-850h184zM560 1050q223 0 366 -156q139 -151 139 -374q0 -217 -142 -368q-142 -152 -348 -152h-526v82q8 10 136 21v844q-128 11 -136 21v82h511zM32.999 525v100h599.991v-100h-599.991z" />
    <glyph glyph-name="Ntilde" unicode="&#xd1;" horiz-adv-x="1165" 
d="M371 1050l456 -742q14 -22 27 -82v721q-121 11 -127 20v83h388v-83q-2 -9 -120 -20v-947h-201q-352 552 -461 746q-9 15 -22 66v-709q127 -12 133 -20v-83h-394v83q2 9 120 20v817q-118 38 -120 47v83h321zM852 1269q-4 -33 -18 -65q-28 -67 -83 -73q-14 -1 -28 -1
q-29 0 -60 5q-23 4 -87 20l-50 14q-30 9 -46 12q-34 8 -58 8q-12 0 -22 -2q-31 -7 -48 -28q-9 -11 -12 -20h-26q4 30 18 63q28 64 83 74q18 4 38 4q24 0 51 -5q27 -4 91 -21l51 -15q30 -8 47 -13q32 -7 56 -7q12 0 22 2q32 7 46 28q7 10 9 20h26z" />
    <glyph glyph-name="Ograve" unicode="&#xd2;" horiz-adv-x="1065" 
d="M748 224q74 119 74 280v26q-7 187 -96 309q-87 119 -201 119h-8q-119 -4 -198 -132q-73 -119 -73 -289v-27q6 -177 95 -299q87 -119 201 -119h8q119 4 198 132zM534 1064q205 0 353 -146q149 -157 149 -388q0 -221 -149 -388q-148 -156 -353 -156q-206 0 -354 146
q-149 157 -149 377q0 232 149 399q148 156 354 156zM533.396 1127.99l-92.7988 80.7979q-95.998 85.5996 -114.398 111.199q-3.19922 4.7998 -3.19922 8v1.59961q0 4.7998 6.39941 10.3994q5.59961 5.60059 53.5996 38.3994q47.1992 33.5996 54.3984 36.7998
q5.60059 3.2002 10.4004 3.2002h1.59961q4 -0.800781 8 -6.40039q28.7998 -42.3994 108.799 -260.796z" />
    <glyph glyph-name="Oacute" unicode="&#xd3;" horiz-adv-x="1065" 
d="M748 224q74 119 74 280v26q-7 187 -96 309q-87 119 -201 119h-8q-119 -4 -198 -132q-73 -119 -73 -289v-27q6 -177 95 -299q87 -119 201 -119h8q119 4 198 132zM534 1064q205 0 353 -146q149 -157 149 -388q0 -221 -149 -388q-148 -156 -353 -156q-206 0 -354 146
q-149 157 -149 377q0 232 149 399q148 156 354 156zM524 1151.19q79.998 218.396 108.798 260.796q4 5.59961 8 6.40039h1.59961q4.7998 0 10.4004 -3.2002q7.19922 -3.2002 54.3994 -36.7998q47.999 -32.7988 53.5986 -38.3994q6.40039 -5.59961 6.40039 -10.3994v-1.59961
q0 -3.2002 -3.2002 -8q-18.4004 -25.5996 -114.398 -111.199l-92.7988 -80.7979z" />
    <glyph glyph-name="Ocircumflex" unicode="&#xd4;" horiz-adv-x="1065" 
d="M748 224q74 119 74 280v26q-7 187 -96 309q-87 119 -201 119h-8q-119 -4 -198 -132q-73 -119 -73 -289v-27q6 -177 95 -299q87 -119 201 -119h8q119 4 198 132zM534 1064q205 0 353 -146q149 -157 149 -388q0 -221 -149 -388q-148 -156 -353 -156q-206 0 -354 146
q-149 157 -149 377q0 232 149 399q148 156 354 156zM631 1110q-68 114 -101 178q-32 -64 -100 -178h-96l59 86q64 104 116 164h42q76 -95 181 -250h-101z" />
    <glyph glyph-name="Otilde" unicode="&#xd5;" horiz-adv-x="1105" 
d="M767 224q74 119 74 280v26q-7 187 -96 309q-87 119 -201 119h-8q-119 -4 -198 -132q-73 -119 -73 -289v-27q6 -177 95 -299q87 -119 201 -119h8q119 4 198 132zM553 1064q205 0 353 -146q149 -157 149 -388q0 -221 -149 -388q-148 -156 -353 -156q-206 0 -354 146
q-149 157 -149 377q0 232 149 399q148 156 354 156zM832 1289q-4 -33 -18 -65q-28 -67 -83 -73q-14 -1 -28 -1q-29 0 -60 5q-23 4 -87 20l-50 14q-30 9 -46 12q-34 8 -58 8q-12 0 -22 -2q-31 -7 -48 -28q-9 -11 -12 -20h-26q4 30 18 63q28 64 83 74q18 4 38 4q24 0 51 -5
q27 -4 91 -21l51 -15q30 -8 47 -13q32 -7 56 -7q12 0 22 2q32 7 46 28q7 10 9 20h26z" />
    <glyph glyph-name="Odieresis" unicode="&#xd6;" horiz-adv-x="1065" 
d="M747 224q74 119 74 280v26q-7 187 -96 309q-87 119 -201 119h-8q-119 -4 -198 -132q-73 -119 -73 -289v-27q6 -177 95 -299q87 -119 201 -119h8q119 4 198 132zM533 1064q205 0 353 -146q149 -157 149 -388q0 -221 -149 -388q-148 -156 -353 -156q-206 0 -354 146
q-149 157 -149 377q0 232 149 399q148 156 354 156zM383 1133q-35 0 -59.5 24.5t-24.5 59.5q0 34 24.5 59t59.5 25q34 0 59 -25t25 -59q0 -35 -25 -59.5t-59 -24.5zM683 1133q-35 0 -59.5 24.5t-24.5 59.5q0 34 24.5 59t59.5 25q34 0 59 -25t25 -59q0 -35 -25 -59.5
t-59 -24.5z" />
    <glyph glyph-name="multiply" unicode="&#xd7;" horiz-adv-x="772" 
d="M289 410l-204 194l107 107l194 -204l194 204l107 -107l-204 -194l204 -194l-107 -107l-194 204l-194 -204l-107 107z" />
    <glyph glyph-name="Oslash" unicode="&#xd8;" horiz-adv-x="1074" 
d="M748 224q74 119 74 280v26q-7 187 -96 309q-87 119 -201 119h-8q-119 -4 -198 -132q-73 -119 -73 -289v-27q6 -177 95 -299q87 -119 201 -119h8q119 4 198 132zM534 1064q205 0 353 -146q149 -157 149 -388q0 -221 -149 -388q-148 -156 -353 -156q-206 0 -354 146
q-149 157 -149 377q0 232 149 399q148 156 354 156zM808 1210l-380 -1360h-150l380 1360h150z" />
    <glyph glyph-name="Ugrave" unicode="&#xd9;" horiz-adv-x="1108" 
d="M1069 1050v-83q-2 -9 -120 -20v-592q0 -369 -400 -369q-202 0 -295 86q-94 88 -94 282v593q-118 11 -120 21v82h425v-82q-8 -12 -103 -21v-583q0 -146 49 -208q51 -64 172 -64t182 71q51 70 52 214v570q-121 11 -127 20v83h379zM555.396 1127.99l-92.7988 80.7979
q-95.998 85.5996 -114.398 111.199q-3.19922 4.7998 -3.19922 8v1.59961q0 4.7998 6.39941 10.3994q5.59961 5.60059 53.5996 38.3994q47.1992 33.5996 54.3984 36.7998q5.60059 3.2002 10.4004 3.2002h1.59961q4 -0.800781 8 -6.40039q28.7998 -42.3994 108.799 -260.796z
" />
    <glyph glyph-name="Uacute" unicode="&#xda;" horiz-adv-x="1108" 
d="M1069 1050v-83q-2 -9 -120 -20v-592q0 -369 -400 -369q-202 0 -295 86q-94 88 -94 282v593q-118 11 -120 21v82h425v-82q-8 -12 -103 -21v-583q0 -146 49 -208q51 -64 172 -64t182 71q51 70 52 214v570q-121 11 -127 20v83h379zM506 1151.19
q79.998 218.396 108.798 260.796q4 5.59961 8 6.40039h1.59961q4.7998 0 10.4004 -3.2002q7.19922 -3.2002 54.3994 -36.7998q47.999 -32.7988 53.5986 -38.3994q6.40039 -5.59961 6.40039 -10.3994v-1.59961q0 -3.2002 -3.2002 -8q-18.4004 -25.5996 -114.398 -111.199
l-92.7988 -80.7979z" />
    <glyph glyph-name="Ucircumflex" unicode="&#xdb;" horiz-adv-x="1108" 
d="M1069 1050v-83q-2 -9 -120 -20v-592q0 -369 -400 -369q-202 0 -295 86q-94 88 -94 282v593q-118 11 -120 21v82h425v-82q-8 -12 -103 -21v-583q0 -146 49 -208q51 -64 172 -64t182 71q51 70 52 214v570q-121 11 -127 20v83h379zM653 1110q-68 114 -101 178
q-32 -64 -100 -178h-96l59 86q64 104 116 164h42q76 -95 181 -250h-101z" />
    <glyph glyph-name="Udieresis" unicode="&#xdc;" horiz-adv-x="1108" 
d="M1069 1050v-83q-2 -9 -120 -20v-592q0 -369 -400 -369q-202 0 -295 86q-94 88 -94 282v593q-118 11 -120 21v82h425v-82q-8 -12 -103 -21v-583q0 -146 49 -208q51 -64 172 -64t182 71q51 70 52 214v570q-121 11 -127 20v83h379zM405 1133q-35 0 -59.5 24.5t-24.5 59.5
q0 34 24.5 59t59.5 25q34 0 59 -25t25 -59q0 -35 -25 -59.5t-59 -24.5zM705 1133q-35 0 -59.5 24.5t-24.5 59.5q0 34 24.5 59t59.5 25q34 0 59 -25t25 -59q0 -35 -25 -59.5t-59 -24.5z" />
    <glyph glyph-name="Yacute" unicode="&#xdd;" horiz-adv-x="1065" 
d="M1030 1050v-82q-2 -10 -120 -21l-259 -461v-382q117 -11 123 -21v-83h-441v83q2 10 121 21v382l-299 461q-118 11 -120 21v82h437v-82q-7 -12 -102 -21l202 -367l204 367q-95 9 -102 21v82h356zM514 1151.19q79.998 218.396 108.798 260.796q4 5.59961 8 6.40039h1.59961
q4.7998 0 10.4004 -3.2002q7.19922 -3.2002 54.3994 -36.7998q47.999 -32.7988 53.5986 -38.3994q6.40039 -5.59961 6.40039 -10.3994v-1.59961q0 -3.2002 -3.2002 -8q-18.4004 -25.5996 -114.398 -111.199l-92.7988 -80.7979z" />
    <glyph glyph-name="Thorn" unicode="&#xde;" horiz-adv-x="922" 
d="M186 957q-128 11 -136 21v72h472v-72q-32 -16 -150 -21v-117l147 10q214 0 294 -85q74 -77 74 -219q0 -152 -110 -243q-93 -68 -243 -74q-23 -1 -44 -1q-63 0 -118 12v-137q135 -11 143 -21v-82h-465v82q8 10 137 21zM372 357q39 -27 107 -27q129 0 182 60q45 51 45 163
q0 83 -48 141q-48 56 -129 65q-32 3 -60 3h-14q-38 0 -83 -6v-399z" />
    <glyph glyph-name="germandbls" unicode="&#xdf;" horiz-adv-x="786" 
d="M502 540q0 -22 36 -42q11 -6 36 -18l43 -21q116 -62 123 -165q1 -13 1 -26q0 -147 -120 -214q-94 -54 -253 -54v79q112 20 151 69q30 38 30 113q0 13 -1 27q-5 77 -82 139q-43 34 -52 44q-24 26 -24 56q0 56 81 128q86 77 95 135q2 15 2 30q0 48 -22 91q-37 68 -119 68
q-10 0 -20 -1q-70 -6 -108 -75q-50 -91 -50 -299v-604h-199v602q0 232 113 354q92 100 238 107q16 1 30 1q166 0 238 -93q48 -63 48 -157q0 -96 -107 -175l-40 -27q-23 -16 -34 -25q-34 -26 -34 -47z" />
    <glyph glyph-name="agrave" unicode="&#xe0;" horiz-adv-x="836" 
d="M493 381q-63 18 -135 18q-118 -3 -141 -89q-8 -31 -8 -59q0 -49 25 -87q36 -55 100 -55q6 0 13 1q83 6 146 60v211zM802 55l-257 -68l-41 101q-68 -63 -128 -83q-48 -19 -92 -19h-4q-70 0 -132 34q-112 61 -112 211q0 156 115 216q67 35 164 35q69 0 177 -18
q0 101 -5 145t-29 81q-29 38 -104 43q-99 -3 -100 -53t-12 -74t-57 -40q-6 -1 -11 -1q-47 0 -66 51q-21 57 -23 102q87 86 257 86q204 0 282 -105q47 -66 50 -187v-358l110 -18zM358.396 927.989l-92.7988 80.7988q-95.998 85.5986 -114.398 111.198
q-3.19922 4.7998 -3.19922 8v1.59961q0 4.7998 6.39941 10.3994q5.59961 5.60059 53.5996 38.3994q47.1992 33.5996 54.3984 36.7998q5.60059 3.2002 10.4004 3.2002h1.59961q4 -0.800781 8 -6.40039q28.7998 -42.3994 108.799 -260.796z" />
    <glyph glyph-name="aacute" unicode="&#xe1;" horiz-adv-x="836" 
d="M493 381q-63 18 -135 18q-118 -3 -141 -89q-8 -31 -8 -59q0 -49 25 -87q36 -55 100 -55q6 0 13 1q83 6 146 60v211zM802 55l-257 -68l-41 101q-68 -63 -128 -83q-48 -19 -92 -19h-4q-70 0 -132 34q-112 61 -112 211q0 156 115 216q67 35 164 35q69 0 177 -18
q0 101 -5 145t-29 81q-29 38 -104 43q-99 -3 -100 -53t-12 -74t-57 -40q-6 -1 -11 -1q-47 0 -66 51q-21 57 -23 102q87 86 257 86q204 0 282 -105q47 -66 50 -187v-358l110 -18zM330 951.188q79.998 218.396 108.798 260.796q4 5.59961 8 6.40039h1.59961
q4.7998 0 10.4004 -3.2002q7.19922 -3.2002 54.3994 -36.7998q47.999 -32.7988 53.5986 -38.3994q6.40039 -5.59961 6.40039 -10.3994v-1.59961q0 -3.2002 -3.2002 -8q-18.4004 -25.5996 -114.398 -111.198l-92.7988 -80.7988z" />
    <glyph glyph-name="acircumflex" unicode="&#xe2;" horiz-adv-x="836" 
d="M493 381q-63 18 -135 18q-118 -3 -141 -89q-8 -31 -8 -59q0 -49 25 -87q36 -55 100 -55q6 0 13 1q83 6 146 60v211zM802 55l-257 -68l-41 101q-68 -63 -128 -83q-48 -19 -92 -19h-4q-70 0 -132 34q-112 61 -112 211q0 156 115 216q67 35 164 35q69 0 177 -18
q0 101 -5 145t-29 81q-29 38 -104 43q-99 -3 -100 -53t-12 -74t-57 -40q-6 -1 -11 -1q-47 0 -66 51q-21 57 -23 102q87 86 257 86q204 0 282 -105q47 -66 50 -187v-358l110 -18zM466 850q-68 114 -101 178q-32 -64 -100 -178h-96l59 86q64 104 116 164h42q76 -95 181 -250
h-101z" />
    <glyph glyph-name="atilde" unicode="&#xe3;" horiz-adv-x="836" 
d="M493 381q-63 18 -135 18q-118 -3 -141 -89q-8 -31 -8 -59q0 -49 25 -87q36 -55 100 -55q6 0 13 1q83 6 146 60v211zM802 55l-257 -68l-41 101q-68 -63 -128 -83q-48 -19 -92 -19h-4q-70 0 -132 34q-112 61 -112 211q0 156 115 216q67 35 164 35q69 0 177 -18
q0 101 -5 145t-29 81q-29 38 -104 43q-99 -3 -100 -53t-12 -74t-57 -40q-6 -1 -11 -1q-47 0 -66 51q-21 57 -23 102q87 86 257 86q204 0 282 -105q47 -66 50 -187v-358l110 -18zM647 1029q-4 -33 -18 -65q-28 -67 -83 -73q-14 -1 -28 -1q-29 0 -60 5q-23 4 -87 20l-50 14
q-30 9 -46 12q-34 8 -58 8q-12 0 -22 -2q-31 -7 -48 -28q-9 -11 -12 -20h-26q4 30 18 63q28 64 83 74q18 4 38 4q24 0 51 -5q27 -4 91 -21l51 -15q30 -8 47 -13q32 -7 56 -7q12 0 22 2q32 7 46 28q7 10 9 20h26z" />
    <glyph glyph-name="adieresis" unicode="&#xe4;" horiz-adv-x="836" 
d="M492 381q-63 18 -135 18q-118 -3 -141 -89q-8 -31 -8 -59q0 -49 25 -87q36 -55 100 -55q6 0 13 1q83 6 146 60v211zM801 55l-257 -68l-41 101q-68 -63 -128 -83q-48 -19 -92 -19h-4q-70 0 -132 34q-112 61 -112 211q0 156 115 216q67 35 164 35q69 0 177 -18
q0 101 -5 145t-29 81q-29 38 -104 43q-99 -3 -100 -53t-12 -74t-57 -40q-6 -1 -11 -1q-47 0 -66 51q-21 57 -23 102q87 86 257 86q204 0 282 -105q47 -66 50 -187v-358l110 -18zM218 873q-35 0 -59.5 24.5t-24.5 59.5q0 34 24.5 59t59.5 25q34 0 59 -25t25 -59
q0 -35 -25 -59.5t-59 -24.5zM518 873q-35 0 -59.5 24.5t-24.5 59.5q0 34 24.5 59t59.5 25q34 0 59 -25t25 -59q0 -35 -25 -59.5t-59 -24.5z" />
    <glyph glyph-name="aring" unicode="&#xe5;" horiz-adv-x="836" 
d="M493 381q-63 18 -135 18q-118 -3 -141 -89q-8 -31 -8 -59q0 -49 25 -87q36 -55 100 -55q6 0 13 1q83 6 146 60v211zM802 55l-257 -68l-41 101q-68 -63 -128 -83q-48 -19 -92 -19h-4q-70 0 -132 34q-112 61 -112 211q0 156 115 216q67 35 164 35q69 0 177 -18
q0 101 -5 145t-29 81q-29 38 -104 43q-99 -3 -100 -53t-12 -74t-57 -40q-6 -1 -11 -1q-47 0 -66 51q-21 57 -23 102q87 86 257 86q204 0 282 -105q47 -66 50 -187v-358l110 -18zM398 906q-61 0 -105.5 44.5t-44.5 105.5q0 62 44.5 106t105.5 44q62 0 106 -44t44 -106
q0 -61 -44 -105.5t-106 -44.5zM488 1056q0 38 -26 64t-64 26q-37 0 -63.5 -26t-26.5 -64q0 -37 26.5 -63.5t63.5 -26.5q38 0 64 26.5t26 63.5z" />
    <glyph glyph-name="ae" unicode="&#xe6;" horiz-adv-x="1281" 
d="M527 381q-63 18 -135 18q-118 -3 -141 -89q-8 -31 -8 -59q0 -49 25 -87q36 -55 100 -55q6 0 13 1q83 6 170 70zM894 734q-55 0 -100 -56q-47 -58 -59 -165h306q-10 104 -47 163q-37 58 -100 58zM431 4q-46 -18 -107 -18h-10q-70 0 -132 34q-112 61 -112 211
q0 156 115 216q67 35 164 35q69 0 177 -18q0 101 -5 145.5t-29 81.5q-29 38 -104 43q-99 -3 -100 -48.5t-7 -74.5t-62 -45q-6 -1 -11 -1q-47 0 -66 51q-21 57 -23 102q87 86 257 86q198 0 277 -103q93 92 221 102q17 1 33 1q131 0 215 -80q86 -94 96 -290h-489v-39
q0 -150 57 -235q51 -77 136 -86q19 -2 37 -2q115 0 190 89l45 -42q-47 -64 -97 -92q-72 -41 -180 -41q-20 0 -41 1q-168 11 -270 107q-84 -56 -175 -90z" />
    <glyph glyph-name="ccedilla" unicode="&#xe7;" horiz-adv-x="700" 
d="M657 101q-15 -29 -53 -57q-77 -58 -193 -58q-177 1 -281 103q-95 106 -95 273q8 186 114 316q116 126 281 126q63 0 124 -22q75 -27 107 -76q4 -21 4 -39q0 -54 -33 -90q-16 -16 -47 -17h-3q-30 0 -48 16q-22 20 -32 51q-1 6 -10 52q-5 28 -17 40q-15 16 -51 16
q-79 0 -134 -105q-53 -98 -53 -228v-10q3 -133 61 -223t144 -96q11 -1 21 -1q48 0 82 19q26 15 63 54zM415 -76q56 -8 79 -41q17 -24 17 -65v-13q-5 -53 -53 -89q-40 -29 -96 -29q-16 0 -32 2v47q11 -1 21 -1q34 0 56 15q29 21 31 55v7q0 33 -16 55q-22 28 -69 28h-6v105h73
z" />
    <glyph glyph-name="egrave" unicode="&#xe8;" horiz-adv-x="752" 
d="M398 734q-55 0 -100 -56q-47 -58 -59 -165h306q-10 104 -47 163q-37 58 -100 58zM426 74q19 -2 37 -2q115 0 190 89l45 -42q-47 -64 -97 -92q-72 -41 -180 -41q-20 0 -41 1q-168 11 -258 107q-91 98 -91 265q-1 17 -1 34q10 151 91 267q103 131 257 143q17 1 33 1
q131 0 215 -80q86 -94 96 -290h-489v-39q0 -150 57 -235q51 -77 136 -86zM426.396 927.989l-92.7988 80.7988q-95.998 85.5986 -114.398 111.198q-3.19922 4.7998 -3.19922 8v1.59961q0 4.7998 6.39941 10.3994q5.59961 5.60059 53.5996 38.3994
q47.1992 33.5996 54.3984 36.7998q5.60059 3.2002 10.4004 3.2002h1.59961q4 -0.800781 8 -6.40039q28.7998 -42.3994 108.799 -260.796z" />
    <glyph glyph-name="eacute" unicode="&#xe9;" horiz-adv-x="752" 
d="M398 734q-55 0 -100 -56q-47 -58 -59 -165h306q-10 104 -47 163q-37 58 -100 58zM426 74q19 -2 37 -2q115 0 190 89l45 -42q-47 -64 -97 -92q-72 -41 -180 -41q-20 0 -41 1q-168 11 -258 107q-91 98 -91 265q-1 17 -1 34q10 151 91 267q103 131 257 143q17 1 33 1
q131 0 215 -80q86 -94 96 -290h-489v-39q0 -150 57 -235q51 -77 136 -86zM378 951.188q79.998 218.396 108.798 260.796q4 5.59961 8 6.40039h1.59961q4.7998 0 10.4004 -3.2002q7.19922 -3.2002 54.3994 -36.7998q47.999 -32.7988 53.5986 -38.3994
q6.40039 -5.59961 6.40039 -10.3994v-1.59961q0 -3.2002 -3.2002 -8q-18.4004 -25.5996 -114.398 -111.198l-92.7988 -80.7988z" />
    <glyph glyph-name="ecircumflex" unicode="&#xea;" horiz-adv-x="752" 
d="M398 734q-55 0 -100 -56q-47 -58 -59 -165h306q-10 104 -47 163q-37 58 -100 58zM426 74q19 -2 37 -2q115 0 190 89l45 -42q-47 -64 -97 -92q-72 -41 -180 -41q-20 0 -41 1q-168 11 -258 107q-91 98 -91 265q-1 17 -1 34q10 151 91 267q103 131 257 143q17 1 33 1
q131 0 215 -80q86 -94 96 -290h-489v-39q0 -150 57 -235q51 -77 136 -86zM474 850q-68 114 -101 178q-32 -64 -100 -178h-96l59 86q64 104 116 164h42q76 -95 181 -250h-101z" />
    <glyph glyph-name="edieresis" unicode="&#xeb;" horiz-adv-x="752" 
d="M398 734q-55 0 -100 -56q-47 -58 -59 -165h306q-10 104 -47 163q-37 58 -100 58zM426 74q19 -2 37 -2q115 0 190 89l45 -42q-47 -64 -97 -92q-72 -41 -180 -41q-20 0 -41 1q-168 11 -258 107q-91 98 -91 265q-1 17 -1 34q10 151 91 267q103 131 257 143q17 1 33 1
q131 0 215 -80q86 -94 96 -290h-489v-39q0 -150 57 -235q51 -77 136 -86zM266 873q-35 0 -59.5 24.5t-24.5 59.5q0 34 24.5 59t59.5 25q34 0 59 -25t25 -59q0 -35 -25 -59.5t-59 -24.5zM566 873q-35 0 -59.5 24.5t-24.5 59.5q0 34 24.5 59t59.5 25q34 0 59 -25t25 -59
q0 -35 -25 -59.5t-59 -24.5z" />
    <glyph glyph-name="igrave" unicode="&#xec;" horiz-adv-x="543" 
d="M363 103q98 -5 130 -21v-82h-412v82q8 10 106 21v590l-137 17v80h313v-687zM272.396 927.989l-92.7988 80.7988q-95.998 85.5986 -114.398 111.198q-3.19922 4.7998 -3.19922 8v1.59961q0 4.7998 6.39941 10.3994q5.59961 5.60059 53.5996 38.3994
q47.1992 33.5996 54.3984 36.7998q5.60059 3.2002 10.4004 3.2002h1.59961q4 -0.800781 8 -6.40039q28.7998 -42.3994 108.799 -260.796z" />
    <glyph glyph-name="iacute" unicode="&#xed;" horiz-adv-x="543" 
d="M363 103q98 -5 130 -21v-82h-412v82q8 10 106 21v590l-137 17v80h313v-687zM163 951.188q79.998 218.396 108.798 260.796q4 5.59961 8 6.40039h1.59961q4.7998 0 10.4004 -3.2002q7.19922 -3.2002 54.3994 -36.7998q47.999 -32.7988 53.5986 -38.3994
q6.40039 -5.59961 6.40039 -10.3994v-1.59961q0 -3.2002 -3.2002 -8q-18.4004 -25.5996 -114.398 -111.198l-92.7988 -80.7988z" />
    <glyph glyph-name="icircumflex" unicode="&#xee;" horiz-adv-x="543" 
d="M364 103q98 -5 130 -21v-82h-412v82q8 10 106 21v590l-137 17v80h313v-687zM331 850q-68 114 -101 178q-32 -64 -100 -178h-96l59 86q64 104 116 164h42q76 -95 181 -250h-101z" />
    <glyph glyph-name="idieresis" unicode="&#xef;" horiz-adv-x="543" 
d="M344 103q98 -5 130 -21v-82h-412v82q8 10 106 21v590l-137 17v80h313v-687zM67 873q-35 0 -59.5 24.5t-24.5 59.5q0 34 24.5 59t59.5 25q34 0 59 -25t25 -59q0 -35 -25 -59.5t-59 -24.5zM367 873q-35 0 -59.5 24.5t-24.5 59.5q0 34 24.5 59t59.5 25q34 0 59 -25t25 -59
q0 -35 -25 -59.5t-59 -24.5z" />
    <glyph glyph-name="eth" unicode="&#xf0;" horiz-adv-x="873" 
d="M609 217q23 71 23 156q0 66 -14 140q-17 97 -73 152q-53 52 -124 52q-79 0 -131 -97q-48 -88 -48 -205q0 -13 1 -27q6 -133 66 -225q59 -90 139 -90q60 0 109 55q36 41 52 89zM652 940q155 -179 163 -425q1 -16 1 -32q0 -197 -94 -342q-100 -155 -287 -155
q-161 0 -271 107q-114 110 -114 277q0 193 114 319q105 115 248 115q11 0 23 -1q46 -3 98 -27q62 -28 98 -74q4 -4 16 -22q0 19 -11 39q-66 131 -167 232l-70 -70l-57 56l68 68q-58 48 -151 91l8 90q106 -13 235 -111l68 68l56 -57l-61 -61q59 -52 87 -85z" />
    <glyph glyph-name="ntilde" unicode="&#xf1;" horiz-adv-x="1078" 
d="M912 103q99 -5 131 -20v-83h-423v83q9 9 107 20v387q0 106 -23 147q-26 47 -99 47h-3q-132 -2 -244 -98v-483q98 -5 131 -20v-83h-423v83q8 9 107 20v545l-138 17v75l262 52l41 -125q61 56 140 93q97 44 192 44q162 0 218 -120q24 -51 24 -114v-467zM808 1029
q-4 -33 -18 -65q-28 -67 -83 -73q-14 -1 -28 -1q-29 0 -60 5q-23 4 -87 20l-50 14q-30 9 -46 12q-34 8 -58 8q-12 0 -22 -2q-31 -7 -48 -28q-9 -11 -12 -20h-26q4 30 18 63q28 64 83 74q18 4 38 4q24 0 51 -5q27 -4 91 -21l51 -15q30 -8 47 -13q32 -7 56 -7q12 0 22 2
q32 7 46 28q7 10 9 20h26z" />
    <glyph glyph-name="ograve" unicode="&#xf2;" horiz-adv-x="860" 
d="M579 174q41 77 46 174q1 12 1 24t-1 24v9q-7 133 -70 225q-55 84 -128 88q-6 0 -12 -1h-2q-81 -4 -133 -101q-40 -75 -45 -170v-61q7 -133 70 -225q56 -84 129 -88h10l2 1q82 4 133 101zM435 804q194 0 299 -120q96 -109 96 -289q0 -172 -113 -289q-116 -120 -292 -120
q-196 0 -300 120q-95 109 -95 289q0 175 121 294q119 115 284 115zM430.396 927.989l-92.7988 80.7988q-95.998 85.5986 -114.398 111.198q-3.19922 4.7998 -3.19922 8v1.59961q0 4.7998 6.39941 10.3994q5.59961 5.60059 53.5996 38.3994q47.1992 33.5996 54.3984 36.7998
q5.60059 3.2002 10.4004 3.2002h1.59961q4 -0.800781 8 -6.40039q28.7998 -42.3994 108.799 -260.796z" />
    <glyph glyph-name="oacute" unicode="&#xf3;" horiz-adv-x="860" 
d="M579 174q41 77 46 174q1 12 1 24t-1 24v9q-7 133 -70 225q-55 84 -128 88q-6 0 -12 -1h-2q-81 -4 -133 -101q-40 -75 -45 -170v-61q7 -133 70 -225q56 -84 129 -88h10l2 1q82 4 133 101zM435 804q194 0 299 -120q96 -109 96 -289q0 -172 -113 -289q-116 -120 -292 -120
q-196 0 -300 120q-95 109 -95 289q0 175 121 294q119 115 284 115zM378 951.188q79.998 218.396 108.798 260.796q4 5.59961 8 6.40039h1.59961q4.7998 0 10.4004 -3.2002q7.19922 -3.2002 54.3994 -36.7998q47.999 -32.7988 53.5986 -38.3994
q6.40039 -5.59961 6.40039 -10.3994v-1.59961q0 -3.2002 -3.2002 -8q-18.4004 -25.5996 -114.398 -111.198l-92.7988 -80.7988z" />
    <glyph glyph-name="ocircumflex" unicode="&#xf4;" horiz-adv-x="860" 
d="M579 174q41 77 46 174q1 12 1 24t-1 24v9q-7 133 -70 225q-55 84 -128 88q-6 0 -12 -1h-2q-81 -4 -133 -101q-40 -75 -45 -170v-61q7 -133 70 -225q56 -84 129 -88h10l2 1q82 4 133 101zM435 804q194 0 299 -120q96 -109 96 -289q0 -172 -113 -289q-116 -120 -292 -120
q-196 0 -300 120q-95 109 -95 289q0 175 121 294q119 115 284 115zM528 850q-68 114 -101 178q-32 -64 -100 -178h-96l59 86q64 104 116 164h42q76 -95 181 -250h-101z" />
    <glyph glyph-name="otilde" unicode="&#xf5;" horiz-adv-x="860" 
d="M579 174q41 77 46 174q1 12 1 24t-1 24v9q-7 133 -70 225q-55 84 -128 88q-6 0 -12 -1h-2q-81 -4 -133 -101q-40 -75 -45 -170v-61q7 -133 70 -225q56 -84 129 -88h10l2 1q82 4 133 101zM435 804q194 0 299 -120q96 -109 96 -289q0 -172 -113 -289q-116 -120 -292 -120
q-196 0 -300 120q-95 109 -95 289q0 175 121 294q119 115 284 115zM699 1029q-4 -33 -18 -65q-28 -67 -83 -73q-14 -1 -28 -1q-29 0 -60 5q-23 4 -87 20l-50 14q-30 9 -46 12q-34 8 -58 8q-12 0 -22 -2q-31 -7 -48 -28q-9 -11 -12 -20h-26q4 30 18 63q28 64 83 74q18 4 38 4
q24 0 51 -5q27 -4 91 -21l51 -15q30 -8 47 -13q32 -7 56 -7q12 0 22 2q32 7 46 28q7 10 9 20h26z" />
    <glyph glyph-name="odieresis" unicode="&#xf6;" horiz-adv-x="860" 
d="M579 174q41 77 46 174q1 12 1 24t-1 24v9q-7 133 -70 225q-55 84 -128 88q-6 0 -12 -1h-2q-81 -4 -133 -101q-40 -75 -45 -170v-61q7 -133 70 -225q56 -84 129 -88h10l2 1q82 4 133 101zM435 804q194 0 299 -120q96 -109 96 -289q0 -172 -113 -289q-116 -120 -292 -120
q-196 0 -300 120q-95 109 -95 289q0 175 121 294q119 115 284 115zM280 873q-35 0 -59.5 24.5t-24.5 59.5q0 34 24.5 59t59.5 25q34 0 59 -25t25 -59q0 -35 -25 -59.5t-59 -24.5zM580 873q-35 0 -59.5 24.5t-24.5 59.5q0 34 24.5 59t59.5 25q34 0 59 -25t25 -59
q0 -35 -25 -59.5t-59 -24.5z" />
    <glyph glyph-name="divide" unicode="&#xf7;" horiz-adv-x="770" 
d="M85 358v135h600v-135h-600zM385.798 98.7998q-35.1992 0 -59.5996 24.4004q-24.3994 24.3994 -24.3994 59.5986q0 34.3994 24.3994 59.1992q24.4004 24.7998 59.5996 24.7998q34.3994 0 59.1992 -24.7998t24.7998 -59.1992q0 -35.1992 -24.7998 -59.5986
q-24.7998 -24.4004 -59.1992 -24.4004zM384.998 584.393q-35.1992 0 -59.5996 24.3994q-24.3994 24.4004 -24.3994 59.5996q0 34.3994 24.3994 59.1992q24.4004 24.7998 59.5996 24.7998q34.3994 0 59.1992 -24.7998q24.7988 -24.7998 24.7988 -59.1992
q0 -35.1992 -24.7988 -59.5996q-24.7998 -24.3994 -59.1992 -24.3994z" />
    <glyph glyph-name="oslash" unicode="&#xf8;" horiz-adv-x="860" 
d="M579 174q41 77 46 174q1 12 1 24t-1 24v9q-7 133 -70 225q-55 84 -128 88q-6 0 -12 -1h-2q-81 -4 -133 -101q-40 -75 -45 -170v-61q7 -133 70 -225q56 -84 129 -88h10l2 1q82 4 133 101zM435 804q194 0 299 -120q96 -109 96 -289q0 -172 -113 -289q-116 -120 -292 -120
q-196 0 -300 120q-95 109 -95 289q0 175 121 294q119 115 284 115zM638.993 1100l-303.995 -1360h-119.999l303.996 1360h119.998z" />
    <glyph glyph-name="ugrave" unicode="&#xf9;" horiz-adv-x="1092" 
d="M1042 113v-75l-269 -53l-42 144q-42 -63 -99 -101q-72 -42 -151 -42q-172 0 -244 87q-50 59 -50 166v407l-137 17v76l323 61v-520q0 -106 39 -145q31 -30 99 -30q12 0 25 1q105 10 183 145v395l-137 17v76l323 61v-670zM526.396 927.989l-92.7988 80.7988
q-95.998 85.5986 -114.398 111.198q-3.19922 4.7998 -3.19922 8v1.59961q0 4.7998 6.39941 10.3994q5.59961 5.60059 53.5996 38.3994q47.1992 33.5996 54.3984 36.7998q5.60059 3.2002 10.4004 3.2002h1.59961q4 -0.800781 8 -6.40039q28.7998 -42.3994 108.799 -260.796z
" />
    <glyph glyph-name="uacute" unicode="&#xfa;" horiz-adv-x="1092" 
d="M1042 113v-75l-269 -53l-42 144q-42 -63 -99 -101q-72 -42 -151 -42q-172 0 -244 87q-50 59 -50 166v407l-137 17v76l323 61v-520q0 -106 39 -145q31 -30 99 -30q12 0 25 1q105 10 183 145v395l-137 17v76l323 61v-670zM438 951.188q79.998 218.396 108.798 260.796
q4 5.59961 8 6.40039h1.59961q4.7998 0 10.4004 -3.2002q7.19922 -3.2002 54.3994 -36.7998q47.999 -32.7988 53.5986 -38.3994q6.40039 -5.59961 6.40039 -10.3994v-1.59961q0 -3.2002 -3.2002 -8q-18.4004 -25.5996 -114.398 -111.198l-92.7988 -80.7988z" />
    <glyph glyph-name="ucircumflex" unicode="&#xfb;" horiz-adv-x="1092" 
d="M1042 113v-75l-269 -53l-42 144q-42 -63 -99 -101q-72 -42 -151 -42q-172 0 -244 87q-50 59 -50 166v407l-137 17v76l323 61v-520q0 -106 39 -145q31 -30 99 -30q12 0 25 1q105 10 183 145v395l-137 17v76l323 61v-670zM644 850q-68 114 -101 178q-32 -64 -100 -178h-96
l59 86q64 104 116 164h42q76 -95 181 -250h-101z" />
    <glyph glyph-name="udieresis" unicode="&#xfc;" horiz-adv-x="1092" 
d="M1042 113v-75l-269 -53l-42 144q-42 -63 -99 -101q-72 -42 -151 -42q-172 0 -244 87q-50 59 -50 166v407l-137 17v76l323 61v-520q0 -106 39 -145q31 -30 99 -30q12 0 25 1q105 10 183 145v395l-137 17v76l323 61v-670zM346 873q-35 0 -59.5 24.5t-24.5 59.5
q0 34 24.5 59t59.5 25q34 0 59 -25t25 -59q0 -35 -25 -59.5t-59 -24.5zM646 873q-35 0 -59.5 24.5t-24.5 59.5q0 34 24.5 59t59.5 25q34 0 59 -25t25 -59q0 -35 -25 -59.5t-59 -24.5z" />
    <glyph glyph-name="yacute" unicode="&#xfd;" horiz-adv-x="947" 
d="M917 790v-82q-17 -10 -100 -21q-304 -955 -413 -1048q-40 -35 -100 -36q-26 0 -61 10q-56 21 -75 83l37 85q34 -17 88 -17q42 0 78 63q42 73 55 144l-285 716q-109 11 -111 21v82h405v-82q-28 -11 -103 -21l170 -493v-117l193 610q-65 10 -86 21v82h308zM448 951.188
q79.998 218.396 108.798 260.796q4 5.59961 8 6.40039h1.59961q4.7998 0 10.4004 -3.2002q7.19922 -3.2002 54.3994 -36.7998q47.999 -32.7988 53.5986 -38.3994q6.40039 -5.59961 6.40039 -10.3994v-1.59961q0 -3.2002 -3.2002 -8q-18.4004 -25.5996 -114.398 -111.198
l-92.7988 -80.7988z" />
    <glyph glyph-name="thorn" unicode="&#xfe;" horiz-adv-x="935" 
d="M444 92q19 -4 30 -10h-8q28 -11 58 -11h5q79 4 132 101q47 87 47 203q0 13 -1 27q-6 133 -65 224q-60 90 -140 90q-92 0 -158 -99v-379q9 -71 61 -118q19 -17 39 -28zM344 729q25 22 63 41q56 27 109 32q18 2 36 2q133 0 234 -91q114 -113 114 -283q0 -190 -114 -324
q-111 -120 -271 -120q-101 0 -173 34v-299q98 -5 130 -21v-82h-422v82q8 10 106 21v1251l-95 17v76l283 61v-397z" />
    <glyph glyph-name="ydieresis" unicode="&#xff;" horiz-adv-x="947" 
d="M917 790v-82q-17 -10 -100 -21q-304 -955 -413 -1048q-40 -35 -100 -36q-26 0 -61 10q-56 21 -75 83l37 85q34 -17 88 -17q42 0 78 63q42 73 55 144l-285 716q-109 11 -111 21v82h405v-82q-28 -11 -103 -21l170 -493v-117l193 610q-65 10 -86 21v82h308zM324 873
q-35 0 -59.5 24.5t-24.5 59.5q0 34 24.5 59t59.5 25q34 0 59 -25t25 -59q0 -35 -25 -59.5t-59 -24.5zM624 873q-35 0 -59.5 24.5t-24.5 59.5q0 34 24.5 59t59.5 25q34 0 59 -25t25 -59q0 -35 -25 -59.5t-59 -24.5z" />
    <glyph glyph-name="dotlessi" unicode="&#x131;" horiz-adv-x="543" 
d="M363 103q98 -5 130 -21v-82h-412v82q8 10 106 21v590l-137 17v80h313v-687z" />
    <glyph glyph-name="circumflex" unicode="&#x2c6;" horiz-adv-x="498" 
d="M347 850q-68 114 -101 178q-32 -64 -100 -178h-96l59 86q64 104 116 164h42q76 -95 181 -250h-101z" />
    <glyph glyph-name="caron" unicode="&#x2c7;" horiz-adv-x="498" 
d="M448 1100q-105 -155 -181 -250h-42q-52 60 -116 164l-59 86h96q68 -114 100 -178q33 64 101 178h101z" />
    <glyph glyph-name="uni02C9" unicode="&#x2c9;" horiz-adv-x="750" 
d="M58.501 853.014v77.001h560.01v-77.001h-560.01z" />
    <glyph glyph-name="breve" unicode="&#x2d8;" horiz-adv-x="428" 
d="M124 1095q0 -37 26.5 -63.5t63.5 -26.5t63.5 26.5t26.5 63.5h74q0 -63 -43.5 -106.5t-120.5 -43.5t-120.5 43.5t-43.5 106.5h74z" />
    <glyph glyph-name="dotaccent" unicode="&#x2d9;" horiz-adv-x="268" 
d="M134 873q-35 0 -59.5 24.5t-24.5 59.5q0 34 24.5 59t59.5 25q34 0 59 -25t25 -59q0 -35 -25 -59.5t-59 -24.5z" />
    <glyph glyph-name="ring" unicode="&#x2da;" horiz-adv-x="370" 
d="M185 995q-61 0 -105.5 44.5t-44.5 105.5q0 62 44.5 106t105.5 44q62 0 106 -44t44 -106q0 -61 -44 -105.5t-106 -44.5zM275 1145q0 38 -26 64t-64 26q-37 0 -63.5 -26t-26.5 -64q0 -37 26.5 -63.5t63.5 -26.5q38 0 64 26.5t26 63.5z" />
    <glyph glyph-name="ogonek" unicode="&#x2db;" horiz-adv-x="400" 
d="M210 -226q36 0 64 29q26 26 31 65h45q0 -62 -44 -106t-106 -44t-106 44t-44 106q0 33 16 66q20 38 58 66l30 -41q-32 -35 -32 -91q0 -38 26 -65q25 -29 62 -29z" />
    <glyph glyph-name="tilde" unicode="&#x2dc;" horiz-adv-x="638" 
d="M588 1009q-4 -33 -18 -65q-28 -67 -83 -73q-14 -1 -28 -1q-29 0 -60 5q-23 4 -87 20l-50 14q-30 9 -46 12q-34 8 -58 8q-12 0 -22 -2q-31 -7 -48 -28q-9 -11 -12 -20h-26q4 30 18 63q28 64 83 74q18 4 38 4q24 0 51 -5q27 -4 91 -21l51 -15q30 -8 47 -13q32 -7 56 -7
q12 0 22 2q32 7 46 28q7 10 9 20h26z" />
    <glyph glyph-name="hungarumlaut" unicode="&#x2dd;" horiz-adv-x="660" 
d="M1 939q100 273 136 326q5 7 10 8h2q6 0 13 -4q9 -4 68 -46q60 -41 67 -48q8 -7 8 -13v-2q0 -4 -4 -10q-23 -32 -143 -139l-116 -101zM285 939q100 273 136 326q5 7 10 8h2q6 0 13 -4q9 -4 68 -46q60 -41 67 -48q8 -7 8 -13v-2q0 -4 -4 -10q-23 -32 -143 -139l-116 -101z
" />
    <glyph glyph-name="endash" unicode="&#x2013;" horiz-adv-x="1200" 
d="M50 343v110h1100v-110h-1100z" />
    <glyph glyph-name="emdash" unicode="&#x2014;" horiz-adv-x="1400" 
d="M50 343v110h1300v-110h-1300z" />
    <glyph glyph-name="quoteleft" unicode="&#x2018;" 
d="M90 896q-5 26 -5 51q0 78 46 145q54 70 116 94l45 -40q-60 -38 -60 -89v-5q1 -29 32 -53t31 -90q0 -44 -29 -74q-29 -31 -74 -31q-43 0 -70 28q-25 25 -32 64z" />
    <glyph glyph-name="quoteright" unicode="&#x2019;" 
d="M290 1094q5 -26 5 -51q0 -78 -46 -145q-54 -70 -116 -94l-45 40q60 38 60 89v5q-1 29 -32 53t-31 90q0 44 29 74q29 31 74 31q43 0 70 -28q25 -25 32 -64z" />
    <glyph glyph-name="quotesinglbase" unicode="&#x201a;" 
d="M290 104q5 -26 5 -51q0 -78 -46 -145q-54 -70 -116 -94l-45 40q60 38 60 89v5q-1 29 -32 53t-31 90q0 44 29 74q29 31 74 31q43 0 70 -28q25 -25 32 -64z" />
    <glyph glyph-name="quotedblleft" unicode="&#x201c;" horiz-adv-x="680" 
d="M90 896q-5 26 -5 51q0 78 46 145q54 70 116 94l45 -40q-60 -38 -60 -89v-5q1 -29 32 -53t31 -90q0 -44 -29 -74q-29 -31 -74 -31q-43 0 -70 28q-25 25 -32 64zM390 896q-5 26 -5 51q0 78 46 145q54 70 116 94l45 -40q-60 -38 -60 -89v-5q1 -29 32 -53t31 -90
q0 -44 -29 -74q-29 -31 -74 -31q-43 0 -70 28q-25 25 -32 64z" />
    <glyph glyph-name="quotedblright" unicode="&#x201d;" horiz-adv-x="680" 
d="M590 1094q5 -26 5 -51q0 -78 -46 -145q-54 -70 -116 -94l-45 40q60 38 60 89v5q-1 29 -32 53t-31 90q0 44 29 74q29 31 74 31q43 0 70 -28q25 -25 32 -64zM290 1094q5 -26 5 -51q0 -78 -46 -145q-54 -70 -116 -94l-45 40q60 38 60 89v5q-1 29 -32 53t-31 90q0 44 29 74
q29 31 74 31q43 0 70 -28q25 -25 32 -64z" />
    <glyph glyph-name="quotedblbase" unicode="&#x201e;" horiz-adv-x="680" 
d="M590 104q5 -26 5 -51q0 -78 -46 -145q-54 -70 -116 -94l-45 40q60 38 60 89v5q-1 29 -32 53t-31 90q0 44 29 74q29 31 74 31q43 0 70 -28q25 -25 32 -64zM290 104q5 -26 5 -51q0 -78 -46 -145q-54 -70 -116 -94l-45 40q60 38 60 89v5q-1 29 -32 53t-31 90q0 44 29 74
q29 31 74 31q43 0 70 -28q25 -25 32 -64z" />
    <glyph glyph-name="dagger" unicode="&#x2020;" horiz-adv-x="700" 
d="M650 660h-225v-660q0 -190 -54 -382h-42q-54 192 -54 382v660h-225v130h225v260h150v-260h225v-130z" />
    <glyph glyph-name="daggerdbl" unicode="&#x2021;" horiz-adv-x="700" 
d="M425 660v-338h225v-130h-225v-192q0 -190 -54 -382h-42q-54 192 -54 382v192h-225v130h225v338h-225v130h225v260h150v-260h225v-130h-225z" />
    <glyph glyph-name="bullet" unicode="&#x2022;" horiz-adv-x="500" 
d="M250 290q-83 0 -141.5 58.5t-58.5 141.5t58.5 141.5t141.5 58.5t141.5 -58.5t58.5 -141.5t-58.5 -141.5t-141.5 -58.5z" />
    <glyph glyph-name="ellipsis" unicode="&#x2026;" horiz-adv-x="984" 
d="M190 -14q-44 0 -74.5 30.5t-30.5 74.5q0 43 30.5 74t74.5 31q43 0 74 -31t31 -74q0 -44 -31 -74.5t-74 -30.5zM495 -14q-44 0 -74.5 30.5t-30.5 74.5q0 43 30.5 74t74.5 31q43 0 74 -31t31 -74q0 -44 -31 -74.5t-74 -30.5zM794 -14q-44 0 -74.5 30.5t-30.5 74.5
q0 43 30.5 74t74.5 31q43 0 74 -31t31 -74q0 -44 -31 -74.5t-74 -30.5z" />
    <glyph glyph-name="guilsinglleft" unicode="&#x2039;" horiz-adv-x="440" 
d="M256 404q125 -249 134 -332l-78 -18l-49 80q-57 95 -213 270q156 175 213 270l49 80l78 -18q-9 -83 -134 -332z" />
    <glyph glyph-name="guilsinglright" unicode="&#x203a;" horiz-adv-x="440" 
d="M50 736l78 18l49 -80q57 -95 213 -270q-156 -175 -213 -270l-49 -80l-78 18q9 83 134 332q-125 249 -134 332z" />
    <glyph glyph-name="fraction" unicode="&#x2044;" horiz-adv-x="1160" 
d="M1075 1100l-840 -1360h-150l840 1360h150z" />
    <glyph glyph-name="fraction" unicode="&#x2215;" horiz-adv-x="1160" 
d="M1075 1100l-840 -1360h-150l840 1360h150z" />
    <glyph glyph-name="franc" unicode="&#x20a3;" horiz-adv-x="970" 
d="M863 828h-75l-68 125l-324 -13v-375h257q7 52 15 74q4 11 6 11h46v-250h-46q-11 20 -21 85l-257 -4v-379q116 -5 146 -20v-82h-492v83q36 10 150 20v844q-101 9 -150 24v79h772zM65.998 213v100h449.981v-100h-449.981z" />
    <glyph glyph-name="lira" unicode="&#x20a4;" horiz-adv-x="782" 
d="M732 220q-16 -128 -64 -181q-49 -53 -152 -53q-41 0 -112 25q-74 27 -95 28q-9 1 -16 1q-42 0 -60 -18q-11 -11 -12 -22h-129q-2 10 -2 22q0 35 13 88q7 28 48 99t55 126h-156v104h168q-1 47 -16 97h-152v104h115q-49 124 -49 216q0 88 56 144q63 64 178 64h3
q88 0 144 -43q64 -50 64 -143h-134q0 120 -89 120q-65 0 -78 -57q-4 -15 -4 -31q0 -26 11 -53t48 -101q36 -72 54 -116h251v-104h-221q6 -35 6 -68q0 -15 -1 -29h216v-104h-245q-32 -75 -105 -189q40 19 89 19q25 0 52 -5q123 -24 144 -24q39 0 75 27q36 26 50 63z" />
    <glyph glyph-name="peseta" unicode="&#x20a7;" horiz-adv-x="2080" 
d="M436.111 530q116.104 0 163.805 60q40.501 51 40.501 163q0 83 -43.2012 141q-43.2012 56 -116.103 65q-28.8008 3 -54.002 3h-12.6006q-34.2002 0 -74.7021 -6v-399q35.1016 -27 96.3027 -27zM485.613 429q-20.7012 -1 -39.6016 -1q-56.7012 0 -106.203 12v-337
q121.504 -11 128.704 -21v-82h-418.512v82q7.2002 10 113.403 21v844q-106.203 11 -113.403 21v82h467.113q147.604 0 219.605 -85q66.6016 -77 66.6016 -219q0 -152 -99.002 -243q-83.7021 -68 -218.706 -74zM1168 356q0 -164 19 -206q22 -46 75 -46h4q13 0 52 3l9 -87
q-83 -33 -146 -34h-3q-80 0 -124 47q-43 46 -58 152q-4 42 -4 88v427h-121v73q64 21 129 26l64 209h104v-205h191v-103h-191v-344zM1911 398q52 -54 52 -152v-6q0 -79 -55 -142q-77 -98 -233 -98q-145 0 -238 54q-47 27 -64 55q-1 16 -1 30q0 96 36 132q16 15 42 15h11
q66 -6 66 -84v-11q0 -95 116 -102h5q70 0 110 37q30 29 30 79q0 56 -18 78q-30 36 -123 64q-123 44 -159 66q-93 54 -93 167v7q0 109 62 168q66 63 203 63q106 0 185 -48q39 -24 58 -48q2 -22 2 -41q0 -67 -33 -101q-10 -9 -29 -9q-8 0 -17 1q-32 6 -44 21q-10 11 -16 38
q-7 48 -11 58q-21 50 -86 50h-8q-36 -1 -63 -23q-25 -20 -35 -52q-8 -24 -7 -50q0 -12 3 -25q9 -25 36 -41q17 -14 129 -54q135 -41 187 -96z" />
    <glyph glyph-name="Euro" unicode="&#x20ac;" horiz-adv-x="1027" 
d="M938 286l39 -170q-42 -66 -141 -101q-80 -29 -164 -29h-24q-180 0 -305 112q-124 111 -153 293h-140v80h132v24q0 34 3 68h-135v80h147q37 177 149 292q117 119 275 128q23 1 45 1q227 0 311 -131l-39 -189l-84 19q2 14 2 28q0 40 -15 80q-41 108 -176 108
q-102 0 -168 -90t-80 -246h313v-80h-317q0 -48 4 -92h313v-80h-305q25 -161 99 -240q65 -69 162 -69q108 0 153 95q23 48 23 96z" />
    <glyph glyph-name="afii61352" unicode="&#x2116;" horiz-adv-x="1680" 
d="M333 1050l411 -742q12 -22 24 -82v721q-109 11 -114 20v83h349v-83q-2 -9 -108 -20v-947h-181q-317 552 -415 746q-8 15 -20 66v-709q115 -12 120 -20v-83h-354v83q1 9 108 20v817q-107 38 -108 47v83h288zM1427 672q27 46 30 104q1 7 1 15q0 7 -1 14v5q-5 80 -46 135
q-37 51 -85 53h-8h-1q-53 -3 -88 -61q-26 -45 -29 -102v-37q4 -79 46 -135q37 -50 85 -52h7h1q54 3 88 61zM1332 1050q128 0 197 -72q63 -66 63 -174q0 -103 -74 -173q-77 -72 -193 -72q-129 0 -198 72q-63 65 -63 173q0 105 80 177q79 69 188 69zM1141 359v100h375v-100
h-375z" />
    <glyph glyph-name="trademark" unicode="&#x2122;" horiz-adv-x="1103" 
d="M471.612 960.82h-38.251l-26.5508 54.0029l-109.803 -8.7998v-334.821q52.2012 -4.39941 67.0518 -8v-33.2021h-222.756v33.2021q14.8496 3.60059 66.6016 8v334.821l-109.354 8.7998l-26.5498 -54.0029h-38.252l22.0508 89.2051h397.361zM1013.12 671.202
q53.1016 -4.39941 54.001 -8v-33.2021h-190.354v33.2021q3.59961 4.40039 41.8506 8l-27.4502 281.617l-2.7002 -20.4014l-114.304 -302.418h-40.501l-115.653 302.418l-3.14941 20.4014l-26.5508 -281.617q33.751 -3.59961 36.9014 -8v-33.2021h-153.455v33.2021
q0.900391 3.60059 54.002 8l33.751 337.621q-53.1016 4.40039 -53.5518 8v33.2021h158.854l101.253 -294.817h1.7998l106.653 294.817h155.704v-33.2021q-0.900391 -3.59961 -54.002 -8z" />
    <glyph glyph-name="partialdiff" unicode="&#x2202;" horiz-adv-x="955" 
d="M709 455q2 30 2 58q0 112 -39 176q-50 81 -156 81q-92 0 -168 -85q-81 -91 -103 -238q-8 -53 -8 -101q0 -93 32 -165q50 -110 151 -110h4q105 2 189 115q83 114 96 269zM470 1186q176 0 289 -134q135 -159 135 -476q0 -26 -1 -53q-9 -255 -169 -408q-135 -129 -291 -129
q-183 0 -280 93q-94 89 -94 253q0 15 1 32q10 197 140 346q133 152 307 152q151 0 213 -122q-1 125 -58 235q-71 139 -192 139q-110 0 -178 -119l-120 15q45 91 140 138q77 38 158 38z" />
    <glyph glyph-name="Delta" unicode="&#x2206;" horiz-adv-x="993" 
d="M958 0h-923l453 1186zM170 96h621l-312 836z" />
    <glyph glyph-name="product" unicode="&#x220f;" horiz-adv-x="1152" 
d="M1102 967q-2 -9 -120 -20v-1164q118 -11 120 -20v-83h-418v83q8 11 103 20v1172h-422v-1172q95 -9 103 -20v-83h-418v83q2 9 120 20v1164q-118 11 -120 20v83h1052v-83z" />
    <glyph glyph-name="summation" unicode="&#x2211;" horiz-adv-x="847" 
d="M748 1050l49 -223h-85l-59 135l-428 -13l355 -553l-355 -617l428 -13l59 135h85l-49 -223h-698v101l366 617l-366 553v101h698z" />
    <glyph glyph-name="minus" unicode="&#x2212;" horiz-adv-x="770" 
d="M85 330v135h600v-135h-600z" />
    <glyph glyph-name="radical" unicode="&#x221a;" horiz-adv-x="1139" 
d="M1089 1295h-191l-269 -1309h-214l-245 716q-118 11 -120 20v83h253l206 -687l238 1257h342v-80z" />
    <glyph glyph-name="infinity" unicode="&#x221e;" horiz-adv-x="1670" 
d="M1411 298q72 26 72 75q0 45 -87 70q-66 19 -146 19q-177 0 -289 -106q134 -74 277 -78h20q94 0 153 20zM420 278q177 0 289 106q-134 74 -277 78h-20q-94 0 -153 -20q-72 -26 -72 -75q0 -45 87 -70q66 -19 146 -19zM1484 529q136 -50 136 -148q0 -100 -104 -149
q-90 -42 -248 -42q-111 0 -206 29q-72 22 -180 78q-165 -127 -431 -127q-155 0 -265 41q-136 50 -136 148q0 100 104 149q90 42 248 42q111 0 206 -29q72 -22 180 -78q165 127 431 127q155 0 265 -41z" />
    <glyph glyph-name="integral" unicode="&#x222b;" horiz-adv-x="571" 
d="M435 1186q46 0 86 -12l-15 -56q-35 5 -63 5q-60 0 -76 -76q-11 -47 -11 -210v-572q0 -148 -58 -216q-54 -63 -162 -63q-46 0 -86 12l15 56q35 -5 63 -5q60 0 76 76q11 47 11 210v572q0 148 58 216q54 63 162 63z" />
    <glyph glyph-name="approxequal" unicode="&#x2248;" horiz-adv-x="1198" 
d="M1148 721q-7 -55 -36 -111q-58 -113 -169 -123q-29 -2 -58 -2q-59 0 -122 9q-48 7 -178 34q-29 6 -102 23q-61 15 -95 21q-68 13 -118 13q-24 0 -45 -3q-63 -12 -98 -48q-18 -18 -23 -33h-54q7 51 36 106q59 110 169 127q37 6 79 6q48 0 104 -8q55 -7 186 -37l104 -24
q61 -15 95 -22q66 -12 114 -12q25 0 45 3q65 11 95 47q15 18 17 34h54zM1148 376q-7 -55 -36 -111q-58 -113 -169 -123q-29 -2 -58 -2q-59 0 -122 9q-48 7 -178 34q-29 6 -102 23q-61 15 -95 21q-68 13 -118 13q-24 0 -45 -3q-63 -12 -98 -48q-18 -18 -23 -33h-54
q7 51 36 106q59 110 169 127q37 6 79 6q48 0 104 -8q55 -7 186 -37l104 -24q61 -15 95 -22q66 -12 114 -12q25 0 45 3q65 11 95 47q15 18 17 34h54z" />
    <glyph glyph-name="lessequal" unicode="&#x2264;" horiz-adv-x="755" 
d="M705 817q-96 -37 -271 -123q-191 -88 -230 -116q39 -28 230 -104q175 -86 271 -122l-22 -149q-81 28 -142 63q-100 44 -256 132q-134 80 -235 147v66q101 67 235 147q156 88 256 132q61 35 142 63zM85 1v135h600v-135h-600z" />
    <glyph glyph-name="greaterequal" unicode="&#x2265;" horiz-adv-x="755" 
d="M72 953q81 -28 142 -63q100 -44 256 -132q134 -80 235 -147v-66q-101 -67 -235 -147q-156 -88 -256 -132q-61 -35 -142 -63l-22 149q96 36 271 122q191 76 230 104q-39 28 -230 116q-175 86 -271 123zM85 1v135h600v-135h-600z" />
    <glyph glyph-name="uniF001" unicode="&#xf001;" horiz-adv-x="1130" 
d="M641 1028q-1 -76 -45 -124q-16 -16 -47 -17h-3q-30 0 -47 16q-23 20 -27 49q-1 6 -1 17q0 12 1 29v10q0 18 -6 27q-11 16 -46 20q-11 0 -17 -1q-36 -7 -51 -36q-16 -29 -16 -94v-120h562v-104h-562v-597q98 -5 150 -21v-82h-442v82q19 10 116 21v597h-114v83q54 9 118 18
q2 6 9 118q18 89 64 135q72 72 188 72h3q150 0 213 -98zM900 103q98 -5 130 -21v-82h-412v82q8 10 106 21v600h-137v62l313 35v-697zM807 950q-45 0 -78 32q-32 32 -32 77q0 46 32 78q33 33 78 33t77 -33q33 -32 33 -78q0 -45 -33 -77q-32 -32 -77 -32z" />
    <glyph glyph-name="uniF001" unicode="&#xfb01;" horiz-adv-x="1130" 
d="M641 1028q-1 -76 -45 -124q-16 -16 -47 -17h-3q-30 0 -47 16q-23 20 -27 49q-1 6 -1 17q0 12 1 29v10q0 18 -6 27q-11 16 -46 20q-11 0 -17 -1q-36 -7 -51 -36q-16 -29 -16 -94v-120h562v-104h-562v-597q98 -5 150 -21v-82h-442v82q19 10 116 21v597h-114v83q54 9 118 18
q2 6 9 118q18 89 64 135q72 72 188 72h3q150 0 213 -98zM900 103q98 -5 130 -21v-82h-412v82q8 10 106 21v600h-137v62l313 35v-697zM807 950q-45 0 -78 32q-32 32 -32 77q0 46 32 78q33 33 78 33t77 -33q33 -32 33 -78q0 -45 -33 -77q-32 -32 -77 -32z" />
    <glyph glyph-name="uniF002" unicode="&#xf002;" horiz-adv-x="1190" 
d="M642 1028q-1 -76 -45 -124q-16 -16 -47 -17h-3q-30 0 -47 16q-23 20 -27 49q-1 6 -1 17q0 12 1 29v10q0 18 -6 27q-11 16 -46 20q-11 0 -17 -1q-36 -7 -51 -36q-16 -29 -16 -94v-120h211v-104h-211v-597q98 -5 150 -21v-82h-442v82q19 10 116 21v597h-114v83q54 9 118 18
q2 6 9 118q18 89 64 135q72 72 188 72h3q150 0 213 -98zM989 103q98 -5 130 -21v-82h-422v82q8 10 106 21v869l-97 17v76l283 61v-1023z" />
    <glyph glyph-name="uniF002" unicode="&#xfb02;" horiz-adv-x="1190" 
d="M642 1028q-1 -76 -45 -124q-16 -16 -47 -17h-3q-30 0 -47 16q-23 20 -27 49q-1 6 -1 17q0 12 1 29v10q0 18 -6 27q-11 16 -46 20q-11 0 -17 -1q-36 -7 -51 -36q-16 -29 -16 -94v-120h211v-104h-211v-597q98 -5 150 -21v-82h-442v82q19 10 116 21v597h-114v83q54 9 118 18
q2 6 9 118q18 89 64 135q72 72 188 72h3q150 0 213 -98zM989 103q98 -5 130 -21v-82h-422v82q8 10 106 21v869l-97 17v76l283 61v-1023z" />
    <glyph glyph-name="afii10023" unicode="&#x401;" horiz-adv-x="888" 
d="M396 491v-382l314 -12l68 125h75l-41 -222h-762v83q32 9 150 20v847q-118 11 -150 21v79h762l41 -222h-75l-68 125l-314 -13v-365h247q7 42 15 64q4 11 6 11h46v-230h-46q-11 20 -21 75zM352 1125q-24 -26 -58 -26q-35 0 -60 26q-24 27 -24 65q0 37 24 64q25 26 60 26
q34 0 58 -26q26 -27 26 -64q0 -38 -26 -65zM685 1125q-24 -26 -59 -26q-34 0 -59 26q-25 27 -25 65q0 37 25 64q25 26 59 26q35 0 59 -26q25 -27 25 -64q0 -38 -25 -65z" />
    <glyph glyph-name="afii10051" unicode="&#x402;" horiz-adv-x="1145" 
d="M1008 527q87 -82 87 -225q0 -169 -94 -251q-75 -65 -195 -65q-67 0 -123 14v99q22 -3 42 -3q78 0 122 49q48 61 48 150v16q-3 197 -230 197h-26q-29 0 -56 -5v-503h-330v81q8 10 135 21v839l-195 21l-58 -134h-85l49 222h778l41 -222h-85l-59 134l-191 -21v-341
q58 9 120 9q29 0 79 -2q144 -9 226 -80z" />
    <glyph glyph-name="afii10052" unicode="&#x403;" horiz-adv-x="970" 
d="M853 828h-75l-68 135l-314 -24v-836q118 -11 150 -20v-83h-496v83q32 9 150 20v847q-118 11 -150 21v79h762zM409.5 1157.31q70.002 191.104 95.2021 228.204q3.5 4.90039 7 5.59961h1.40039q4.2002 0 9.09961 -2.7998q6.30078 -2.7998 47.6006 -32.2002
q42.001 -28.7012 46.9014 -33.6006q5.59961 -4.90039 5.59961 -9.10059v-1.40039q0 -2.7998 -2.7998 -7q-16.0996 -22.4004 -100.102 -97.3008l-81.2012 -70.7021z" />
    <glyph glyph-name="afii10053" unicode="&#x404;" horiz-adv-x="863" 
d="M246 592q35 1 97 15q62 13 101 13q98 0 151 -39q27 -20 35 -40l-48 -56q-60 35 -134 35q-12 0 -25 -1q-31 -3 -88 -18q-58 -16 -91 -20l1 -28q4 -167 84 -281q76 -100 199 -100q118 0 163 95q22 78 23 126l75 13l39 -190q-42 -66 -141 -101q-80 -29 -173 -29h-24
q-205 0 -335 143q-130 152 -130 376q0 227 122 390q124 157 316 168q22 1 43 1q228 0 312 -131l-39 -209l-84 19l1 10q0 15 -4 41q-5 37 -20 77q-40 108 -165 108q-124 0 -192 -112q-64 -105 -69 -275z" />
    <glyph glyph-name="afii10054" unicode="&#x405;" horiz-adv-x="820" 
d="M393 89q100 0 152 53q39 52 39 110q1 11 1 22q0 61 -25 95q-38 47 -162 84q-187 58 -234 87q-124 72 -124 213v4q0 146 82 224q88 83 267 83q102 0 218 -34q104 -33 132 -62l-37 -234l-84 7q-1 64 -29 118q-57 109 -193 109q-56 0 -99 -25q-39 -25 -59 -76q-9 -41 -9 -70
q0 -15 3 -30q10 -47 45 -72q31 -21 197 -71q178 -55 247 -127q68 -72 68 -200v-7q0 -105 -73 -188q-101 -116 -306 -116q-104 0 -232 33q-115 35 -143 63l28 254l84 -6q7 -77 42 -132q68 -109 204 -109z" />
    <glyph glyph-name="afii10055" unicode="&#x406;" horiz-adv-x="572" 
d="M372 947v-844q118 -5 150 -21v-82h-472v82q8 10 136 21v844q-128 11 -136 21v82h472v-82q-32 -16 -150 -21zM286 1157q-39 0 -67 28q-28 27 -28 66q0 41 28 68q28 28 67 28t65 -28q30 -27 30 -68q0 -39 -30 -66q-26 -28 -65 -28z" />
    <glyph glyph-name="afii10056" unicode="&#x407;" horiz-adv-x="562" 
d="M140 1157q-33 0 -56 28q-24 27 -24 66q0 41 24 68q23 28 56 28t55 -28q25 -27 25 -68q0 -39 -25 -66q-22 -28 -55 -28zM410 1157q-33 0 -56 28q-24 27 -24 66q0 41 24 68q23 28 56 28t55 -28q25 -27 25 -68q0 -39 -25 -66q-22 -28 -55 -28zM362 947v-844q118 -5 150 -21
v-82h-472v82q8 10 136 21v844q-128 11 -136 21v82h472v-82q-32 -16 -150 -21z" />
    <glyph glyph-name="afii10057" unicode="&#x408;" horiz-adv-x="523" 
d="M488 1050v-82q-18 -10 -126 -21v-547q0 -184 -9 -240q-13 -69 -57 -113q-47 -47 -144 -58q-29 -3 -62 -3q-27 0 -55 2v108h5q21 0 44 8q53 19 80 72q20 50 20 257v514q-109 5 -141 21v82h445z" />
    <glyph glyph-name="afii10058" unicode="&#x409;" horiz-adv-x="1441" 
d="M1190 297v16q0 200 -245 208h-13q-39 0 -66 -5v-422q107 -3 147 -3q80 0 129 55q48 61 48 151zM866 947v-334q59 10 131 10q29 0 59 -2q155 -10 238 -81q97 -82 97 -236q0 -132 -74 -209q-80 -85 -264 -95h-509v82q8 10 126 21v852h-272v-159q0 -357 -46 -576
q-60 -234 -184 -234h-4q-93 2 -129 55l40 109q18 -12 75 -12q42 0 79 180q38 166 38 397v232q-108 11 -131 21v82h850v-82q-2 -10 -120 -21z" />
    <glyph glyph-name="afii10059" unicode="&#x40a;" horiz-adv-x="1563" 
d="M1118 1050v-83q-2 -9 -130 -20v-364q59 10 131 10q29 0 59 -2q155 -10 238 -81q97 -82 97 -216q0 -122 -74 -199q-80 -85 -264 -95h-509v82q8 10 126 21v388h-419v-388q105 -9 112 -20v-83h-435v83q2 9 130 20v844q-128 11 -130 20v83h435v-83q-7 -11 -112 -20v-370h419
v370q-118 11 -126 21v82h452zM988 94q107 -3 147 -3q80 0 129 55q48 61 48 141v16q0 180 -245 188h-13q-39 0 -66 -5v-392z" />
    <glyph glyph-name="afii10060" unicode="&#x40b;" horiz-adv-x="1364" 
d="M1194 103q118 -11 120 -21v-82h-417v82q7 12 102 21v281q0 43 -27 88q-41 58 -161 58q-143 0 -228 -83v-344q94 -9 101 -21v-82h-416v82q2 10 120 21v837l-194 22l-59 -135h-85l49 223h782l41 -223h-85l-59 135l-195 -22v-379q107 83 263 83q214 0 307 -124
q41 -62 41 -133v-284z" />
    <glyph glyph-name="afii10061" unicode="&#x40c;" horiz-adv-x="1085" 
d="M1035 11q-97 -24 -163 -25h-4q-70 0 -103 36q-26 29 -113 279q-35 95 -64 142q-50 63 -94 69q-34 5 -126 7v-411q92 -12 118 -22v-86h-436v82q34 16 126 22v843q-92 6 -126 22v81h436v-81q-26 -10 -118 -22v-342q99 1 135 7q68 12 140 172q89 229 94 237q27 43 97 43
q66 0 146 -29l-34 -123q-18 4 -36 5h-2q-25 0 -39 -19q-7 -9 -61 -163q-59 -139 -106 -173q-7 -5 -19 -7q74 -20 148 -175q20 -48 41 -114l23 -84q11 -28 40 -40q21 -8 57 -8h36zM430.5 1157.31q70.002 191.104 95.2021 228.204q3.5 4.90039 7 5.59961h1.40039
q4.2002 0 9.09961 -2.7998q6.30078 -2.7998 47.6006 -32.2002q42.001 -28.7012 46.9014 -33.6006q5.59961 -4.90039 5.59961 -9.10059v-1.40039q0 -2.7998 -2.7998 -7q-16.0996 -22.4004 -100.102 -97.3008l-81.2012 -70.7021z" />
    <glyph glyph-name="afii10062" unicode="&#x40e;" horiz-adv-x="1034" 
d="M1004 1050v-82q-17 -10 -120 -21q-57 -192 -132 -397q-152 -422 -197 -493q-51 -81 -140 -81q-73 0 -123 45q-25 23 -35 46l53 76q35 -29 79 -29q38 0 60 28q16 19 38 74l-326 731q-129 11 -131 21v82h454v-82q-27 -12 -123 -21l195 -519l3 -80l198 599q-96 9 -117 21v82
h364zM471 1355q0 -37 26.5 -63.5t63.5 -26.5t63.5 26.5t26.5 63.5h74q0 -63 -43.5 -106.5t-120.5 -43.5t-120.5 43.5t-43.5 106.5h74z" />
    <glyph glyph-name="afii10145" unicode="&#x40f;" horiz-adv-x="1142" 
d="M457 0h-407v83q2 9 120 20v844q-118 11 -120 20v83h418v-83q-8 -11 -103 -20v-852h412v852q-95 9 -103 20v83h418v-83q-2 -9 -120 -20v-844q118 -11 120 -20v-83h-425v-279h-151z" />
    <glyph glyph-name="afii10017" unicode="&#x410;" horiz-adv-x="1104" 
d="M671 373l-156 540l-154 -540h310zM949 103q118 -11 120 -21v-82h-432v82q7 12 112 21l-53 185h-363l-51 -185q92 -11 101 -21v-82h-348v82q32 16 110 21l266 854q-46 1 -68 11v82h313z" />
    <glyph glyph-name="afii10018" unicode="&#x411;" horiz-adv-x="947" 
d="M696 297v16q-3 198 -231 198h-27q-29 0 -66 -5v-412q107 -3 147 -3q80 0 129 55q48 61 48 151zM372 940v-337q69 10 131 10q29 0 79 -2q145 -10 228 -81q87 -82 87 -226q0 -132 -74 -209q-80 -85 -264 -95h-509v82q8 10 126 21v844q-118 11 -126 21v82h739l41 -222h-75
l-70 132z" />
    <glyph glyph-name="afii10019" unicode="&#x412;" horiz-adv-x="980" 
d="M700 270q1 17 1 33q0 80 -38 124q-54 61 -176 67h-105v-387q40 -5 84 -5q220 3 234 168zM382 585q3 0 62 -1h72q93 6 143 57q42 44 42 121q0 13 -1 26q-12 159 -218 161q-12 0 -40.5 -1t-59.5 -5v-358zM695 545q235 -56 235 -261q0 -158 -125 -227q-104 -57 -300 -57
h-455v82q15 10 133 21v844q-118 11 -133 21v82h431q190 0 291 -53q118 -62 129 -207q1 -11 1 -22q0 -82 -54 -142q-57 -65 -153 -81z" />
    <glyph glyph-name="afii10020" unicode="&#x413;" horiz-adv-x="888" 
d="M853 828h-75l-68 135l-314 -24v-836q118 -11 150 -20v-83h-496v83q32 9 150 20v847q-118 11 -150 21v79h762z" />
    <glyph glyph-name="afii10021" unicode="&#x414;" horiz-adv-x="1130" 
d="M730 93v864h-265q-54 -709 -156 -864h421zM1100 93v-333h-125l-79 240h-662l-79 -240h-125v333h137q75 87 141 491q23 192 30 363q-107 11 -130 20v83h824v-83q-2 -9 -110 -20v-854h178z" />
    <glyph glyph-name="afii10022" unicode="&#x415;" horiz-adv-x="898" 
d="M396 491v-381l324 -13l68 125h75l-41 -222h-772v83q32 9 150 20v847q-118 11 -150 21v79h762l41 -222h-75l-68 125l-314 -13v-365h247q7 42 15 64q4 11 6 11h46v-230h-46q-11 20 -21 75z" />
    <glyph glyph-name="afii10024" unicode="&#x416;" horiz-adv-x="1549" 
d="M1499 10q-98 -24 -164 -25h-4q-71 0 -104 36q-27 30 -114 271q-36 97 -65 144q-40 64 -85 70q-34 4 -96 7v-405q103 -12 129 -22v-1q5 -2 7 -3v-82h-458v82q3 1 8 3v1q26 10 129 22v405q-62 -3 -97 -7q-74 -10 -149 -214q-87 -241 -114 -271q-33 -36 -104 -36h-4
q-66 1 -164 25l7 124h36q37 0 58 8q29 12 40 41l23 74q21 68 41 116q85 156 160 177q-12 1 -19 7q-48 34 -117 174q-55 156 -62 165q-13 18 -38 18h-3q-18 0 -36 -4l-34 124q80 29 146 29q72 0 99 -43q5 -9 94 -240q62 -161 132 -173q36 -6 105 -7v346q-103 6 -137 22v82
h458v-82q-33 -16 -136 -22v-346q69 1 105 7q70 12 132 173q89 231 94 240q27 43 98 43q67 0 147 -29l-34 -124q-18 4 -36 4h-3q-25 0 -38 -18q-7 -9 -62 -165q-69 -140 -117 -174q-7 -6 -20 -7q76 -21 161 -177q20 -48 41 -116l23 -74q11 -29 40 -41q21 -8 58 -8h36z" />
    <glyph glyph-name="afii10025" unicode="&#x417;" horiz-adv-x="825" 
d="M512 556q113 -28 184 -87q89 -83 89 -191q0 -162 -131 -236q-100 -56 -263 -56q-18 0 -37 1q-139 4 -241 50q-50 22 -73 44l55 236l90 -18q-1 -18 -1 -33q0 -75 19 -110q38 -83 151 -83q97 0 159 48q60 50 67 142q1 16 1 31q0 87 -44 130q-65 73 -246 73h-61v105h59
q132 0 202 50q67 39 67 121v7q0 38 -7 76q-11 50 -47 83q-60 41 -143 41q-16 0 -32 -1q-92 -9 -113 -92q-10 -39 -10 -73q0 -21 4 -44l-93 -21l-54 198q16 27 60 55q87 56 207 61q20 1 40 1q366 0 387 -267q1 -8 1 -15q0 -86 -74 -163q-71 -55 -172 -63z" />
    <glyph glyph-name="afii10026" unicode="&#x418;" horiz-adv-x="1170" 
d="M1120 967q-2 -9 -120 -20v-844q118 -11 120 -20v-83h-419v83q8 11 103 20v616l-438 -545v-71q95 -9 103 -20v-83h-419v83q2 9 120 20v844q-118 11 -120 20v83h419v-83q-8 -11 -103 -20v-614l438 545v69q-95 9 -103 20v83h419v-83z" />
    <glyph glyph-name="afii10027" unicode="&#x419;" horiz-adv-x="1170" 
d="M1120 967q-2 -9 -120 -20v-844q118 -11 120 -20v-83h-419v83q8 11 103 20v616l-438 -545v-71q95 -9 103 -20v-83h-419v83q2 9 120 20v844q-118 11 -120 20v83h419v-83q-8 -11 -103 -20v-614l438 545v69q-95 9 -103 20v83h419v-83zM915 1299q9 -21 12 -37q-9 -26 -38 -51
q-30 -26 -74 -46q-101 -46 -230 -46t-230 46q-44 20 -74 46q-29 25 -37 51q2 16 11 37q17 51 49 69q20 11 41 11h3q23 -1 47 -17q21 -13 31 -45q4 -12 11 -54q5 -32 44 -47t104 -15t104 15t44 47q7 42 11 54q10 32 31 45q24 16 47 17h3q21 0 41 -11q32 -18 49 -69z" />
    <glyph glyph-name="afii10028" unicode="&#x41a;" horiz-adv-x="1075" 
d="M1035 11q-97 -24 -163 -25h-4q-70 0 -103 36q-26 29 -113 279q-35 95 -64 142q-50 63 -94 69q-34 5 -126 7v-411q92 -12 118 -22v-86h-436v82q34 16 126 22v843q-92 6 -126 22v81h436v-81q-26 -10 -118 -22v-342q99 1 135 7q68 12 140 172q89 229 94 237q27 43 97 43
q66 0 146 -29l-34 -123q-18 4 -36 5h-2q-25 0 -39 -19q-7 -9 -61 -163q-59 -139 -106 -173q-7 -5 -19 -7q74 -20 148 -175q20 -48 41 -114l23 -84q11 -28 40 -40q21 -8 57 -8h36z" />
    <glyph glyph-name="afii10029" unicode="&#x41b;" horiz-adv-x="1046" 
d="M996 968q-2 -10 -120 -21v-844q118 -11 120 -20v-83h-417v83q7 11 102 20v852h-283v-159q0 -367 -46 -586q-50 -224 -184 -224h-4q-93 2 -129 55l40 109q29 -20 75 -12q55 13 89 180q38 166 38 397v232q-108 11 -131 21v82h850v-82z" />
    <glyph glyph-name="afii10030" unicode="&#x41c;" horiz-adv-x="1393" 
d="M1238 103q118 -11 120 -20v-83h-423v83q8 11 93 20l-61 704l-6 -51l-254 -756h-90l-257 756l-7 51l-59 -704q75 -9 82 -20v-83h-341v83q2 9 120 20l75 844q-118 11 -119 20v83h353l225 -737h4l237 737h346v-83q-2 -9 -120 -20z" />
    <glyph glyph-name="afii10031" unicode="&#x41d;" horiz-adv-x="1168" 
d="M1118 967q-2 -9 -130 -20v-844q128 -11 130 -20v-83h-435v83q7 11 112 20v388h-422v-388q105 -9 112 -20v-83h-435v83q2 9 130 20v844q-128 11 -130 20v83h435v-83q-7 -11 -112 -20v-370h422v370q-105 9 -112 20v83h435v-83z" />
    <glyph glyph-name="afii10032" unicode="&#x41e;" horiz-adv-x="1075" 
d="M752 224q74 119 74 280v26q-7 187 -96 309q-87 119 -201 119h-8q-119 -4 -198 -132q-73 -119 -73 -289v-27q6 -177 95 -299q87 -119 201 -119h8q119 4 198 132zM538 1064q205 0 353 -146q149 -157 149 -388q0 -221 -149 -388q-148 -156 -353 -156q-206 0 -354 146
q-149 157 -149 377q0 232 149 399q148 156 354 156z" />
    <glyph glyph-name="afii10033" unicode="&#x41f;" horiz-adv-x="1152" 
d="M1102 967q-2 -9 -120 -20v-844q118 -11 120 -20v-83h-418v83q8 11 103 20v852h-422v-852q95 -9 103 -20v-83h-418v83q2 9 120 20v844q-118 11 -120 20v83h1052v-83z" />
    <glyph glyph-name="afii10034" unicode="&#x420;" horiz-adv-x="922" 
d="M479 530q129 0 182 60q45 51 45 163q0 83 -48 141q-48 56 -129 65q-32 3 -60 3h-14q-38 0 -83 -6v-399q39 -27 107 -27zM534 429q-23 -1 -44 -1q-63 0 -118 12v-337q135 -11 143 -21v-82h-465v82q8 10 126 21v844q-118 11 -126 21v82h519q164 0 244 -85q74 -77 74 -219
q0 -152 -110 -243q-93 -68 -243 -74z" />
    <glyph glyph-name="afii10035" unicode="&#x421;" horiz-adv-x="917" 
d="M554 971q-151 0 -231 -136q-72 -121 -72 -313q0 -182 98 -303q88 -110 210 -119q13 -1 26 -1q121 0 203 88l55 -49q-20 -38 -71 -76q-101 -76 -254 -76q-209 0 -345 136q-138 139 -138 360q0 232 140 403q148 179 368 179q99 0 202 -27q83 -22 122 -46l-39 -246l-84 19
q2 13 2 27q0 38 -15 77q-41 103 -177 103z" />
    <glyph glyph-name="afii10036" unicode="&#x422;" horiz-adv-x="1043" 
d="M1008 827h-85l-59 135l-244 -22v-837q116 -11 149 -20v-83h-495v83q33 9 148 20v837l-243 22l-59 -135h-85l49 223h883z" />
    <glyph glyph-name="afii10037" unicode="&#x423;" horiz-adv-x="1034" 
d="M1004 1050v-82q-17 -10 -120 -21q-57 -192 -132 -397q-152 -422 -197 -493q-51 -81 -140 -81q-73 0 -123 45q-25 23 -35 46l53 76q35 -29 79 -29q38 0 60 28q16 19 38 74l-326 731q-129 11 -131 21v82h454v-82q-27 -12 -123 -21l195 -519l3 -80l198 599q-96 9 -117 21v82
h364z" />
    <glyph glyph-name="afii10038" unicode="&#x424;" horiz-adv-x="1284" 
d="M549 902q-30 14 -68 22q-23 8 -45 8q-65 0 -122 -70q-80 -99 -80 -266q0 -168 73 -261q63 -80 146 -84h7q50 0 89 26v625zM735 277q39 -26 80 -26h6q93 4 156 84q73 93 73 261q0 167 -80 266q-57 70 -122 70q-22 0 -45 -8q-38 -8 -68 -22v-625zM831 172q-54 0 -96 11v-80
q118 -11 119 -21v-82h-425v82q25 11 120 21v80q-42 -11 -96 -11q-179 0 -291 101q-127 114 -127 320q0 216 119 334q92 91 216 91q32 0 66 -6q61 -11 113 -38v89q-55 10 -80 21v72h345v-72q-1 -10 -79 -21v-89q52 27 113 38q34 6 66 6q124 0 216 -91q119 -118 119 -334
q0 -206 -127 -320q-112 -101 -291 -101z" />
    <glyph glyph-name="afii10039" unicode="&#x425;" horiz-adv-x="1111" 
d="M1044 1050v-82q-2 -10 -120 -21l-267 -396l300 -448q118 -11 119 -21v-82h-437v82q7 12 103 21l-218 315l-209 -315q95 -9 103 -21v-82h-383v82q2 10 120 21l285 418l-275 426q-118 11 -120 21v82h437v-82q-7 -12 -102 -21l194 -314l206 314q-95 9 -102 21v82h366z" />
    <glyph glyph-name="afii10040" unicode="&#x426;" horiz-adv-x="1222" 
d="M1172 93v-333h-125l-79 240h-918v83q1 0 120 11v852q-119 11 -120 21v83h430v-83q-18 -11 -114 -21v-852h431v852q-96 10 -103 21v83h420v-83q-2 -10 -120 -21v-853h178z" />
    <glyph glyph-name="afii10041" unicode="&#x427;" horiz-adv-x="1132" 
d="M1082 968q-2 -10 -120 -21v-844q118 -11 120 -21v-82h-437v82q7 12 122 21v385q-108 -83 -264 -83q-214 0 -307 124q-41 62 -41 134v284q-118 11 -120 21v82h417v-82q-7 -12 -102 -21v-281q0 -44 27 -89q41 -58 161 -58q143 0 229 83v345q-95 9 -102 21v82h417v-82z" />
    <glyph glyph-name="afii10042" unicode="&#x428;" horiz-adv-x="1689" 
d="M50 0v83q2 9 120 20v844q-118 11 -120 21v82h425v-82q-15 -12 -110 -21v-854h382v854q-108 11 -108 21v82h403v-82q-15 -12 -100 -21v-854h382v854q-95 9 -100 21v82h415v-82q-2 -10 -120 -21v-844q118 -11 120 -20v-83h-1589z" />
    <glyph glyph-name="afii10043" unicode="&#x429;" horiz-adv-x="1747" 
d="M1697 93v-333h-125l-79 240h-1443v83q2 9 120 20v844q-118 11 -120 21v82h425v-82q-15 -12 -110 -21v-854h382v854q-108 11 -108 21v82h403v-82q-15 -12 -100 -21v-854h382v854q-95 9 -100 21v82h415v-82q-2 -10 -120 -21v-854h178z" />
    <glyph glyph-name="afii10044" unicode="&#x42a;" horiz-adv-x="1129" 
d="M878 297v16q0 200 -245 208h-13q-39 0 -66 -5v-422q107 -3 147 -3q80 0 129 55q48 61 48 151zM667 1050v-82q-8 -10 -113 -21v-334q69 10 131 10q29 0 59 -2q155 -10 238 -81q97 -82 97 -236q0 -132 -74 -209q-80 -85 -264 -95h-509v82q8 10 126 21v838l-186 10l-55 -121
h-82l47 220h585z" />
    <glyph glyph-name="afii10045" unicode="&#x42b;" horiz-adv-x="1416" 
d="M1245 103q118 -11 120 -20v-83h-435v83q25 11 120 20v844q-95 9 -120 20v83h435v-83q-2 -9 -120 -20v-844zM696 297v16q0 200 -245 208h-13q-39 0 -66 -5v-422q107 -3 147 -3q80 0 129 55q48 61 48 151zM372 612q69 10 131 10q29 0 59 -2q154 -10 237 -81q97 -81 97 -235
q0 -132 -74 -209q-80 -85 -263 -95h-509v82q8 10 126 21v844q-118 11 -126 21v82h435v-82q-8 -10 -113 -21v-335z" />
    <glyph glyph-name="afii10046" unicode="&#x42c;" horiz-adv-x="932" 
d="M696 297v16q0 200 -245 208h-13q-39 0 -66 -5v-422q107 -3 147 -3q80 0 129 55q48 61 48 151zM372 613q59 10 131 10q29 0 59 -2q155 -10 238 -81q97 -82 97 -236q0 -132 -74 -209q-80 -85 -264 -95h-509v82q8 10 126 21v844q-118 11 -126 21v82h435v-82q-8 -10 -113 -21
v-334z" />
    <glyph glyph-name="afii10047" unicode="&#x42d;" horiz-adv-x="903" 
d="M388 1064q205 0 335 -133q130 -152 130 -376q0 -237 -122 -410q-124 -147 -316 -158q-22 -1 -43 -1q-228 0 -312 131l39 189l84 -19q-2 -14 -2 -28q0 -40 15 -80q40 -108 175 -108q124 0 192 112q69 113 69 302q-28 4 -91 21q-57 15 -88 18q-13 1 -25 1q-74 0 -134 -35
l-48 56q8 20 35 40q53 39 151 39q39 0 101 -13q64 -14 96 -15q0 167 -80 271q-76 110 -199 110q-108 0 -153 -95q-32 -78 -33 -126l-75 -13l-39 190q42 66 141 101q80 29 173 29h24z" />
    <glyph glyph-name="afii10048" unicode="&#x42e;" horiz-adv-x="1516" 
d="M1196 222q74 123 74 294v13q-3 180 -85 305q-81 123 -191 123h-4q-113 -2 -190 -129q-75 -123 -75 -294v-13q4 -180 86 -305q81 -123 191 -123h4q113 2 190 129zM998 1064q197 0 340 -157q143 -160 143 -382t-143 -382q-143 -157 -340 -157q-186 0 -325 142
q-140 143 -156 350h-152v-374q95 -9 102 -21v-83h-417v83q2 10 120 21v842q-118 11 -120 21v83h417v-83q-27 -12 -102 -21v-378h151q11 201 152 349q141 147 330 147z" />
    <glyph glyph-name="afii10049" unicode="&#x42f;" horiz-adv-x="1055" 
d="M683 945q-40 4 -94 4q-239 -4 -253 -168q-1 -13 -1 -25q0 -85 50 -133q62 -60 207 -60q35 0 91 3v379zM1005 968q-8 -10 -126 -21v-844q118 -11 126 -20v-83h-415v83q8 9 93 20v367q-58 -1 -103 -3q-43 -3 -77 -55q-26 -39 -55 -123q-85 -218 -120 -257q-42 -46 -144 -46
h-4q-84 1 -135 32l7 121q24 -4 38 -4q81 0 109 61q3 6 28 70q21 57 42 96q64 121 155 138q-130 17 -205 74q-91 69 -91 193q0 146 124 218q111 65 288 65h465v-82z" />
    <glyph glyph-name="afii10065" unicode="&#x430;" horiz-adv-x="841" 
d="M497 381q-63 18 -135 18q-118 -3 -141 -89q-8 -31 -8 -59q0 -49 25 -87q36 -55 100 -55q6 0 13 1q83 6 146 60v211zM806 55l-257 -68l-41 101q-68 -63 -128 -83q-48 -19 -92 -19h-4q-70 0 -132 34q-112 61 -112 211q0 156 115 216q67 35 164 35q69 0 177 -18
q0 101 -5 145t-29 81q-29 38 -104 43q-99 -3 -100 -53t-12 -74t-57 -40q-6 -1 -11 -1q-47 0 -66 51q-21 57 -23 102q87 86 257 86q204 0 282 -105q47 -66 50 -187v-358l110 -18z" />
    <glyph glyph-name="afii10066" unicode="&#x431;" horiz-adv-x="840" 
d="M555 164q47 90 47 217v10q-2 133 -55 225q-53 83 -130 83h-2q-79 -2 -130 -87q-47 -90 -47 -217v-10q2 -134 55 -226q53 -82 131 -82h2q78 1 129 87zM420 790q17 1 34 1q150 0 246 -112q100 -115 100 -291q0 -166 -112 -284q-111 -118 -268 -118q-149 3 -254 108
q-97 112 -116 294q-5 50 -5 100v9q0 218 96 388q55 111 162 167q84 48 263 62q79 7 106 13q45 11 55 46h54q-3 -61 -19 -112q-32 -112 -100 -112q-53 0 -123.5 10.5t-98.5 10.5h-8q-82 -1 -136 -68q-90 -112 -136 -313q7 15 9 17q61 111 136 153q45 25 115 31z" />
    <glyph glyph-name="afii10067" unicode="&#x432;" horiz-adv-x="804" 
d="M586 203q1 13 1 25q0 60 -29 93q-40 46 -140 46h-76v-284q30 -4 71 -4q173 0 173 124zM342 444h98q77 0 115 38q32 34 32 92q0 9 -1 19q-10 118 -180 118q-40 0 -64 -4v-263zM584 410q185 -42 185 -196q0 -119 -94 -171q-79 -43 -233 -43h-392v83q15 9 113 20v584
q-98 11 -113 20v83h405q135 0 197 -37q87 -47 95 -159q1 -8 1 -17q0 -61 -40 -106q-43 -49 -124 -61z" />
    <glyph glyph-name="afii10068" unicode="&#x433;" horiz-adv-x="758" 
d="M723 588h-75l-68 115l-214 -9v-591q98 -11 130 -20v-83h-446v83q32 9 130 20v587q-98 11 -130 21v79h632z" />
    <glyph glyph-name="afii10069" unicode="&#x434;" horiz-adv-x="972" 
d="M595 93v604h-205q-24 -429 -106 -604h311zM932 93v-313h-95l-69 220h-569l-69 -220h-95v313h117q75 107 111 361q13 126 20 233q-97 11 -120 21v82h711v-82q-2 -10 -100 -21v-594h158z" />
    <glyph glyph-name="afii10070" unicode="&#x435;" horiz-adv-x="767" 
d="M403 734q-55 0 -100 -56q-47 -58 -59 -165h306q-10 104 -47 163q-37 58 -100 58zM431 74q19 -2 37 -2q115 0 190 89l45 -42q-47 -64 -97 -92q-72 -41 -180 -41q-20 0 -41 1q-168 11 -258 107q-91 98 -91 265q-1 17 -1 34q10 151 91 267q103 131 257 143q17 1 33 1
q131 0 215 -80q86 -94 96 -290h-489v-39q0 -150 57 -235q51 -77 136 -86z" />
    <glyph glyph-name="afii10072" unicode="&#x436;" horiz-adv-x="1332" 
d="M739 459h46q73 0 121 113q13 25 46 100q26 62 44 90q26 42 94 42q63 0 119 -31l-26 -114q-17 7 -34 8h-3q-24 0 -37 -18q-80 -199 -155 -227q7 0 12 -1q58 -13 111 -115q21 -36 68 -137q22 -46 83 -46h28l16 -113q-56 -23 -119 -24h-5q-83 0 -114 35q-21 23 -111 212
q-34 71 -60 106q-24 42 -56 42h-68v-278q88 -11 103 -20v-83h-372v83q15 9 103 20v278h-68q-32 0 -56 -42q-26 -35 -60 -106q-90 -189 -111 -212q-31 -35 -114 -35h-5q-63 1 -109 24l6 113h28q61 0 83 46q47 101 68 137q53 102 111 115q5 1 12 1q-75 28 -155 227
q-13 18 -37 18h-3q-17 -1 -34 -8l-26 114q56 31 119 31q68 0 94 -42q18 -28 44 -90q33 -75 46 -100q48 -113 121 -113h46v228q-88 11 -103 20v83h372v-83q-15 -9 -103 -20v-228z" />
    <glyph glyph-name="afii10073" unicode="&#x437;" horiz-adv-x="658" 
d="M427 410q84 -20 134 -65q62 -54 62 -138q0 -122 -100 -178q-77 -43 -204 -43h-22q-106 4 -194 38q-44 18 -67 34q-1 12 -1 24q0 83 38 122q14 14 35 14h3q33 0 45 -15q9 -11 17 -38q9 -33 17 -43q20 -61 107 -67q70 0 104 46q29 31 34 95q1 7 1 15q0 78 -50 118
q-41 35 -151 35q-26 0 -55 -2v84h68q90 0 133 29q53 43 53 112q0 6 -1 13q-10 135 -155 135q-64 -2 -77 -40q-3 -8 -7 -53q-4 -26 -14 -38q-13 -16 -29.5 -19.5t-28.5 -3.5q-15 0 -24 10q-40 42 -40 123v11q18 21 57 42q78 33 163 36q16 1 32 1q276 0 291 -203q1 -7 1 -14
q0 -64 -50 -114q-50 -49 -125 -63z" />
    <glyph glyph-name="afii10074" unicode="&#x438;" horiz-adv-x="968" 
d="M918 707q-2 -9 -100 -20v-584q98 -11 100 -20v-83h-368v83q8 11 83 20v405l-298 -364v-41q75 -9 83 -20v-83h-368v83q2 9 100 20v584q-98 11 -100 20v83h368v-83q-8 -11 -83 -20v-405l298 364v41q-75 9 -83 20v83h368v-83z" />
    <glyph glyph-name="afii10075" unicode="&#x439;" horiz-adv-x="968" 
d="M918 707q-2 -9 -100 -20v-584q98 -11 100 -20v-83h-368v83q8 11 83 20v405l-298 -364v-41q75 -9 83 -20v-83h-368v83q2 9 100 20v584q-98 11 -100 20v83h368v-83q-8 -11 -83 -20v-405l298 364v41q-75 9 -83 20v83h368v-83zM783 1033q8 -19 10 -34q-8 -23 -34 -46
q-27 -23 -67 -41q-91 -42 -208 -42t-208 42q-40 18 -67 41q-26 23 -34 46q2 15 10 34q16 46 45 62q18 10 37 10h3q20 -1 42 -15q19 -12 28 -41q4 -11 10 -49q5 -29 39 -46q36 -19 95 -19t95 19q34 17 39 46q6 38 10 49q9 29 28 41q22 14 42 15h3q19 0 37 -10q29 -16 45 -62z
" />
    <glyph glyph-name="afii10076" unicode="&#x43a;" horiz-adv-x="942" 
d="M902 10q-56 -23 -119 -24h-5q-83 0 -114 35q-21 23 -111 212q-34 71 -60 106q-34 41 -66 41h-78v-277q75 -9 92 -20v-83h-391v83q15 9 113 20v584q-98 11 -113 20v83h391v-83q-17 -11 -92 -20v-228h56q73 0 131 113q13 25 46 100q26 62 44 90q26 42 94 42q63 0 129 -31
l-26 -114q-17 7 -34 8h-3q-24 0 -37 -18q-90 -199 -165 -227q7 0 12 -1q58 -13 121 -115q21 -36 68 -137q22 -46 83 -46h28z" />
    <glyph glyph-name="afii10077" unicode="&#x43b;" horiz-adv-x="907" 
d="M857 707q-2 -9 -100 -20v-584q98 -11 100 -20v-83h-368v83q8 11 83 20v594h-204v-160q0 -316 -56 -442q-49 -119 -170 -119h-8q-39 2 -73 28q-17 14 -26 27l50 99q18 -11 55 -11q49 0 79 85q38 110 38 340v143q-98 11 -121 20v83h721v-83z" />
    <glyph glyph-name="afii10078" unicode="&#x43c;" horiz-adv-x="1253" 
d="M1103 103q98 -11 100 -20v-83h-363v83q8 11 83 20l-43 484l-6 -31l-218 -556h-100l-223 556l-7 31l-43 -484q75 -9 82 -20v-83h-315v83q2 9 100 20l59 584q-98 11 -100 20v83h314l201 -557h4l211 557h305v-83q-1 -9 -99 -20z" />
    <glyph glyph-name="afii10079" unicode="&#x43d;" horiz-adv-x="978" 
d="M928 707q-2 -9 -100 -20v-584q98 -11 100 -20v-83h-368v83q7 11 83 20v264h-308v-264q76 -9 83 -20v-83h-368v83q2 9 100 20v584q-98 11 -100 20v83h368v-83q-7 -11 -83 -20v-245h308v245q-76 9 -83 20v83h368v-83z" />
    <glyph glyph-name="afii10080" unicode="&#x43e;" horiz-adv-x="860" 
d="M579 174q41 77 46 174q1 12 1 24t-1 24v9q-7 133 -70 225q-55 84 -128 88q-6 0 -12 -1h-2q-81 -4 -133 -101q-40 -75 -45 -170v-61q7 -133 70 -225q56 -84 129 -88h10l2 1q82 4 133 101zM435 804q194 0 299 -120q96 -109 96 -289q0 -172 -113 -289q-116 -120 -292 -120
q-196 0 -300 120q-95 109 -95 289q0 175 121 294q119 115 284 115z" />
    <glyph glyph-name="afii10081" unicode="&#x43f;" horiz-adv-x="958" 
d="M908 707q-2 -9 -100 -20v-584q98 -11 100 -20v-83h-368v83q7 11 83 20v598h-288v-598q76 -9 83 -20v-83h-368v83q2 9 100 20v584q-98 11 -100 20v83h858v-83z" />
    <glyph glyph-name="afii10082" unicode="&#x440;" horiz-adv-x="966" 
d="M687 172q47 87 47 203q0 13 -1 27q-6 133 -65 224q-60 90 -140 90q-93 0 -160 -102v-344q0 -93 63 -150q54 -49 119 -49h5q79 4 132 101zM542 802q18 2 36 2q133 0 234 -91q114 -113 114 -283q0 -190 -114 -324q-111 -120 -271 -120q-101 0 -173 34v-299q98 -5 130 -21
v-82h-422v82q8 10 106 21v927l-137 18v75l258 52l41 -94q28 41 89 71q56 27 109 32z" />
    <glyph glyph-name="afii10083" unicode="&#x441;" horiz-adv-x="700" 
d="M657 101q-15 -29 -53 -57q-77 -58 -193 -58q-177 1 -281 103q-95 106 -95 273q8 186 114 316q116 126 281 126q63 0 124 -22q75 -27 107 -76q4 -21 4 -39q0 -54 -33 -90q-16 -16 -47 -17h-3q-30 0 -48 16q-22 20 -32 51q-1 6 -10 52q-5 28 -17 40q-15 16 -51 16
q-79 0 -134 -105q-53 -98 -53 -228v-10q3 -133 61 -223t144 -96q11 -1 21 -1q48 0 82 19q26 15 63 54z" />
    <glyph glyph-name="afii10084" unicode="&#x442;" horiz-adv-x="895" 
d="M860 588h-75l-68 115l-177 -9v-591q98 -11 131 -20v-83h-447v83q33 9 131 20v591l-177 9l-68 -115h-75l41 202h743z" />
    <glyph glyph-name="afii10085" unicode="&#x443;" horiz-adv-x="947" 
d="M917 790v-82q-17 -10 -100 -21q-304 -955 -413 -1048q-40 -35 -100 -36q-26 0 -61 10q-56 21 -75 83l37 85q34 -17 88 -17q42 0 78 63q42 73 55 144l-285 716q-109 11 -111 21v82h405v-82q-28 -11 -103 -21l170 -493v-117l193 610q-65 10 -86 21v82h308z" />
    <glyph glyph-name="afii10086" unicode="&#x444;" horiz-adv-x="1140" 
d="M655 695v-599q28 -25 68 -25h6q78 4 129 101q49 94 49 230q0 143 -56 236q-54 79 -136 79q-7 0 -14 -1q-17 -1 -46 -21zM480 695q-29 20 -46 21q-7 1 -14 1q-82 0 -136 -79q-56 -93 -56 -236q0 -136 49 -230q51 -97 129 -101h6q40 0 68 25v599zM729 -14q-43 0 -74 10
v-275q98 -5 131 -21v-82h-437v82q33 16 131 21v275q-31 -10 -74 -10q-161 0 -264 109q-107 114 -107 304q0 178 95 295q89 109 221 109q19 0 39 -2q40 -4 90 -36v171l-138 17v76l313 61v-325q50 32 90 36q20 2 39 2q132 0 221 -109q95 -117 95 -295q0 -190 -107 -304
q-103 -109 -264 -109z" />
    <glyph glyph-name="afii10087" unicode="&#x445;" horiz-adv-x="919" 
d="M784 103q98 -11 100 -20v-83h-377v83q7 11 82 20l-146 205l-151 -205q75 -9 86 -20v-83h-343v83q15 9 113 20l216 279l-229 305q-98 11 -100 20v83h377v-83q-7 -11 -82 -20l142 -198l142 198q-75 9 -87 20v83h327v-83q-12 -9 -110 -20l-203 -274z" />
    <glyph glyph-name="afii10088" unicode="&#x446;" horiz-adv-x="1016" 
d="M966 93v-313h-95l-69 219h-752v84q2 9 100 20v584q-98 11 -100 20v83h378v-83q-18 -11 -93 -20v-594h288v594q-75 9 -82 20v83h367v-83q-2 -9 -100 -20v-594h158z" />
    <glyph glyph-name="afii10089" unicode="&#x447;" horiz-adv-x="953" 
d="M903 707q-2 -9 -100 -20v-584q98 -11 100 -20v-83h-388v83q7 11 103 20v249q-17 -14 -52 -27q-61 -24 -142 -24h-23q-77 4 -142 37q-56 29 -84 68q-40 58 -40 120v161q-98 11 -100 20v83h368v-83q-7 -11 -83 -20v-162q0 -32 18 -65q37 -65 130 -65q71 0 117 32
q23 16 33 32v228q-76 9 -83 20v83h368v-83z" />
    <glyph glyph-name="afii10090" unicode="&#x448;" horiz-adv-x="1400" 
d="M1350 707q-2 -9 -100 -20v-584q98 -11 100 -20v-83h-1300v83q2 9 100 20v584q-98 11 -100 20v83h378v-83q-18 -11 -93 -20v-594h272v594q-98 11 -99 20v83h377v-83q-17 -11 -92 -20v-594h272v594q-75 9 -82 20v83h367v-83z" />
    <glyph glyph-name="afii10091" unicode="&#x449;" horiz-adv-x="1458" 
d="M1408 93v-313h-95l-69 220h-1194v83q2 9 100 20v584q-98 11 -100 20v83h376v-83q-16 -11 -91 -20v-594h272v594q-97 11 -97 20v83h372v-83q-14 -11 -89 -20v-594h272v594q-75 9 -81 20v83h366v-83q-2 -9 -100 -20v-594h158z" />
    <glyph glyph-name="afii10092" unicode="&#x44a;" horiz-adv-x="954" 
d="M744 210q1 8 1 16q0 63 -43 101q-52 45 -134 45q-47 0 -79 -9v-277q47 -3 88 -3q63 0 111 31q51 33 56 96zM489 444q79 10 142 10q35 0 68 -3q105 -11 163 -72q57 -60 57 -155q0 -113 -82 -170q-77 -54 -221 -54h-419v83q8 9 106 20v594l-146 10l-55 -127h-72l47 210h505
v-83q-28 -9 -93 -20v-243z" />
    <glyph glyph-name="afii10093" unicode="&#x44b;" horiz-adv-x="1254" 
d="M1104 103q98 -11 100 -20v-83h-385v83q25 11 100 20v584q-75 9 -100 20v83h385v-83q-2 -9 -100 -20v-584zM607 210q1 8 1 16q0 63 -43 101q-52 45 -134 45q-47 0 -89 -9v-277q57 -3 98 -3q63 0 111 31q51 33 56 96zM342 444q89 10 152 10q35 0 68 -3q105 -11 163 -72
q57 -60 57 -155q0 -113 -82 -170q-77 -54 -221 -54h-429v83q8 9 106 20v584q-98 11 -106 20v83h385v-83q-8 -9 -93 -20v-243z" />
    <glyph glyph-name="afii10094" unicode="&#x44c;" horiz-adv-x="807" 
d="M597 210q1 8 1 16q0 63 -43 101q-52 45 -134 45q-47 0 -79 -9v-277q47 -3 88 -3q63 0 111 31q51 33 56 96zM342 444q79 10 142 10q35 0 68 -3q105 -11 163 -72q57 -60 57 -155q0 -113 -82 -170q-77 -54 -221 -54h-419v83q8 9 106 20v584q-98 11 -106 20v83h385v-83
q-8 -9 -93 -20v-243z" />
    <glyph glyph-name="afii10095" unicode="&#x44d;" horiz-adv-x="698" 
d="M288 804q167 0 271 -98q104 -109 104 -288q0 -171 -88 -296q-110 -127 -257 -135q-18 -1 -36 -1q-170 0 -234 99q-4 21 -4 39q0 54 33 90q16 16 47 17q32 0 51 -17q22 -20 31 -50q2 -6 11 -42q5 -28 17 -40q15 -16 51 -16q77 0 129 71q62 82 62 224q-21 4 -70 16
q-43 12 -66 14q-11 1 -22 1q-55 0 -99 -26l-41 41q6 16 28 32q43 32 118 32q29 0 77 -10q48 -11 72 -11q-2 129 -57 210q-53 69 -147 69q-32 0 -46 -6q-13 -6 -18 -22q-2 -9 -6 -36q-7 -64 -34 -88q-19 -17 -51 -17q-31 1 -47 17q-27 30 -31 82q-1 9 -1 17q0 17 3 30
q32 50 107 76q61 22 143 22z" />
    <glyph glyph-name="afii10096" unicode="&#x44e;" horiz-adv-x="1262" 
d="M986 169q48 90 48 219v10q-2 135 -56 227q-54 93 -132 93h-2q-79 -2 -134 -97q-52 -93 -52 -220v-9q2 -134 60 -227q57 -93 135 -93h2q79 2 131 97zM850 804q157 0 267 -120q110 -119 110 -289t-110 -289q-110 -120 -267 -120q-149 0 -258 111q-107 109 -118 270h-139
v-264q75 -9 83 -20v-83h-368v83q2 9 100 20v584q-98 11 -100 20v83h368v-83q-8 -11 -83 -20v-245h141q17 154 123 257q107 105 251 105z" />
    <glyph glyph-name="afii10097" unicode="&#x44f;" horiz-adv-x="867" 
d="M274 587q-1 -9 -1 -18q0 -62 38 -99q47 -45 145 -45q26 0 69 2v280q-31 4 -71 4q-170 0 -180 -124zM817 707q-9 -9 -107 -20v-584q98 -11 107 -20v-83h-385v83q8 9 93 20v245q-51 0 -86 -2q-32 -2 -58 -41q-20 -30 -42 -93q-57 -162 -83 -191q-32 -35 -115 -35h-5
q-63 1 -101 24l5 99q18 -3 29 -3h3q41 0 55 24q15 25 35 74q16 42 28 70q49 88 131 101q-98 12 -155 55q-69 52 -69 146q0 110 94 165q84 49 233 49h393v-83z" />
    <glyph glyph-name="afii10071" unicode="&#x451;" horiz-adv-x="762" 
d="M295 841q-24 -27 -59 -27q-34 0 -59 27q-24 27 -24 66q0 38 24 65q25 27 59 27q35 0 59 -27q25 -27 25 -65q0 -39 -25 -66zM654 841q-24 -27 -58 -27q-35 0 -60 27q-24 27 -24 66q0 38 24 65q25 27 60 27q34 0 58 -27q25 -27 25 -65q0 -39 -25 -66zM403 734
q-55 0 -100 -56q-47 -58 -59 -165h306q-10 104 -47 163q-37 58 -100 58zM431 74q19 -2 37 -2q115 0 190 89l45 -42q-47 -64 -97 -92q-72 -41 -180 -41q-20 0 -41 1q-168 11 -258 107q-91 98 -91 265q-1 17 -1 34q10 151 91 267q103 131 257 143q17 1 33 1q131 0 215 -80
q86 -94 96 -290h-489v-39q0 -150 57 -235q51 -77 136 -86z" />
    <glyph glyph-name="afii10101" unicode="&#x454;" horiz-adv-x="689" 
d="M492 626q-2 6 -11 52q-5 28 -16 40q-16 16 -52 16q-87 0 -138 -81q-52 -82 -52 -224q24 0 75 10q50 11 79 11q74 0 118 -33q21 -16 28 -32l-41 -41q-44 26 -99 26q-11 0 -22 -1q-23 -2 -67 -13q-48 -13 -69 -16q12 -129 67 -200q54 -69 137 -69q23 0 36 6t18 22q3 9 6 36
q7 54 35 78q18 17 50 17q31 -1 47 -17q33 -36 33 -90q0 -18 -4 -39q-32 -50 -107 -76q-61 -22 -142 -22q-157 0 -261 109q-105 110 -105 279q0 171 98 295q100 126 247 134q18 1 36 1q170 0 234 -99q3 -13 3 -30q0 -8 -1 -17q-3 -52 -31 -82q-16 -16 -47 -17q-32 0 -50 17
q-23 20 -32 50z" />
    <glyph glyph-name="afii10103" unicode="&#x456;" horiz-adv-x="543" 
d="M280 877q-38 0 -66 27q-27 27 -27 65q0 39 27 66q28 27 66 27t65 -27q28 -27 28 -66q0 -38 -28 -65q-27 -27 -65 -27zM363 103q98 -5 130 -21v-82h-412v82q8 10 106 21v570l-137 17v75l313 35v-697z" />
    <glyph glyph-name="afii10104" unicode="&#x457;" horiz-adv-x="543" 
d="M141 877q-31 0 -53 27t-22 65q0 39 22 66t53 27t52 -27q23 -27 23 -66q0 -38 -23 -65q-21 -27 -52 -27zM363 103q98 -5 130 -21v-82h-412v82q8 10 106 21v570l-137 17v75l313 35v-697zM375 877q-31 0 -53 27t-22 65q0 39 22 66t53 27t52 -27q23 -27 23 -66q0 -38 -23 -65
q-21 -27 -52 -27z" />
    <glyph glyph-name="afii10050" unicode="&#x490;" horiz-adv-x="855" 
d="M820 1244v-278l-424 -27v-836q118 -11 150 -20v-83h-496v83q32 9 150 20v847q-118 11 -150 21v79h632l46 194h92z" />
    <glyph glyph-name="afii10098" unicode="&#x491;" horiz-adv-x="717" 
d="M682 992v-283l-316 -15v-591q98 -11 130 -20v-83h-446v83q32 9 130 20v587q-98 11 -130 21v79h490l58 202h84z" />
    <glyph glyph-name="OE" unicode="&#x152;" horiz-adv-x="1482" 
d="M744 221v615q-47 122 -215 122h-8q-119 -4 -198 -132q-73 -119 -73 -289v-27q6 -177 95 -299q87 -119 201 -119h8q142 4 190 129zM706 1050h650l41 -222h-75l-68 125l-314 -13v-365h247q7 42 15 64q4 11 6 11h46v-230h-46q-11 20 -21 75l-247 -4v-381l324 -13l68 125h75
l-41 -222h-594q-93 -11 -234 -14q-206 0 -354 146q-149 157 -149 377q0 232 149 399q148 156 354 156q97 -3 168 -14z" />
    <glyph glyph-name="oe" unicode="&#x153;" horiz-adv-x="1414" 
d="M609 174q41 77 46 174q1 12 1 24t-1 24v9q-7 133 -70 225q-55 84 -128 88q-6 0 -12 -1h-2q-81 -4 -133 -101q-40 -75 -45 -170v-61q7 -133 70 -225q56 -84 129 -88h10l2 1q82 4 133 101zM465 804q194 0 299 -120q96 -109 96 -289q0 -172 -113 -289q-116 -120 -292 -120
q-196 0 -300 120q-95 109 -95 289q0 175 121 294q119 115 284 115zM1030 734q-55 0 -100 -56q-47 -58 -59 -165h306q-10 104 -47 163q-37 58 -100 58zM1058 74q19 -2 37 -2q115 0 190 89l45 -42q-47 -64 -97 -92q-72 -41 -180 -41q-20 0 -41 1q-168 11 -258 107
q-91 98 -91 265q-1 17 -1 34q10 151 91 267q103 131 257 143q17 1 33 1q131 0 215 -80q86 -94 96 -290h-489v-39q0 -150 57 -235q51 -77 136 -86z" />
    <glyph glyph-name="perthousand" unicode="&#x2030;" horiz-adv-x="1592" 
d="M375 722q27 34 27 81v8q-3 54 -36 89q-32 34 -75 34h-2q-44 -2 -74 -38q-26 -34 -26 -83v-9q2 -51 35 -86q32 -34 74 -34h3q44 2 74 38zM295 1024q88 0 152 -58q63 -63 63 -155q0 -88 -63 -155q-64 -62 -152 -62t-152 58q-63 63 -63 151q0 92 63 159q64 62 152 62z
M927 970l-618 -980h-150l678 1070zM877 64q27 34 27 81v8q-3 54 -36 89q-32 34 -75 34h-2q-44 -2 -74 -38q-26 -34 -26 -83v-9q2 -51 35 -86q32 -34 74 -34h3q44 2 74 38zM797 366q88 0 152 -58q63 -63 63 -155q0 -88 -63 -155q-64 -62 -152 -62t-152 58q-63 63 -63 151
q0 92 63 159q64 62 152 62zM1377 64q27 34 27 81v8q-3 54 -36 89q-32 34 -75 34h-2q-44 -2 -74 -38q-26 -34 -26 -83v-9q2 -51 35 -86q32 -34 74 -34h3q44 2 74 38zM1297 366q88 0 152 -58q63 -63 63 -155q0 -88 -63 -155q-64 -62 -152 -62t-152 58q-63 63 -63 151
q0 92 63 159q64 62 152 62z" />
    <glyph glyph-name="CyrilicCapitalLetterTseWithTail" unicode="&#xf230;" horiz-adv-x="1229" 
d="M1098 82q81 -34 81 -136q0 -103 -45 -160q-43 -55 -121 -78q-24 -5 -76 -5q-155 0 -555 55h-8q-49 0 -76 -35q-15 -19 -19 -39h-45q-3 25 -3 48q0 57 21 97q38 71 114 79h11q58 0 293 -33q149 -21 239 -21q56 0 89 8q84 21 84 90q0 25 -19 37q-20 11 -68 11h-945v83
q1 0 120 11v852q-119 11 -120 21v83h430v-83q-18 -11 -114 -21v-852h431v852q-96 10 -103 21v83h420v-83q-2 -10 -120 -21v-845q73 -6 104 -19z" />
    <glyph glyph-name="CyrilicSmallLetterTseWithTail" unicode="&#xf231;" horiz-adv-x="1041" 
d="M911 81q31 -13 52 -42q28 -38 28 -93q0 -167 -164 -217q-46 -14 -116 -14q-75 0 -177 16q-47 7 -138 24q-71 14 -89 15h-5q-50 0 -78 -36q-15 -19 -19 -38h-44q-4 23 -4 44q0 51 21 90q38 71 113 78q5 1 13 1q57 0 236 -33q118 -22 194 -22q46 0 77 8q94 24 94 90
q0 48 -96 48h-759v83q2 9 100 20v584q-98 11 -100 20v83h378v-83q-18 -11 -93 -20v-594h287v594q-75 9 -82 20v83h367v-83q-2 -9 -100 -20v-587q74 -6 104 -19z" />
    <glyph glyph-name="CyrilicCapitalLetterShchaWithTail" unicode="&#xf232;" horiz-adv-x="1743" 
d="M1613 81q80 -33 80 -135q0 -96 -46 -168q-58 -63 -155 -85q-40 -10 -122 -10q-122 0 -338 22l-266 29q-141 15 -157 16q-13 3 -25 3q-36 0 -58 -29q-15 -19 -18 -38h-45q-4 26 -4 49q0 56 21 95q38 71 113 78h12q71 0 442 -32q233 -22 353 -22q72 0 103 8q104 24 104 90
q0 48 -96 48h-1461v83q2 9 120 20v844q-118 11 -120 21v82h425v-82q-15 -12 -110 -21v-854h382v854q-108 11 -108 21v82h403v-82q-15 -12 -100 -21v-854h382v854q-95 9 -100 21v82h415v-82q-2 -10 -120 -21v-847q64 -6 94 -19z" />
    <glyph glyph-name="CyrilicSmallLetterShchaWithTail" unicode="&#xf233;" horiz-adv-x="1458" 
d="M1344 81q31 -13 52 -42q28 -38 28 -93q0 -95 -46 -153q-47 -58 -125 -80q-39 -10 -112 -10q-108 0 -289 22q-79 9 -213 29q-104 15 -122 16h-5q-49 0 -78 -36q-14 -19 -18 -38h-45q-3 23 -3 43q0 52 21 91q37 71 113 78q5 1 14 1q66 0 351 -33q189 -22 293 -22q63 0 94 8
q84 24 84 90q0 48 -86 48h-1202v83q2 9 100 20v584q-98 11 -100 20v83h376v-83q-16 -11 -91 -20v-594h272v594q-97 11 -97 20v83h372v-83q-14 -11 -89 -20v-594h272v594q-75 9 -81 20v83h366v-83q-2 -9 -100 -20v-587q64 -6 94 -19z" />
    </font>
</defs>
</svg>
