<?xml version="1.0" standalone="no"?>
<!DOCTYPE svg PUBLIC "-//W3C//DTD SVG 1.1//EN" "http://www.w3.org/Graphics/SVG/1.1/DTD/svg11.dtd" >
<svg>
<metadata>
Created by FontForge 20090914 at Fri Feb 24 12:50:40 2012
 By root
Academy&#226;&#132;&#162; v. 1.0 - Copyright 1994, David F. Nalle - Scriptorium Font Library
</metadata>
<defs>
<font id="Academy" horiz-adv-x="250" >
  <font-face 
    font-family="Academy™"
    font-weight="400"
    font-stretch="normal"
    units-per-em="1000"
    panose-1="0 0 4 0 0 0 0 0 0 0"
    ascent="800"
    descent="-200"
    x-height="572"
    cap-height="736"
    bbox="3 -103 594 800"
    underline-thickness="20"
    underline-position="-123"
    unicode-range="U+0020-U+007A"
  />
<missing-glyph horiz-adv-x="500" 
d="M63 0v800h375v-800h-375zM125 63h250v675h-250v-675z" />
    <glyph glyph-name=".notdef" horiz-adv-x="500" 
d="M63 0v800h375v-800h-375zM125 63h250v675h-250v-675z" />
    <glyph glyph-name=".null" horiz-adv-x="0" 
 />
    <glyph glyph-name="nonmarkingreturn" horiz-adv-x="500" 
 />
    <glyph glyph-name="space" unicode=" " horiz-adv-x="500" 
 />
    <glyph glyph-name="quotedbl" unicode="&#x22;" horiz-adv-x="180" 
d="M104 728l60 3l-3 -73l-60 -103l3 63l23 40h-26zM23 727l60 3l-3 -73l-60 -103l3 63l23 40h-26z" />
    <glyph glyph-name="quotesingle" unicode="'" horiz-adv-x="104" 
d="M23 727l60 3l-3 -73l-60 -103l3 63l23 40h-26z" />
    <glyph glyph-name="comma" unicode="," horiz-adv-x="129" 
d="M17 70l60 3l-3 -73l-60 -103l3 63l23 40h-26z" />
    <glyph glyph-name="period" unicode="." horiz-adv-x="152" 
d="M17 73h66v-73h-66v73z" />
    <glyph glyph-name="A" unicode="A" horiz-adv-x="307" 
d="M297 -1h-148v79h22q4 3 4 18q0 100 -38 100q-25 0 -31 -19q-3 -7 -3 -34v-61q11 -3 30 -10v-75h-47h-74q8 25 -1 74q13 8 32 7q8 22 12 70q3 41 5 81q4 37 11 118q14 121 40 377q1 14 14 14q3 0 24.5 -3t39.5 -3l78 -650q10 -6 30 -5v-78zM159 258q-9 64 -28 183
l-17 -188z" />
    <glyph glyph-name="B" unicode="B" horiz-adv-x="292" 
d="M275 267q0 -103 -8 -148q-24 -125 -105 -125h-152v76q6 8 27 6q9 64 9 119v451q-4 4 -22 10q-14 6 -14 12v69h168q8 1 26 -9t27 -19q44 -48 44 -158q0 -62 -4 -80q-13 -55 -64 -79q50 -21 62 -57q6 -16 6 -68zM181 543q0 6 -3 45.5l-4 53.5l-15 12h-24v-222q9 -5 30 1
q16 23 16 110zM176 210q0 100 -7 125q-2 8 -12.5 13t-16.5 4l-11 -246q0 -18 12 -29h34q1 92 1 133z" />
    <glyph glyph-name="C" unicode="C" horiz-adv-x="236" 
d="M220 131q1 -48 -18 -86q-24 -49 -73 -49q-112 0 -112 192v449q0 39 23 67t58 28q6 0 21 -5t20 -5q8 0 12.5 6.5l4.5 6.5q42 6 41 6q9 1 18 1v-290h-65q-10 94 -13 190l-17 14q-3 0 -17 -14v-511q1 -40 19 -59q10 0 16 9q4 76 12 216h70v-166z" />
    <glyph glyph-name="D" unicode="D" horiz-adv-x="275" 
d="M261 249q0 -107 -6 -142q-19 -110 -89 -110h-152v75q35 4 35 32q0 4 -1 13.5t-1 14.5l-4 510q-10 6 -29 5v85h152q28 1 56 -35q25 -32 28 -59q1 -18 6 -56zM174 216l-5 264q-2 10 -2 29v23q1 16 1 24q0 78 -32 95v-567h22q16 28 16 132z" />
    <glyph glyph-name="E" unicode="E" 
d="M236 0h-220q0 -4 -2 16t-2 55q3 -2 15 3t20 12v555q-5 5 -36 20v73h225v-296q-18 3 -32 3q-10 0 -18.5 -1.5l-8.5 -1.5q-7 7 -7 208q-2 4 -9 14h-18q-9 -7 -10 -20v0q1 -19 -4 -56v-149q0 -29 -1 -14q1 -9 9 -9q65 0 69 -1v-86q-35 9 -77 0v-229q2 -7 9 -19h24l9 9v206
q10 3 31 2q37 -1 34 -1v-293z" />
    <glyph glyph-name="F" unicode="F" 
d="M241 443q-18 2 -60 -5q-5 90 -13 218q-4 4 -26 4q-9 -7 -9 -21v-222h82q-7 -31 0 -87q-6 -3 -77 0v-149q3 -80 2 -92q19 -19 39 -14v-77q-31 -3 -78 -2q-80 2 -81 2v72q11 -4 18 -4q15 0 17 17q1 1 1 31l-6 409q2 22 -1 60q-5 56 -5 63q-10 3 -29 16v70q5 0 37.5 1
t67.5 1q52 0 121 -2v-289z" />
    <glyph glyph-name="G" unicode="G" horiz-adv-x="319" 
d="M305 302q-3 -4 -12 -4q-20 2 -12 2q-11 -12 -11 -25q6 -174 6 -273q-8 -9 -18 -9q-17 0 -50 42q-27 -29 -45 -37q-11 -5 -33 -5q-120 0 -120 276q0 29 1.5 66t1.5 41v31q-1 27 -1 48q0 277 103 277q8 0 30 -12q27 -14 32 -16q3 10 11 34h78v-298q-12 11 -78 0q0 78 -1 92
q-5 63 -28 103h-23q-15 -21 -18 -53t-3 -153q0 13 5 -127q4 -128 2 -186q9 -18 23 -18q31 0 31 57v21q-1 13 -1 17.5t-3 46.5t-3 61q-13 4 -35 15v87h171v-101z" />
    <glyph glyph-name="H" unicode="H" horiz-adv-x="354" 
d="M343 644q-17 0 -37 -12v-523q3 -6 37 -24v-84q4 0 -77 -2q-47 -1 -76 2q0 29 1 88q9 -6 9 8v221q-8 10 -24 10q-15 0 -24 -11v-214q8 -6 21 -18v-84h-158v91q22 0 32 11v530q-4 4 -25 4l-7 8v77q13 14 24 13h129v-90q-21 -13 -21 -27q0 -1 1 -17q2 -19 3 -50
q1 -46 1 -120q10 -8 25 -8q17 0 23 14v189q-16 13 -16 49q1 59 1 60q25 0 64.5 1.5t42.5 1.5q42 0 51 -10v-84z" />
    <glyph glyph-name="I" unicode="I" horiz-adv-x="207" 
d="M192 1h-181v83q4 5 12 6q8 0 12 -4q14 14 14 43l4 499q-6 7 -16 11q-16 6 -17 7v89q9 -4 86 -4t89 5q10 -49 0 -97q-11 2 -22.5 -6.5t-9.5 -21.5l-4 -514q11 -7 33 -6v-90z" />
    <glyph glyph-name="J" unicode="J" horiz-adv-x="294" 
d="M284 650q-3 -2 -24 -4q-17 -2 -16 -8v-552q1 -27 -35 -60t-57 -33q-10 0 -29.5 9.5t-30.5 20.5q-4 -4 -4 -29h-67q-3 3 -11 13q0 87 -7 251q12 13 31 13q7 0 21.5 -3t20.5 -3l8 -99q10 -82 45 -82q19 0 23 23v29q0 7 -8.5 72.5t-8.5 73.5v284q0 57 -1 81q-5 1 -24 6
q-7 -1 -15 2v79h189v-84z" />
    <glyph glyph-name="K" unicode="K" horiz-adv-x="351" 
d="M341 669q-4 -5 -16.5 -9t-14.5 -9q-24 -46 -99 -221q13 -7 34 -25q29 -37 28 -58v-261q3 0 4.5 -3.5t3.5 -5.5q16 16 16 39v0q0 49 4 60h29q6 -12 6 -39q0 -47 -15 -85q-22 -54 -66 -54q-28 0 -53 29q-22 25 -22 48v244q0 17 -30 35q-9 0 -18 -9v-251q0 -12 36 -24v-68
q-73 -13 -155 0v68q6 7 26 6v572q-13 6 -32 22v65q-5 0 67 2q44 1 79 -2v-77h-17q-6 -6 0 -226q50 69 101 222q-7 4 -31 4v77q67 8 135 0v-66z" />
    <glyph glyph-name="L" unicode="L" horiz-adv-x="262" 
d="M247 0h-231v73q21 0 28 9v566q-13 3 -34 16v70h159q-7 -33 1 -75q-10 -6 -34 -6v-573q1 -6 8 -7h29v230h74v-303z" />
    <glyph glyph-name="M" unicode="M" horiz-adv-x="371" 
d="M366 657q-11 -7 -29 -6v-569q10 -2 29 -10v-74q-46 1 -152 0v69q11 3 30 15v412l-56 -498q-1 0 -11.5 -3t-16.5 -3l-61 520v-433q10 -3 30 -10l-1 -67h-112v62q14 6 27 15v565q-11 5 -31 15l-1 76h161q5 -52 23 -162q15 62 24 161q163 0 147 1v-76z" />
    <glyph glyph-name="N" unicode="N" horiz-adv-x="397" 
d="M386 659q-13 -3 -38 -20v-633h-73l-149 497v-395q14 -14 47 -12v-96h-159v87q8 10 34 9l6 382q-10 26 -10 57v0q0 7 4 50q2 25 -3 37q-7 16 -30 23v92h151l118 -395q3 9 1 59q-5 98 -5 237l-10 12q-6 -6 -22 -6q-11 52 0 96h138v-81z" />
    <glyph glyph-name="O" unicode="O" horiz-adv-x="263" 
d="M243 576l-5 -421q-12 -155 -116 -155q-110 0 -110 196q0 23 1.5 51t1.5 30l5 329q5 58 32 92q30 38 80 38q62 0 88 -54q17 -34 23 -106zM147 98v545q-17 16 -24 16l-16 -16v-545q3 -5 11 -16h17q3 6 12 16z" />
    <glyph glyph-name="P" unicode="P" horiz-adv-x="277" 
d="M265 506q0 -41 -13 -80q-17 -52 -50 -64l-70 -10v-263q4 -4 36 -14v-74h-152q-8 32 0 74q30 6 30 54l-5 513q-13 6 -30 21v69h154q18 1 49 -23t39 -70q12 -70 12 -133zM173 509q0 75 -12 134q-13 8 -22 8q-12 -18 -12 -61q0 -17 3.5 -55.5t3.5 -58.5q0 -31 -6 -53h44
q1 67 1 86z" />
    <glyph glyph-name="Q" unicode="Q" horiz-adv-x="263" 
d="M243 576l-5 -421q-12 -155 -116 -155q-110 0 -110 196q0 23 1.5 51t1.5 30l5 329q5 58 32 92q30 38 80 38q62 0 88 -54q17 -34 23 -106zM147 98v545q-17 16 -24 16l-16 -16v-545q3 -5 11 -16h17q3 6 12 16zM186 22l10 -22h45q-23 58 -21 63q-3 -1 -6 -1l-18 -25z" />
    <glyph glyph-name="R" unicode="R" horiz-adv-x="350" 
d="M339 121q0 -35 -20 -75q-26 -52 -65 -52q-9 0 -26 10t-27 22q-19 24 -19 116t-2 129q0 20 1 40q-3 27 -26 40q-9 0 -18 -9v-257q5 -5 25 -4q6 -27 6 -81h-74q-60 -1 -74 -1l-7 7v54q3 10 34 21v561q-7 10 -28 10v76q30 6 90 6q55 0 73 -2q95 -11 95 -184q0 -59 -6 -84
q-13 -57 -56 -70q-1 -2 4 -6q58 -23 58 -105q0 -15 -2 -42t-2 -37q0 5 -1 -39q-1 -29 1 -48q3 -25 12 -35q12 18 12 41q0 8 -4 40l12 12h28q0 -8 3 -28t3 -26zM184 535q0 75 -7 104q-5 3 -15 12h-24v-222h29q17 18 17 106z" />
    <glyph glyph-name="S" unicode="S" horiz-adv-x="291" 
d="M285 171q0 -55 -25 -109q-32 -70 -87 -70q-19 0 -71 37q-3 -3 -1 -12q3 -14 4 -18q-43 -10 -86 0l-4 259q2 9 4 17t12 8q6 0 28.5 -3.5t32.5 -3.5q8 -78 9 -83q7 -51 18 -79q4 -10 15.5 -19.5t20.5 -9.5q13 0 20 16q4 10 4 18q0 63 -41 142l-78 136q-41 83 -41 155
q0 55 21 108q31 75 90 75q17 0 31 -11q3 -2 34 -33q6 11 4 43h67l12 -1v-257q-36 1 -79 -1v88q-5 61 -48 85q-21 -9 -26 -25q-1 -5 -1 -28q0 -35 61 -139q70 -119 78.5 -144t15.5 -78q6 -45 6 -63z" />
    <glyph glyph-name="T" unicode="T" horiz-adv-x="340" 
d="M317 452q-2 -1 -68 -1q-3 8 -3 45q-1 80 -3 159q-13 5 -32 -6v-563q1 -2 2 -5.5t9 -3.5q12 0 25 -1q-1 -25 -1 -76h-158q-9 30 -6 71q9 8 28 9q10 1 8 15l5 555l-9 9h-22v-212q-20 -1 -55 -7q-7 6 -18 18v283h298v-289z" />
    <glyph glyph-name="U" unicode="U" horiz-adv-x="386" 
d="M372 651q-15 -3 -42 -13q-1 -6 -1 -66v-220q0 -1 -3 -47q-3 -42 -2 -64q5 -110 -19 -168q-33 -79 -123 -79q-58 0 -97 45q-37 42 -37 96v504q-5 6 -29 5q-5 8 -5 29q0 7 -1 32t-1 31h178q8 -15 8 -43t-3 -34q-7 -3 -15 -7q-14 -6 -14 -14l7 -485q0 -27 28 -40
q9 4 22 24.5t13 29.5v478q-12 12 -25 12v76h161v-82z" />
    <glyph glyph-name="V" unicode="V" horiz-adv-x="406" 
d="M392 634q0 -12 -19.5 -16t-23.5 -17q-29 -125 -54 -301l-40 -305q-40 2 -97 0q-28 231 -106 613q-11 24 -41 19v106q19 4 70 2q73 -3 118 -2v-106h-28q-3 -19 -3 -38q0 -38 15 -108q16 -77 19 -120l13 -18q9 42 25.5 129t25.5 129q-10 12 -24 18l-24 11v102l174 1v-99z
" />
    <glyph glyph-name="W" unicode="W" horiz-adv-x="609" 
d="M594 638q0 -12 -15.5 -13.5t-30.5 -2.5q-38 -117 -75 -338q-15 -85 -57 -290h-67l-60 398q-29 -84 -51 -251q-17 -141 -22 -141q-13 0 -40.5 -3t-30.5 -3q2 22 -5 57q-6 29 -11 57l-62 390q-4 42 -9 84q-10 53 -45 62v90h174q2 -26 -3 -89q-21 -3 -22 -7q-2 -2 0 -37
q3 -83 41 -284q22 77 31 92q3 5 13 61q6 33 12 85v72q-13 4 -43 18v90q5 0 126 -2l48 1q-2 -79 -6.5 -92.5t-25.5 -14.5q11 -91 32 -283q5 0 7 -5q3 -8 6 -12q21 78 59 300q-3 4 -7 3q-12 0 -31 2l-5 102q88 0 133 3q15 1 42 -3v-96z" />
    <glyph glyph-name="X" unicode="X" horiz-adv-x="309" 
d="M198 377q10 55 34 137q30 102 39 137q9 2 29 15v64q-7 7 -31 7q2 0 -51 -2q-48 -1 -69 0q0 -4 1.5 -21.5t1.5 -24.5q0 -2 -1 -15q-1 -10 0 -14q2 -5 7 -5q12 0 30 4q0 2 -48 -171q-7 27 -18.5 81t-19.5 82q11 2 30 10v34.5v39.5q-11 2 -88 2q-8 0 -32 -6v-76q23 3 34 -9
l64 -259q-10 -56 -36 -151q-35 -130 -40 -152q-9 0 -27 -11v-71q14 -4 37 -4q57 0 115 -1q0 4 1.5 12t1.5 15q2 25 -1 51q-18 4 -23 5t-7.5 2.5t-2.5 9.5q0 20 38 159q8 -28 19.5 -81.5t18.5 -81.5q-11 -3 -30 -10v-39v-42q19 0 56 1h42l26 -1l-4 87q-11 -2 -32 5
q-24 96 -64 288z" />
    <glyph glyph-name="Y" unicode="Y" horiz-adv-x="311" 
d="M298 737q0 2 2 -22q1 -24 0 -39q0 -21 -2 -26q-1 0 -9 3t-17 3q-21 -66 -47 -179q-24 -101 -25 -114v-289h30q0 -81 1 -77q-28 0 -83 1q-59 2 -79 2q-3 6 -1 14q3 13 3 17v37q13 2 36 15v237q0 11 -24 124q-26 125 -45 198q-3 13 -27 21q-1 7 -7 20l6 52h154v-79h-27
q-4 -4 -4 -16q0 -36 35 -151q14 11 19 51q8 59 11 66t8 27v19q-4 4 -20 4q-5 12 -7 61l2 18z" />
    <glyph glyph-name="Z" unicode="Z" horiz-adv-x="318" 
d="M307 1h-286v81l205 570h-142v-206h-72v287h284q8 -23 6 -45q-2 -34 -92 -294l-107 -311q6 -4 69 -4q62 0 69 4v210q11 3 32 2q36 -2 34 -2v-292z" />
    <glyph glyph-name="underscore" unicode="_" 
 />
    <glyph glyph-name="grave" unicode="`" horiz-adv-x="104" 
d="M78 730l-60 3l3 -73l60 -103l-3 63l-23 40h26z" />
    <glyph glyph-name="a" unicode="a" horiz-adv-x="307" 
d="M297 0h-148v61h22q4 2 4 14q0 78 -38 78q-25 0 -31 -15q-3 -6 -3 -27v-47q11 -2 30 -8v-58h-121q8 19 -1 58q13 5 32 5q8 17 12 54q3 32 5 64q4 28 11 92q14 94 40 294q1 11 14 11q3 0 24.5 -2.5t39.5 -2.5l78 -507q10 -5 30 -4v-60zM159 201q-9 50 -28 143l-17 -147z
" />
    <glyph glyph-name="b" unicode="b" horiz-adv-x="292" 
d="M275 208q0 -80 -8 -115q-24 -98 -105 -98h-152v60q6 6 27 5q9 49 9 92v352q-4 3 -22 8q-14 4 -14 9v54h168q26 1 53 -22q44 -37 44 -124q0 -47 -4 -61q-13 -44 -64 -62q50 -17 62 -45q6 -12 6 -53zM181 423q0 5 -3 36l-4 42l-15 9h-24v-173q9 -4 30 0q16 18 16 86z
M176 164q0 78 -7 98q-6 15 -29 13l-11 -193q0 -14 12 -22h34q1 72 1 104z" />
    <glyph glyph-name="c" unicode="c" horiz-adv-x="236" 
d="M220 102q1 -38 -18 -67q-24 -38 -73 -38q-112 0 -112 150v350q0 30 23 52t58 22q6 0 21 -4t20 -4q8 0 12.5 5t4.5 6q42 4 41 4q9 1 18 1v-227h-65q-10 74 -13 149q-5 3 -17 11q-3 0 -17 -11v-399q1 -31 19 -46q10 0 16 7l12 169h70v-130z" />
    <glyph glyph-name="d" unicode="d" horiz-adv-x="275" 
d="M261 195q0 -84 -6 -112q-19 -86 -89 -86h-152v59q35 3 35 25q0 3 -1 10.5t-1 11.5l-4 398q-10 4 -29 3v67h152q28 1 56 -27q25 -25 28 -46q1 -15 6 -44zM174 169l-5 205q-2 9 -2 23v18q1 12 1 19q0 60 -32 73v-442h22q16 22 16 104z" />
    <glyph glyph-name="e" unicode="e" 
d="M236 0h-220q0 -3 -2 12.5t-2 43.5q10 -6 35 11v433q-5 4 -36 15v57h225v-230q-18 2 -32 2q-10 0 -18.5 -1l-8.5 -1q-7 5 -7 162q-2 3 -9 11h-18q-9 -5 -10 -16v0q1 -15 -4 -44q0 1 0 -116q0 -22 -1 -11q1 -7 9 -7h69v-68q-35 7 -77 1v-179q2 -6 9 -15h24l9 7v161h65v-228
z" />
    <glyph glyph-name="f" unicode="f" 
d="M241 346q-18 1 -60 -4q-5 69 -13 170q-4 3 -26 3q-9 -6 -9 -16v-174h82q-7 -24 0 -68q-6 -2 -77 0v-116q3 -62 2 -72q19 -15 39 -11v-59h-159v55q11 -3 18 -3q15 0 17 14q1 1 1 24l-6 319q2 17 -1 47q-5 43 -5 49q-10 2 -29 12v55h226v-225z" />
    <glyph glyph-name="g" unicode="g" horiz-adv-x="319" 
d="M305 235q-1 -1 -24 -1q-11 -9 -11 -19q6 -136 6 -213q-8 -7 -18 -7q-17 0 -50 32q-38 -32 -78 -32q-120 0 -120 215q0 22 1.5 51t1.5 33v24q-1 21 -1 37q0 216 103 216q8 0 30 -9l32 -13q3 8 11 27h78v-233q-12 9 -78 0q0 61 -1 72q-5 49 -28 80h-23q-15 -16 -18 -41
t-3 -120q0 10 5 -99q4 -100 2 -145q9 -14 23 -14q31 0 31 45v17q-1 10 -1 13.5t-3 36t-3 47.5q-13 3 -35 11v69h171v-80z" />
    <glyph glyph-name="h" unicode="h" horiz-adv-x="354" 
d="M343 502q-17 0 -37 -9v-408q3 -4 37 -18v-66q4 0 -77 -2q-47 -1 -76 2q0 22 1 68q9 -5 9 7v172q-8 8 -24 8q-15 0 -24 -8v-167q8 -5 21 -15v-65h-158v71q22 0 32 9v412q-4 4 -25 4l-7 6v61q13 10 24 10h129v-71q-21 -10 -21 -21q0 10 2.5 -28t2.5 -118q10 -6 25 -6
q17 0 23 11v147q-16 10 -16 38l1 47q25 0 64.5 1.5t42.5 1.5q42 0 51 -8v-66z" />
    <glyph glyph-name="i" unicode="i" horiz-adv-x="207" 
d="M192 1h-181v65q13 11 24 1q14 11 14 33l4 390q-11 4 -33 14v69q9 -3 86 -3t89 4q10 -38 0 -76q-11 2 -22.5 -4.5t-9.5 -16.5l-4 -402q11 -5 33 -4v-70z" />
    <glyph glyph-name="j" unicode="j" horiz-adv-x="294" 
d="M284 507q-3 -2 -24 -3q-17 -2 -16 -7v-430q1 -21 -35 -46.5t-57 -25.5q-33 0 -60 23q-4 -3 -4 -23h-67l-11 11q0 68 -7 195q12 10 31 10q7 0 21.5 -2t20.5 -2l8 -77q10 -64 45 -64q19 0 23 17v23q0 6 -8.5 57t-8.5 57v221q0 45 -1 64l-24 5q-7 -2 -15 1v62h189v-66z" />
    <glyph glyph-name="k" unicode="k" horiz-adv-x="351" 
d="M341 522q-13 -3 -31 -14q-24 -36 -99 -173q13 -5 34 -19q29 -29 28 -46v-203q-1 0 8 -7q16 13 16 31v0q0 38 4 46h29q6 -9 6 -30q0 -37 -15 -67q-22 -41 -66 -41q-28 0 -51.5 21t-23.5 38v191q0 13 -30 27q-9 0 -18 -7v-196q0 -9 36 -18v-54q-73 -9 -155 0v53q6 6 26 5
v447q-13 4 -32 16v51h146v-60h-17q-6 -5 0 -176q50 54 101 173q-7 3 -31 3v60q67 7 135 0v-51z" />
    <glyph glyph-name="l" unicode="l" horiz-adv-x="262" 
d="M247 0h-231v57q21 0 28 7v442q-13 2 -34 12v55h159q-7 -27 1 -59q-10 -5 -34 -5v-446q1 -5 8 -6h29v179h74v-236z" />
    <glyph glyph-name="m" unicode="m" horiz-adv-x="371" 
d="M366 512q-11 -5 -29 -4v-444q10 -2 29 -8v-57h-152v53q11 2 30 12v322l-56 -389q-1 0 -11.5 -2.5t-16.5 -2.5l-61 406v-338q10 -2 30 -8l-1 -52h-112v48q14 5 27 12v440q-11 4 -31 12l-1 60h161q5 -41 23 -126q15 48 24 125q163 0 147 1v-60z" />
    <glyph glyph-name="n" unicode="n" horiz-adv-x="397" 
d="M386 514q-13 -3 -38 -16v-493h-73l-149 387v-307q14 -12 47 -10v-75h-159v68q8 8 34 7l6 298q-10 20 -10 44v0q0 6 4 39q2 20 -3 29q-7 13 -30 18v72h151l118 -308q3 7 1 46q-5 76 -5 185l-10 9q-6 -5 -22 -5q-11 41 0 76h138v-64z" />
    <glyph glyph-name="o" unicode="o" horiz-adv-x="263" 
d="M243 449l-5 -328q-12 -121 -116 -121q-110 0 -110 153q0 17 1.5 39t1.5 24l5 257q12 101 112 101q62 0 88 -42q17 -27 23 -83zM147 77v424q-17 13 -24 13l-16 -13v-424q3 -5 11 -13h17q3 4 12 13z" />
    <glyph glyph-name="p" unicode="p" horiz-adv-x="277" 
d="M265 395q0 -32 -13 -63q-17 -41 -50 -49q-21 -3 -70 -9v-204q4 -3 36 -12v-57h-152q-8 25 0 58q30 4 30 42l-5 400q-13 4 -30 16v54h154q18 1 49 -18t39 -55q12 -54 12 -103zM173 397q0 59 -12 105q-13 6 -22 6q-12 -14 -12 -48q0 -13 3.5 -43t3.5 -46q0 -24 -6 -41h44
q1 52 1 67z" />
    <glyph glyph-name="q" unicode="q" horiz-adv-x="263" 
d="M243 449l-5 -328q-12 -121 -116 -121q-110 0 -110 153q0 17 1.5 39t1.5 24l5 257q12 101 112 101q62 0 88 -42q17 -27 23 -83zM147 77v424q-17 13 -24 13l-16 -13v-424q3 -5 11 -13h17q3 4 12 13zM186 17l10 -17h45q-23 45 -21 49q-3 0 -6 -1q-6 -6 -18 -19z" />
    <glyph glyph-name="r" unicode="r" horiz-adv-x="350" 
d="M339 94q0 -27 -20 -58q-26 -41 -65 -41q-27 0 -53 25q-19 19 -19 90.5t-2 100.5q0 16 1 31q-3 22 -26 32q-9 0 -18 -7v-200q5 -5 25 -4q6 -21 6 -63h-74q-60 -1 -74 -1l-7 5v42q3 9 34 17v438q-7 7 -28 7v28.5v31.5q30 4 90 4q55 0 73 -1q95 -9 95 -144q0 -45 -6 -65
q-13 -45 -56 -55q-1 -1 4 -4q58 -18 58 -82q0 -12 -2 -33t-2 -29q0 4 -1 -30q-1 -23 1 -37q3 -20 12 -28q12 14 12 32q0 6 -4 31l12 9h28q0 -6 3 -21.5t3 -20.5zM184 417q0 59 -7 81l-15 9h-24v-172h29q17 13 17 82z" />
    <glyph glyph-name="s" unicode="s" horiz-adv-x="291" 
d="M285 134q0 -44 -25 -86q-32 -54 -87 -54q-19 0 -71 29q-3 -3 -1 -10q3 -11 4 -13q-43 -9 -86 -1l-4 203q2 7 4 13t12 6q6 0 28.5 -3t32.5 -3q8 -60 9 -65q7 -39 18 -61.5t36 -22.5q13 0 20 13q4 8 4 14q0 49 -41 111l-78 106q-41 64 -41 121q0 42 21 84q31 58 90 58
q17 0 31 -8q3 -2 34 -26q6 9 4 33q61 0 67 1l12 -1v-201q-36 1 -79 0v68q-5 47 -48 66q-21 -7 -26 -19q-1 -4 -1 -22q0 -27 61 -108q70 -93 78.5 -112.5t15.5 -61.5q6 -34 6 -48z" />
    <glyph glyph-name="t" unicode="t" horiz-adv-x="340" 
d="M317 352h-68q-3 6 -3 35q-1 62 -3 124q-13 4 -32 -4v-440q1 -1 2 -4t9 -3q12 0 25 -1q-1 -19 -1 -59h-158q-9 23 -6 55q9 6 28 7q10 1 8 12l5 433l-9 7h-22v-166q-20 0 -55 -4q-7 4 -18 13v221h298v-226z" />
    <glyph glyph-name="u" unicode="u" horiz-adv-x="386" 
d="M372 508q-15 -3 -42 -10q-1 -5 -1 -52v-171q0 -1 -3 -35.5t-2 -51.5q12 -193 -142 -193q-58 0 -97 36q-37 32 -37 75v392q-5 5 -29 4q-5 7 -5 23q0 5 -1 24.5t-1 24.5h178q8 -12 8 -33q0 -23 -3 -27q-7 -3 -15 -5q-14 -5 -14 -11l7 -378q0 -22 28 -32q9 3 22 19t13 23
v373q-12 9 -25 9v60h161v-64z" />
    <glyph glyph-name="v" unicode="v" horiz-adv-x="406" 
d="M392 495q0 -10 -19.5 -13t-23.5 -13q-29 -98 -54 -235l-40 -238q-40 2 -97 0q-28 180 -106 478q-11 19 -41 15v82q19 4 70 2q73 -2 118 -1v-83h-28q-3 -14 -3 -30q0 -29 15 -84q16 -60 19 -93l13 -14q9 33 25.5 100.5t25.5 100.5q-10 9 -24 14l-24 8v80l174 1v-77z" />
    <glyph glyph-name="w" unicode="w" horiz-adv-x="609" 
d="M594 498q0 -9 -15.5 -10.5t-30.5 -2.5q-38 -91 -75 -263q-15 -67 -57 -227h-67l-60 311q-29 -66 -51 -196q-17 -110 -22 -110q-13 0 -40.5 -2.5t-30.5 -2.5q2 18 -5 45q-6 22 -11 44l-62 304q-4 33 -9 66q-10 41 -45 49v70h174q2 -21 -3 -70q-21 -2 -22 -5q-2 -2 0 -29
q3 -65 41 -222q22 60 31 72q3 4 13 48q6 25 12 66v56q-13 3 -43 14v70q5 0 126 -2l48 1q-2 -61 -6.5 -71.5t-25.5 -11.5q11 -71 32 -221q5 0 7.5 -5t5.5 -8q21 61 59 234q-3 3 -7 3q-12 -1 -31 1l-5 79q88 0 133 3q15 1 42 -3v-74z" />
    <glyph glyph-name="x" unicode="x" horiz-adv-x="309" 
d="M198 294q10 43 34 107q30 80 39 106q9 3 29 12v50q-7 6 -31 6q2 0 -51 -1q-48 -1 -69 -1q0 -3 1.5 -16.5t1.5 -18.5q0 -2 -1 -12q-1 -8 0 -11q2 -4 7 -4q12 0 30 3q0 1 -48 -134q-7 22 -18.5 64t-19.5 64q11 2 30 7v28v30q-11 2 -88 2q-8 0 -32 -5v-59q23 2 34 -7
l64 -202q-10 -44 -36 -118q-35 -102 -40 -118q-9 -1 -27 -9v-56q14 -2 37 -2q57 0 115 -1q0 3 1.5 9t1.5 12q2 19 -1 40q-18 3 -24 3q-9 6 -9 10q0 15 38 124q8 -22 19.5 -64t18.5 -64q-11 -1 -30 -7v-30.5v-32.5h56q38 1 42 1l26 -1l-4 67q-11 -1 -32 4q-24 75 -64 225z
" />
    <glyph glyph-name="y" unicode="y" horiz-adv-x="311" 
d="M298 575q0 1 2 -17q1 -19 0 -30q0 -17 -2 -21q-1 0 -9 2t-17 2q-21 -51 -47 -139q-24 -79 -25 -89v-226h30q0 -62 1 -59q-28 0 -83 1q-59 1 -79 1q-3 5 -1 11q3 10 3 13v29q13 2 36 12v185q0 8 -24 97q-26 97 -45 153q-3 11 -27 17q-1 6 -7 16l6 40h154v-62h-27
q-4 -2 -4 -12q0 -28 35 -117q14 8 19 39q8 46 11 51.5t8 20.5v15q-4 3 -20 3q-5 10 -7 48l2 14z" />
    <glyph glyph-name="z" unicode="z" horiz-adv-x="318" 
d="M307 1h-286v63l205 444h-142v-160h-72v224h284q8 -19 6 -35q-2 -27 -92 -229l-107 -243q6 -3 69 -3q62 0 69 2v165h66v-228z" />
  </font>
</defs>
</svg>
